<svg width="30" height="30" viewBox="0 0 30 30" fill="none" xmlns="http://www.w3.org/2000/svg">
<path d="M9.16317 6.53613C9.31707 6.80007 9.59438 6.94611 9.87867 6.94611C10.0192 6.94611 10.1606 6.91394 10.2908 6.83605C10.6856 6.61 10.8205 6.10331 10.5916 5.71064L8.62971 2.31079C8.40003 1.91393 7.89687 1.77826 7.50202 2.00897C7.1068 2.2329 6.97131 2.74002 7.20015 3.13438L9.16317 6.53613Z" fill="white"/>
<path d="M5.57847 14.9962C5.57847 14.5405 5.20823 14.1699 4.75269 14.1699L0.82481 14.1701C0.369039 14.1701 -0.000976562 14.5403 -0.000976562 14.9964C-0.000976562 15.4526 0.369056 15.8244 0.82481 15.8244H4.75269C5.20824 15.824 5.57847 15.4523 5.57847 14.9962V14.9962Z" fill="white"/>
<path d="M6.53907 9.15827L3.13892 7.19262C2.74221 6.96467 2.23732 7.10034 2.01144 7.49635C1.78346 7.893 1.91745 8.3976 2.3131 8.62176L5.71455 10.5866C5.84538 10.6609 5.98678 10.6945 6.12735 10.6945C6.41017 10.6945 6.68938 10.5512 6.84117 10.2824C7.07086 9.89172 6.9358 9.38629 6.53909 9.15833L6.53907 9.15827Z" fill="white"/>
<path d="M5.71472 19.4064L2.31306 21.3717C1.91762 21.6005 1.78341 22.1038 2.0114 22.499C2.16318 22.7663 2.44134 22.9102 2.72522 22.9102C2.86748 22.9102 3.00719 22.8783 3.13908 22.8002L6.53944 20.8374C6.93615 20.6101 7.07078 20.107 6.8411 19.7059C6.61501 19.315 6.10928 19.1763 5.71471 19.4064L5.71472 19.4064Z" fill="white"/>
<path d="M23.8729 10.698C24.0115 10.698 24.154 10.6623 24.2852 10.588L27.6869 8.62679C28.0802 8.39883 28.2147 7.89405 27.9888 7.4978C27.7606 7.10454 27.2555 6.96591 26.8607 7.19407L23.4606 9.15972C23.0624 9.38767 22.9292 9.8931 23.1568 10.2904C23.3103 10.553 23.5882 10.698 23.8729 10.698L23.8729 10.698Z" fill="white"/>
<path d="M14.9979 5.57714C15.4536 5.57714 15.8239 5.20695 15.8239 4.75337V0.823764C15.8239 0.369759 15.4536 0 14.9979 0C14.5415 0 14.1719 0.369976 14.1719 0.823764V4.75321C14.1721 5.20701 14.5415 5.57719 14.9979 5.57719V5.57714Z" fill="white"/>
<path d="M19.7089 6.83806C19.8383 6.91384 19.9811 6.94601 20.1192 6.94601C20.406 6.94601 20.6827 6.80166 20.8345 6.53603L22.7989 3.13428C23.0278 2.73976 22.8925 2.2358 22.4981 2.00888C22.1012 1.77817 21.598 1.91426 21.3704 2.3107L19.4053 5.71033C19.1784 6.10634 19.3119 6.61028 19.7089 6.83802L19.7089 6.83806Z" fill="white"/>
<path d="M29.1758 14.1719H25.2477C24.7904 14.1719 24.4219 14.5399 24.4219 14.9961C24.4219 15.4522 24.7902 15.8238 25.2458 15.8238H29.1758C29.6309 15.8238 30.0008 15.4518 30.0008 15.0003C30.0008 14.5399 29.6312 14.1719 29.1758 14.1719H29.1758Z" fill="white"/>
<path d="M14.9983 22.9237C19.3741 22.9237 22.9228 19.3748 22.9228 15.0008C22.9228 10.6236 19.3743 7.07422 14.9983 7.07422C10.6199 7.07422 7.07422 10.6235 7.07422 15.0008C7.07443 19.3748 10.6205 22.9237 14.9983 22.9237Z" fill="white"/>
<path d="M27.6869 21.3717L24.2854 19.4064C23.8898 19.1764 23.3847 19.315 23.1567 19.7057C22.9291 20.1068 23.0627 20.6097 23.4605 20.8372L26.8606 22.8C26.9906 22.8783 27.132 22.9143 27.2721 22.9143C27.5569 22.9143 27.8335 22.7661 27.9881 22.5007C28.2146 22.104 28.0797 21.6005 27.6868 21.3717H27.6869Z" fill="white"/>
<path d="M10.2865 23.1595C9.89167 22.932 9.38661 23.0664 9.16052 23.4611L7.1975 26.8628C6.96887 27.2576 7.10287 27.7647 7.49683 27.9902C7.6268 28.068 7.77118 28.1028 7.90983 28.1028C8.19752 28.1028 8.47273 27.9544 8.62745 27.6868L10.5894 24.2853C10.8182 23.8921 10.683 23.3892 10.2865 23.1595L10.2865 23.1595Z" fill="white"/>
<path d="M20.8344 23.4611C20.6081 23.0664 20.1037 22.932 19.7089 23.1595C19.3119 23.3891 19.1784 23.8921 19.4053 24.2853L21.3704 27.6889C21.5235 27.9543 21.8002 28.1027 22.0845 28.1027C22.2271 28.1027 22.3688 28.0682 22.4981 27.9901C22.8923 27.7647 23.0278 27.2575 22.7989 26.8628L20.8344 23.4611Z" fill="white"/>
<path d="M14.9979 24.418C14.5415 24.418 14.1719 24.7882 14.1719 25.2454V29.1752C14.1719 29.6267 14.5413 29.9987 14.9979 29.9987C15.4536 29.9987 15.8218 29.6266 15.8218 29.1752V25.2454C15.8218 24.7882 15.4536 24.418 14.9979 24.418Z" fill="white"/>
</svg>
