<svg width="1022" height="379" viewBox="0 0 1022 379" fill="none" xmlns="http://www.w3.org/2000/svg">
<path d="M41.5 52L23.5 54.75L22 48.75L27.75 48.25C29.5833 42.25 31.0833 36.3333 32.25 30.5L38.25 1.75L45 3.5L34 47.75C41.6667 46.75 47 46 50 45.5C48.8333 42.1667 46.8333 37.4167 44 31.25L49.25 29.25C53.0833 36.25 56.6667 44.75 60 54.75L54.25 57.25C53.25 53.9167 52.4167 51.5 51.75 50L41.5 52ZM18.75 8.25V17.5H27.25V22.75H18.75V27.25C21.25 29.0833 24.0833 30.9167 27.25 32.75C26.75 33.75 25.8333 35.4167 24.5 37.75C22.1667 36.4167 20.25 35.0833 18.75 33.75V57.75H13.5V36.25C10.8333 40.5833 8.16667 44.3333 5.5 47.5C4.5 45.5 3.25 43.5 1.75 41.5C4.75 38.3333 7 35.5 8.5 33C10 30.6667 11.6667 27.25 13.5 22.75H3.5V17.5H13.5V9.25L5.75 10.75C4.58333 8.41667 3.58333 6.66667 2.75 5.5C10.4167 4.66667 17.75 3 24.75 0.5L27.5 5.5C23.3333 6.83333 20.4167 7.75 18.75 8.25ZM87.75 39.25L93.25 39.75C93.25 42.5833 93.3333 44.0833 93.5 44.25C93.8333 45.0833 94.3333 46 95 47C95.8333 47.6667 97.0833 48.1667 98.75 48.5C100.917 49.1667 104.417 49.5 109.25 49.5C112.417 49.5 116.417 49.1667 121.25 48.5V54.5C115.583 55 112.167 55.25 111 55.25C105 55.25 100.5 54.8333 97.5 54C94.3333 53.1667 92.1667 52.0833 91 50.75C89.6667 49.4167 88.75 48 88.25 46.5C87.75 44.8333 87.5833 42.4167 87.75 39.25ZM119 20.5L118.75 26.25C115.583 26.0833 112.583 26 109.75 26C107.75 26 106.167 26.0833 105 26.25C104.667 26.25 103.458 26.3333 101.375 26.5C99.2917 26.6667 96.75 27 93.75 27.5L92.75 22C95.5833 21.5 98.0417 21.1667 100.125 21C102.208 20.8333 103.5 20.75 104 20.75C109 20.4167 114 20.3333 119 20.5ZM88.75 13.5C93.0833 12.8333 97.6667 11.8333 102.5 10.5L102.75 16.25C97.25 17.5833 92 18.5 87 19C83.8333 29.8333 78.9167 42.25 72.25 56.25L66.75 53.75C69.25 48.75 71.5833 43.8333 73.75 39C74.5833 36.6667 75.6667 33.7083 77 30.125C78.3333 26.5417 79.5833 23 80.75 19.5C74.9167 19.8333 71.3333 19.9167 70 19.75L70.25 14C75.0833 14.3333 79.1667 14.4167 82.5 14.25C83.5 10.9167 84.5 6.91667 85.5 2.25L92 4.25C91.5 5.91667 91 7.45833 90.5 8.875C90 10.2917 89.4167 11.8333 88.75 13.5ZM156 2.5L153.75 11.5C158.583 10.6667 161.833 10.1667 163.5 10C166.667 9.5 170.083 8.75 173.75 7.75L174 13.5C167.833 15.1667 160.583 16.4167 152.25 17.25C150.75 23.4167 149.667 28.6667 149 33C153 30.8333 156.583 29.25 159.75 28.25C163.417 27.4167 166.417 27 168.75 27C172.75 27 176.083 28.1667 178.75 30.5C181.25 33 182.5 36.25 182.5 40.25C182.5 45.4167 180.417 49.3333 176.25 52C170.417 55.5 160.417 57.1667 146.25 57C145.917 54.3333 145.5 52.4167 145 51.25C154.833 51.25 161.75 50.6667 165.75 49.5C169.75 48.5 172.583 47.0833 174.25 45.25C175.75 43.4167 176.5 41.5 176.5 39.5C176.5 37 175.75 35.1667 174.25 34C172.583 32.6667 170.5 32 168 32C164.667 32 161.083 32.75 157.25 34.25C153.583 35.9167 150.083 38.4167 146.75 41.75L142.5 39C143.333 32.6667 144.5 25.4167 146 17.25L139.5 17.5C137.167 17.5 135.25 17.4167 133.75 17.25L134.25 11C138.583 11.8333 142.917 12.0833 147.25 11.75L149.5 1L156 2.5ZM219.5 12.25C213 13.75 208.417 16.25 205.75 19.75C202.917 23.5833 201.5 27.9167 201.5 32.75C201.5 36.5833 202.25 39.6667 203.75 42C204.583 43.5 205.583 44.25 206.75 44.25C207.417 44.25 208 43.9167 208.5 43.25C210 41.75 212 37.9167 214.5 31.75C216.833 25.4167 218.5 18.9167 219.5 12.25ZM224.5 56C223.667 53.6667 222.75 51.75 221.75 50.25C227.583 48.9167 231.333 47.75 233 46.75C236 45.25 238.417 43.0833 240.25 40.25C242.083 37.4167 243 33.9167 243 29.75C243 24.4167 241.5 20.1667 238.5 17C235.167 13.6667 230.833 11.9167 225.5 11.75C223.5 22.4167 221.5 30.0833 219.5 34.75C216.833 41.0833 214.083 45.6667 211.25 48.5C210.083 50 208.5 50.75 206.5 50.75C204 50.75 201.75 49.4167 199.75 46.75C197.083 43.0833 195.75 38.5 195.75 33C195.75 25.6667 198.417 19.5 203.75 14.5C209.083 9.5 216.083 7 224.75 7C229.083 7 233.333 8 237.5 10C240.333 11.1667 242.583 12.6667 244.25 14.5C245.917 16.3333 247.25 18.5833 248.25 21.25C249.083 24.25 249.5 27 249.5 29.5C249.5 34.5 248.333 38.9167 246 42.75C244 46.25 240.833 49.1667 236.5 51.5C233.833 53.3333 229.833 54.8333 224.5 56ZM278.75 26.25L275.5 31.75L268.5 28C268.167 27.8333 266.333 27.0833 263 25.75L265.5 20.5C271.333 22.5 275.75 24.4167 278.75 26.25ZM310.25 18.75C311.917 21.0833 313.333 22.75 314.5 23.75C308.667 30.9167 302.25 37.0833 295.25 42.25C289.083 46.75 280.333 51.3333 269 56L266 49.25C272.833 46.9167 278.333 44.6667 282.5 42.5C288 39.5 292.75 36.25 296.75 32.75C301.75 28.4167 306.25 23.75 310.25 18.75ZM285.75 11.25L282.25 16.25C276.583 12.75 272.417 10.3333 269.75 9L272.75 4C277.083 6 281.417 8.41667 285.75 11.25ZM334.75 25V19.5H367.5V57.5H361.25V55H334.75V49.75H361.25V39.5H334.75V34.25H361.25V25H334.75ZM440.25 32.25H389.5V26H440.25V32.25ZM475.5 12.25C469 13.75 464.417 16.25 461.75 19.75C458.917 23.5833 457.5 27.9167 457.5 32.75C457.5 36.5833 458.25 39.6667 459.75 42C460.583 43.5 461.583 44.25 462.75 44.25C463.417 44.25 464 43.9167 464.5 43.25C466 41.75 468 37.9167 470.5 31.75C472.833 25.4167 474.5 18.9167 475.5 12.25ZM480.5 56C479.667 53.6667 478.75 51.75 477.75 50.25C483.583 48.9167 487.333 47.75 489 46.75C492 45.25 494.417 43.0833 496.25 40.25C498.083 37.4167 499 33.9167 499 29.75C499 24.4167 497.5 20.1667 494.5 17C491.167 13.6667 486.833 11.9167 481.5 11.75C479.5 22.4167 477.5 30.0833 475.5 34.75C472.833 41.0833 470.083 45.6667 467.25 48.5C466.083 50 464.5 50.75 462.5 50.75C460 50.75 457.75 49.4167 455.75 46.75C453.083 43.0833 451.75 38.5 451.75 33C451.75 25.6667 454.417 19.5 459.75 14.5C465.083 9.5 472.083 7 480.75 7C485.083 7 489.333 8 493.5 10C496.333 11.1667 498.583 12.6667 500.25 14.5C501.917 16.3333 503.25 18.5833 504.25 21.25C505.083 24.25 505.5 27 505.5 29.5C505.5 34.5 504.333 38.9167 502 42.75C500 46.25 496.833 49.1667 492.5 51.5C489.833 53.3333 485.833 54.8333 480.5 56ZM515 32V26H570.75V32H515ZM593.25 53.25C593.083 51.25 592.667 49.1667 592 47C600.5 47 607.083 46.25 611.75 44.75C616.583 43.4167 620.167 41.3333 622.5 38.5C624.833 35.6667 626 32.5 626 29C626 24.6667 624.917 21.4167 622.75 19.25C620.583 17.0833 617.5 16 613.5 16C612 16 609.583 16.25 606.25 16.75C602.083 17.4167 593.583 19.1667 580.75 22L579.75 15.25L592.75 13.5C602.417 11.8333 607.25 11 607.25 11C608.417 10.8333 610.333 10.75 613 10.75C619.333 10.75 624.083 12.3333 627.25 15.5C630.417 18.6667 632 23 632 28.5C632 35.3333 629.167 41 623.5 45.5C617.833 50.1667 607.75 52.75 593.25 53.25ZM643 32V26H698.75V32H643ZM721.25 53.25C721.083 51.25 720.667 49.1667 720 47C728.5 47 735.083 46.25 739.75 44.75C744.583 43.4167 748.167 41.3333 750.5 38.5C752.833 35.6667 754 32.5 754 29C754 24.6667 752.917 21.4167 750.75 19.25C748.583 17.0833 745.5 16 741.5 16C740 16 737.583 16.25 734.25 16.75C730.083 17.4167 721.583 19.1667 708.75 22L707.75 15.25L720.75 13.5C730.417 11.8333 735.25 11 735.25 11C736.417 10.8333 738.333 10.75 741 10.75C747.333 10.75 752.083 12.3333 755.25 15.5C758.417 18.6667 760 23 760 28.5C760 35.3333 757.167 41 751.5 45.5C745.833 50.1667 735.75 52.75 721.25 53.25ZM795.5 12.25C789 13.75 784.417 16.25 781.75 19.75C778.917 23.5833 777.5 27.9167 777.5 32.75C777.5 36.5833 778.25 39.6667 779.75 42C780.583 43.5 781.583 44.25 782.75 44.25C783.417 44.25 784 43.9167 784.5 43.25C786 41.75 788 37.9167 790.5 31.75C792.833 25.4167 794.5 18.9167 795.5 12.25ZM800.5 56C799.667 53.6667 798.75 51.75 797.75 50.25C803.583 48.9167 807.333 47.75 809 46.75C812 45.25 814.417 43.0833 816.25 40.25C818.083 37.4167 819 33.9167 819 29.75C819 24.4167 817.5 20.1667 814.5 17C811.167 13.6667 806.833 11.9167 801.5 11.75C799.5 22.4167 797.5 30.0833 795.5 34.75C792.833 41.0833 790.083 45.6667 787.25 48.5C786.083 50 784.5 50.75 782.5 50.75C780 50.75 777.75 49.4167 775.75 46.75C773.083 43.0833 771.75 38.5 771.75 33C771.75 25.6667 774.417 19.5 779.75 14.5C785.083 9.5 792.083 7 800.75 7C805.083 7 809.333 8 813.5 10C816.333 11.1667 818.583 12.6667 820.25 14.5C821.917 16.3333 823.25 18.5833 824.25 21.25C825.083 24.25 825.5 27 825.5 29.5C825.5 34.5 824.333 38.9167 822 42.75C820 46.25 816.833 49.1667 812.5 51.5C809.833 53.3333 805.833 54.8333 800.5 56ZM851.5 43.5L859.5 45L866 46.25C867.5 45.0833 868.417 44.25 868.75 43.75C869.417 43.0833 870.417 41.75 871.75 39.75H854.75C853.417 41.0833 852.333 42.3333 851.5 43.5ZM880.5 24.25V18H872.75V24.25H880.5ZM852.5 24.25V18H845V24.25H852.5ZM867.25 24.25V18H857.75V24.25H867.25ZM867.25 13.25V8.25H857.75V13.25H867.25ZM835.25 8.25V3H890.25V8.25H872.75V13.25H886.5V29.25H860L862.25 31C861.917 31.6667 860.917 32.8333 859.25 34.5H890.75V39.75H878.75C877.083 43.25 875.083 46 872.75 48L882.25 51.25C882.417 51.4167 884.25 52.1667 887.75 53.5L883.75 58.75C880.417 57.25 874.917 55.0833 867.25 52.25C864.083 53.75 861.75 54.75 860.25 55.25C859.25 55.5833 856.083 56.25 850.75 57.25C847.25 57.9167 843.333 58.3333 839 58.5C838.333 56.3333 837.5 54.5 836.5 53C845 52.8333 852.5 51.8333 859 50L847.75 47.5L845.5 50L841 46C842.5 44.5 843.542 43.375 844.125 42.625C844.708 41.875 845.583 40.9167 846.75 39.75H834.75V34.5H851.5C852.833 33.1667 854.333 31.4167 856 29.25H839.25V13.25H852.5V8.25H835.25ZM955.75 52C954.417 53.5 953.333 55.0833 952.5 56.75C946.333 54.9167 940.5 52.3333 935 49L938.5 44.75C942 46.9167 944.75 48.3333 946.75 49C949.083 50 952.083 51 955.75 52ZM901.5 56.5C901.333 56 900.25 54.4167 898.25 51.75C900.75 50.9167 903.417 50 906.25 49C907.75 48.3333 910.5 46.9167 914.5 44.75L918.5 48.25C914.167 51.0833 910.667 53 908 54C905.167 55.1667 903 56 901.5 56.5ZM924.25 5V0.5H930V5H951.25V9.5H930V13.25H948.25V17.75H930V21.25H954.75V25.75H925.25C924.417 26.9167 922.333 29.3333 919 33L924.5 37C930.5 31.5 934 28.1667 935 27L939.5 30.75C935.833 33.9167 932.417 36.5833 929.25 38.75C932.25 38.75 936.917 38.5833 943.25 38.25L940.25 35.25L944 31.75C947 34.25 950.25 37.6667 953.75 42L949.25 45.25L946.75 42.25C943.083 42.5833 937.333 42.9167 929.5 43.25V57.5H924V43.5L912.75 44L900.75 44.25L899.5 39H918.25C912.083 35 908.417 32.6667 907.25 32L910.25 28C910.917 28.3333 911.542 28.625 912.125 28.875C912.708 29.125 913.5 29.6667 914.5 30.5C916 28.6667 917.25 27.0833 918.25 25.75H899.5V21.25H924.25V17.75H906V13.25H924.25V9.5H903.5V5H924.25ZM7.5 78L9.5 68.5L16 70.75C13.1667 81.25 11.75 90.3333 11.75 98C11.75 103.5 12.4167 110.5 13.75 119L7.5 120.5C6.33333 112.833 5.75 105.917 5.75 99.75C5.75 92.0833 6.33333 84.8333 7.5 78ZM41 107.5C38 107 35.75 106.75 34.25 106.75C31.75 106.75 29.8333 107.167 28.5 108C27.5 108.5 27 109.25 27 110.25C27 111.417 27.5833 112.333 28.75 113C30.0833 114 31.9167 114.5 34.25 114.5C36.75 114.5 38.5 114 39.5 113C40.5 112.167 41 110.333 41 107.5ZM46.25 79.25C47.9167 78.9167 51.0833 78 55.75 76.5L56 82.5C51 83.6667 47.75 84.3333 46.25 84.5C46.0833 88.8333 46.1667 95.4167 46.5 104.25C50 105.583 54.25 108 59.25 111.5L55.25 116.5C52.4167 114.167 49.5833 112.083 46.75 110.25C46.5833 113.417 45.75 115.75 44.25 117.25C42.5833 118.75 39.6667 119.5 35.5 119.5C31.3333 119.5 28.0833 118.5 25.75 116.5C23.25 114.5 22 112.25 22 109.75C22 107.583 23 105.75 25 104.25C27 102.75 30.25 102 34.75 102C35.4167 102 37.4167 102.167 40.75 102.5L40.25 85.25C36.25 85.5833 32.6667 85.75 29.5 85.75C27.5 85.75 25 85.5833 22 85.25V79.5C27.8333 80 31.5 80.25 33 80.25C35.8333 80.25 38.25 80.1667 40.25 80L40 76.75V67.5H46.5C46.3333 69.8333 46.25 73.75 46.25 79.25ZM67.5 109.25L71.75 105.5C75.9167 109.5 79.3333 113.417 82 117.25L76.75 121.5C75.5833 119.5 74.4167 117.75 73.25 116.25C72.75 115.583 70.8333 113.25 67.5 109.25ZM130.25 110.75V106H187.25V110.75H168C173.5 113.75 179.917 115.917 187.25 117.25C185.917 119.25 184.917 120.833 184.25 122C176.917 120.5 170.083 118.167 163.75 115L167 110.75H150L153 114.75C148 117.75 141.083 120.25 132.25 122.25C130.75 119.083 129.833 117.333 129.5 117C133.833 116.333 137.583 115.417 140.75 114.25C143.083 113.583 145.667 112.417 148.5 110.75H130.25ZM172 99.25V95.75H145.25V99.25H172ZM172 92V88.75H145.25V92H172ZM172 85.25V81.75H145.25V85.25H172ZM156.25 69V64H161.75V69H185.25V74H161.75V77.5H177.5V103.25H140V77.5H156.25V74H131.75V69H156.25ZM219.5 76.25C213 77.75 208.417 80.25 205.75 83.75C202.917 87.5833 201.5 91.9167 201.5 96.75C201.5 100.583 202.25 103.667 203.75 106C204.583 107.5 205.583 108.25 206.75 108.25C207.417 108.25 208 107.917 208.5 107.25C210 105.75 212 101.917 214.5 95.75C216.833 89.4167 218.5 82.9167 219.5 76.25ZM224.5 120C223.667 117.667 222.75 115.75 221.75 114.25C227.583 112.917 231.333 111.75 233 110.75C236 109.25 238.417 107.083 240.25 104.25C242.083 101.417 243 97.9167 243 93.75C243 88.4167 241.5 84.1667 238.5 81C235.167 77.6667 230.833 75.9167 225.5 75.75C223.5 86.4167 221.5 94.0833 219.5 98.75C216.833 105.083 214.083 109.667 211.25 112.5C210.083 114 208.5 114.75 206.5 114.75C204 114.75 201.75 113.417 199.75 110.75C197.083 107.083 195.75 102.5 195.75 97C195.75 89.6667 198.417 83.5 203.75 78.5C209.083 73.5 216.083 71 224.75 71C229.083 71 233.333 72 237.5 74C240.333 75.1667 242.583 76.6667 244.25 78.5C245.917 80.3333 247.25 82.5833 248.25 85.25C249.083 88.25 249.5 91 249.5 93.5C249.5 98.5 248.333 102.917 246 106.75C244 110.25 240.833 113.167 236.5 115.5C233.833 117.333 229.833 118.833 224.5 120ZM303.25 67.25L300 71.25H313V76.25H289.5V80.25H308.75V85H289.5V89.5H315V94.25H289.5C289.5 94.75 289.333 96.8333 289 100.5H313.25V105.75H291.5C294 108.583 297.167 110.917 301 112.75C304.167 114.417 309.333 115.75 316.5 116.75C315.167 118.083 314.417 119 314.25 119.5C313.917 120 313.417 121.083 312.75 122.75C306.917 121.417 302 119.667 298 117.5C294.167 115.5 290.5 112.333 287 108C284.667 111.333 282.75 113.667 281.25 115C279.917 116.333 277.75 117.75 274.75 119.25C274.083 119.583 272 120.25 268.5 121.25C265.667 121.75 263.25 122.167 261.25 122.5C260.583 120.333 259.75 118.5 258.75 117C263.583 116.667 267.333 116 270 115C273.167 113.833 275.5 112.583 277 111.25C278.667 109.75 280.083 107.917 281.25 105.75H260.5V100.5H283C283.333 96.8333 283.5 94.75 283.5 94.25H258.5V89.5H283.75V85H265V80.25H283.75V76.25H261V71.25H275.25C275.083 70.9167 274.625 70.2917 273.875 69.375C273.125 68.4583 272.5 67.75 272 67.25L276.75 64.25C276.75 64.25 278.5 66.5833 282 71.25H293.25L297.75 64L303.25 67.25ZM365.75 64L372 67L366 76H378V89.25H372.25V80.5H329.5V89.25H323.75V76H359.75C361.583 73 363.583 69 365.75 64ZM345 66.25L350.75 64C351.583 65.6667 352.833 68.3333 354.5 72L349 74.25C348.167 72.25 346.833 69.5833 345 66.25ZM329.5 66.5L334.5 64.5C336.5 67.6667 337.583 69.5 337.75 70C337.917 70.1667 338.167 70.625 338.5 71.375C338.833 72.125 339 72.5 339 72.5L333.5 74.75C331.333 70.25 330 67.5 329.5 66.5ZM332.5 90V85.25H363.25L364.25 84.5L368 89.5L360 94.75C359.833 94.9167 358.75 95.6667 356.75 97C354.417 98.6667 353.25 99.5 353.25 99.5V100H379V105H353.25V116.5C353.25 117.833 352.75 118.833 351.75 119.5C350.75 120.167 347.833 120.917 343 121.75C343 121.583 342.958 121.375 342.875 121.125C342.792 120.875 342.667 120.667 342.5 120.5C342.333 120.333 342.25 120 342.25 119.5C342.25 119.333 342.208 119.125 342.125 118.875C342.042 118.625 341.917 118.5 341.75 118.5C341.75 118.5 341.75 118.375 341.75 118.125C341.75 117.875 341.667 117.667 341.5 117.5C341.167 116.833 340.833 116.333 340.5 116H346.25C346.75 116 347.083 115.917 347.25 115.75C347.417 115.583 347.5 115.167 347.5 114.5V105H323.25V100H347.5V94.25H351.75L357.75 90H332.5ZM412.5 65.25L419 68L414.75 74.75C415.917 74.5833 417 74.4583 418 74.375C419 74.2917 419.958 74.1667 420.875 74C421.792 73.8333 422.583 73.75 423.25 73.75C424.25 73.4167 426.5 72.9167 430 72.25L430.25 78L419 79.5C419.333 79.5 416.833 79.6667 411.5 80L407.75 85.75C410.417 85.4167 411.833 85.25 412 85.25C413 85.25 414.333 85.4167 416 85.75C417.167 86.25 418 86.8333 418.5 87.5C419 88 419.5 88.75 420 89.75C420 89.4167 420.167 90.4167 420.5 92.75L438 86.25L440 92.5C437.833 93 434.75 93.75 430.75 94.75C430.917 94.75 427.5 95.8333 420.5 98C420.5 101.833 420.583 105 420.75 107.5H415V100.25C410 102.417 406.917 104.167 405.75 105.5C404.417 106.5 403.75 107.667 403.75 109C403.75 110.5 404.667 111.667 406.5 112.5C408.833 113.833 413 114.5 419 114.5C423 114.5 428.333 114.083 435 113.25V119.25C427.333 119.75 422.25 120 419.75 120C411.75 120 405.917 118.833 402.25 116.5C399.583 114.833 398.25 112.417 398.25 109.25C398.25 106.917 399.333 104.667 401.5 102.5C403.5 100.667 408 98.0833 415 94.75C415 92.75 414.667 91.4167 414 90.75C413.333 90.0833 412.333 89.75 411 89.75C408.5 89.75 406.417 90.3333 404.75 91.5C402.75 92.8333 398.833 96.8333 393 103.5L388.5 99.25C393.5 94.5833 396.667 91.4167 398 89.75C400.167 87.4167 402.5 84.3333 405 80.5C399.667 80.8333 395.833 80.8333 393.5 80.5L393.25 75C395.75 75.1667 398.833 75.25 402.5 75.25H408C409 73.4167 410.5 70.0833 412.5 65.25ZM489.25 90.75V105.25H498.25C495.583 101.75 492.583 96.9167 489.25 90.75ZM472.75 105.25H483.5V90.25C479.5 96.5833 475.917 101.583 472.75 105.25ZM481.25 82.75H467V77.25H483.5V64.5H489.25V77.25H505.75V82.75H491.25C493.917 88.25 496.75 93.0833 499.75 97.25C502.583 100.75 505.667 103.833 509 106.5C507.833 107.5 507.083 108.25 506.75 108.75C506.417 109.25 505.833 110.333 505 112C502.5 110.167 500.333 108.083 498.5 105.75V110.25H489.25V121.75H483.5V110.25H472.5V105.75C471.5 106.75 470.542 107.708 469.625 108.625C468.708 109.542 467.75 110.5 466.75 111.5C465.917 110 464.833 108.583 463.5 107.25V121.75H458V88.75C455.5 93.0833 453.5 96.25 452 98.25C451.833 97.75 451.417 96.8333 450.75 95.5C450.083 94.1667 449.5 93.0833 449 92.25C454.833 84.0833 459.75 74.5 463.75 63.5L469.5 66.25C467.667 70.9167 465.667 75.0833 463.5 78.75V106C467 103 470.083 99.75 472.75 96.25C474.917 93.4167 477.75 88.9167 481.25 82.75ZM515.25 74.75V69.75H536.75V74.75H529V86.25H535.25V91.5H529V104L536.5 102V107.5C532.5 108.833 528.833 110 525.5 111L515.5 114L513.75 107.75C516.75 107.25 519.917 106.5 523.25 105.5V91.5H516V86.25H523.25V74.75H515.25ZM562 95.75V90.5H545.75V95.75H562ZM562 86V81.25H545.75V86H562ZM562 76.75V71.75H545.75V76.75H562ZM540.25 100.25V66.75H567.75V100.25H560.5V114.75C560.5 115.417 560.583 115.833 560.75 116C561.083 116.5 562.083 116.75 563.75 116.75C564.917 116.75 565.667 116.583 566 116.25C566.667 115.417 567.083 113.667 567.25 111C568.083 111.333 569.917 111.917 572.75 112.75C571.917 116.917 571.167 119.333 570.5 120C569.667 120.833 568.083 121.25 565.75 121.25H562.5C559.5 121.25 557.583 120.833 556.75 120C555.75 119.333 555.25 117.75 555.25 115.25V100.25H551C550.5 103.75 549.833 106.667 549 109C548.5 110.5 547.417 112.417 545.75 114.75C544.75 115.917 543.083 117.333 540.75 119C539.083 120 536.917 121.167 534.25 122.5C533.583 121 532.5 119.167 531 117C534.333 116 536.917 114.833 538.75 113.5C540.25 112.333 541.667 110.75 543 108.75C544.167 107.25 545 104.417 545.5 100.25H540.25ZM628 95C630 96.6667 631.75 97.8333 633.25 98.5C630.083 103.5 627.333 107.333 625 110C622.333 112.667 619.25 114.833 615.75 116.5C611.75 118.333 607.833 119.25 604 119.25C598.833 119.25 594.917 117.667 592.25 114.5C590.25 112 589.25 107.5 589.25 101L590 68.25L597.25 68.5C595.917 82.6667 595.25 93.3333 595.25 100.5C595.25 105.5 595.75 108.667 596.75 110C598.25 112.333 600.833 113.5 604.5 113.5C613.833 113.5 621.667 107.333 628 95ZM643.5 109.25L647.75 105.5C651.917 109.5 655.333 113.417 658 117.25L652.75 121.5C651.583 119.5 650.417 117.75 649.25 116.25C648.75 115.583 646.833 113.25 643.5 109.25ZM751.25 67.25L748 71.25H761V76.25H737.5V80.25H756.75V85H737.5V89.5H763V94.25H737.5C737.5 94.75 737.333 96.8333 737 100.5H761.25V105.75H739.5C742 108.583 745.167 110.917 749 112.75C752.167 114.417 757.333 115.75 764.5 116.75C763.167 118.083 762.417 119 762.25 119.5C761.917 120 761.417 121.083 760.75 122.75C754.917 121.417 750 119.667 746 117.5C742.167 115.5 738.5 112.333 735 108C732.667 111.333 730.75 113.667 729.25 115C727.917 116.333 725.75 117.75 722.75 119.25C722.083 119.583 720 120.25 716.5 121.25C713.667 121.75 711.25 122.167 709.25 122.5C708.583 120.333 707.75 118.5 706.75 117C711.583 116.667 715.333 116 718 115C721.167 113.833 723.5 112.583 725 111.25C726.667 109.75 728.083 107.917 729.25 105.75H708.5V100.5H731C731.333 96.8333 731.5 94.75 731.5 94.25H706.5V89.5H731.75V85H713V80.25H731.75V76.25H709V71.25H723.25C723.083 70.9167 722.625 70.2917 721.875 69.375C721.125 68.4583 720.5 67.75 720 67.25L724.75 64.25C724.75 64.25 726.5 66.5833 730 71.25H741.25L745.75 64L751.25 67.25ZM820 95C822 96.6667 823.75 97.8333 825.25 98.5C822.083 103.5 819.333 107.333 817 110C814.333 112.667 811.25 114.833 807.75 116.5C803.75 118.333 799.833 119.25 796 119.25C790.833 119.25 786.917 117.667 784.25 114.5C782.25 112 781.25 107.5 781.25 101L782 68.25L789.25 68.5C787.917 82.6667 787.25 93.3333 787.25 100.5C787.25 105.5 787.75 108.667 788.75 110C790.25 112.333 792.833 113.5 796.5 113.5C805.833 113.5 813.667 107.333 820 95ZM867 77.25C870.5 76.4167 875.667 74.8333 882.5 72.5L884.25 78C878.083 80.1667 873.083 81.5833 869.25 82.25C872.25 87.75 876.583 93.0833 882.25 98.25L879 102.75C875.333 101.25 872.583 100.25 870.75 99.75C868.083 99.4167 865.667 99.25 863.5 99.25C857.333 99.25 852.833 100.167 850 102C848.167 103.333 847.25 104.917 847.25 106.75C847.25 108.417 848.167 109.917 850 111.25C853.333 113.25 858.25 114.25 864.75 114.25C868.75 114.25 873.917 113.833 880.25 113L880.5 118.75C875.333 119.417 870.75 119.75 866.75 119.75C857.417 119.75 850.583 118.333 846.25 115.5C843.083 113.333 841.5 110.417 841.5 106.75C841.5 103.417 843.167 100.5 846.5 98C849.833 95.6667 855.25 94.5 862.75 94.5C863.417 94.5 866.417 94.6667 871.75 95C868.917 91.8333 866.167 87.9167 863.5 83.25C857.167 84.0833 852.25 84.5 848.75 84.5C847.75 84.5 844.917 84.3333 840.25 84L840.5 78.25C844.833 78.75 848.167 79 850.5 79C854 79 857.5 78.75 861 78.25C859 74.4167 857.583 70.8333 856.75 67.5L863 66C864.333 70.6667 865.667 74.4167 867 77.25ZM955.5 107.75L951.25 113.25C942.25 105.583 935.417 99.4167 930.75 94.75C928.083 91.9167 925.417 89.1667 922.75 86.5C921.75 85.6667 920.75 85 919.75 84.5C919.583 84.3333 919.25 84.25 918.75 84.25C918.25 84.25 917.917 84.3333 917.75 84.5C917.25 84.6667 916.333 85.75 915 87.75C912.5 91.4167 908.917 95.9167 904.25 101.25L899.25 96.75C906.417 88.9167 910.583 84.25 911.75 82.75C914.25 79.25 916.583 77.5 918.75 77.5C919.75 77.5 920.75 77.75 921.75 78.25C922.25 78.5833 924.833 80.9167 929.5 85.25C935 90.5833 940.25 95.4167 945.25 99.75C946.083 100.417 949.5 103.083 955.5 107.75ZM987.5 76.25C981 77.75 976.417 80.25 973.75 83.75C970.917 87.5833 969.5 91.9167 969.5 96.75C969.5 100.583 970.25 103.667 971.75 106C972.583 107.5 973.583 108.25 974.75 108.25C975.417 108.25 976 107.917 976.5 107.25C978 105.75 980 101.917 982.5 95.75C984.833 89.4167 986.5 82.9167 987.5 76.25ZM992.5 120C991.667 117.667 990.75 115.75 989.75 114.25C995.583 112.917 999.333 111.75 1001 110.75C1004 109.25 1006.42 107.083 1008.25 104.25C1010.08 101.417 1011 97.9167 1011 93.75C1011 88.4167 1009.5 84.1667 1006.5 81C1003.17 77.6667 998.833 75.9167 993.5 75.75C991.5 86.4167 989.5 94.0833 987.5 98.75C984.833 105.083 982.083 109.667 979.25 112.5C978.083 114 976.5 114.75 974.5 114.75C972 114.75 969.75 113.417 967.75 110.75C965.083 107.083 963.75 102.5 963.75 97C963.75 89.6667 966.417 83.5 971.75 78.5C977.083 73.5 984.083 71 992.75 71C997.083 71 1001.33 72 1005.5 74C1008.33 75.1667 1010.58 76.6667 1012.25 78.5C1013.92 80.3333 1015.25 82.5833 1016.25 85.25C1017.08 88.25 1017.5 91 1017.5 93.5C1017.5 98.5 1016.33 102.917 1014 106.75C1012 110.25 1008.83 113.167 1004.5 115.5C1001.83 117.333 997.833 118.833 992.5 120ZM47 173.5L51.5 170.25C54.8333 173.417 57.3333 176.417 59 179.25L54.5 182.75C51.3333 178.417 48.8333 175.333 47 173.5ZM17.25 180.5V170H23.25V178.5C23.25 178.833 23.4167 179.167 23.75 179.5C24.0833 179.833 24.4167 180 24.75 180C24.9167 180.167 26.3333 180.25 29 180.25H35C37.6667 180.25 39.25 180 39.75 179.5C40.5833 178.667 41.3333 176.917 42 174.25C43 174.917 44.8333 175.833 47.5 177C46.3333 180.833 45.0833 183.083 43.75 183.75C42.4167 184.583 39.4167 185 34.75 185H28.5C23.6667 185 20.5 184.5 19 183.5C17.8333 182.833 17.25 181.833 17.25 180.5ZM8.75 169.75L13.5 172.5C11.6667 177 9.5 180.583 7 183.25L2 180C4.33333 177.167 5.58333 175.5 5.75 175C6.75 173.5 7.75 171.75 8.75 169.75ZM36.5 173L32.5 177C30.5 174.833 28.4167 172.75 26.25 170.75L30 167.25C31.5 168.583 33.6667 170.5 36.5 173ZM27.25 158.75V154.75H19.75V158.75H27.25ZM14.5 165.75V150.75H32.75V162.75H19.75V165.75H14.5ZM14.75 147V143H33.25V147H14.75ZM35.25 134.25L34.75 127.5H41.25V134.25H48.75C47.0833 132.917 45.6667 131.917 44.5 131.25L47.5 127.5C48.6667 128.333 49.9167 129.125 51.25 129.875C52.5833 130.625 53.6667 131.333 54.5 132L52.5 134.25H58.5V139H41.25C41.75 145.167 42.8333 150 44.5 153.5C45.5 152.5 46.5833 151 47.75 149C48.5833 147.667 49.5 145.75 50.5 143.25L55.25 146.5C53.4167 150.833 50.8333 154.75 47.5 158.25C49.3333 160.083 50.6667 161.25 51.5 161.75C52.5 162.25 53.1667 162.5 53.5 162.5C53.8333 162.5 54.0833 162.417 54.25 162.25C54.75 160.75 55.0833 159.083 55.25 157.25C56.4167 157.75 58.1667 158.333 60.5 159C60 163 59.25 165.75 58.25 167.25C57.4167 168.083 56.1667 168.5 54.5 168.5C51.1667 168.5 47.5 166.5 43.5 162.5C40.3333 165.167 37.8333 167.417 36 169.25C35.1667 168.25 33.75 166.833 31.75 165C34.5833 163.167 37.4167 160.833 40.25 158C38.75 155 37.75 152.417 37.25 150.25C36.25 145.25 35.6667 141.5 35.5 139H12.25L12 150C11.6667 154.5 11 158.25 10 161.25C9.33333 163.417 7.91667 166 5.75 169C4.75 167.333 4.25 166.5 4.25 166.5C3.91667 165.833 2.91667 165 1.25 164C2.75 162 3.91667 159.833 4.75 157.5C5.58333 155.5 6.08333 153.167 6.25 150.5C6.41667 148.667 6.5 143.25 6.5 134.25H35.25ZM68 140L72.75 141.25C72.5833 143.25 72.25 145.833 71.75 149C71.5833 150.667 70.9167 153.25 69.75 156.75L65.25 155.25C66.9167 149.083 67.8333 144 68 140ZM102.75 143.25V129H108.5V143.25H122V148.5H108.5V160H120V165.25H108.5V179H123.75V184.5H84.75V179H102.75V165.25H91.25V160H102.75V148.5H93.75C92.9167 151.5 91.5 154.833 89.5 158.5C88.3333 157.333 86.6667 156.333 84.5 155.5C86.6667 151.167 88.0833 148.167 88.75 146.5L84.25 148C83.5833 146.167 82.4167 143.25 80.75 139.25L85 137.5L88.75 146C90.25 141.167 91.25 136.583 91.75 132.25L97.25 133.75C96.9167 136.583 96.25 139.75 95.25 143.25H102.75ZM74 186V128.75H79.75V186H74ZM156.5 129.25L163 132L158.75 138.75C159.917 138.583 161 138.458 162 138.375C163 138.292 163.958 138.167 164.875 138C165.792 137.833 166.583 137.75 167.25 137.75C168.25 137.417 170.5 136.917 174 136.25L174.25 142L163 143.5C163.333 143.5 160.833 143.667 155.5 144L151.75 149.75C154.417 149.417 155.833 149.25 156 149.25C157 149.25 158.333 149.417 160 149.75C161.167 150.25 162 150.833 162.5 151.5C163 152 163.5 152.75 164 153.75C164 153.417 164.167 154.417 164.5 156.75L182 150.25L184 156.5C181.833 157 178.75 157.75 174.75 158.75C174.917 158.75 171.5 159.833 164.5 162C164.5 165.833 164.583 169 164.75 171.5H159V164.25C154 166.417 150.917 168.167 149.75 169.5C148.417 170.5 147.75 171.667 147.75 173C147.75 174.5 148.667 175.667 150.5 176.5C152.833 177.833 157 178.5 163 178.5C167 178.5 172.333 178.083 179 177.25V183.25C171.333 183.75 166.25 184 163.75 184C155.75 184 149.917 182.833 146.25 180.5C143.583 178.833 142.25 176.417 142.25 173.25C142.25 170.917 143.333 168.667 145.5 166.5C147.5 164.667 152 162.083 159 158.75C159 156.75 158.667 155.417 158 154.75C157.333 154.083 156.333 153.75 155 153.75C152.5 153.75 150.417 154.333 148.75 155.5C146.75 156.833 142.833 160.833 137 167.5L132.5 163.25C137.5 158.583 140.667 155.417 142 153.75C144.167 151.417 146.5 148.333 149 144.5C143.667 144.833 139.833 144.833 137.5 144.5L137.25 139C139.75 139.167 142.833 139.25 146.5 139.25H152C153 137.417 154.5 134.083 156.5 129.25ZM217.25 144L222 141.75C224.167 145.917 226 149.917 227.5 153.75L222.5 156C221 152.167 219.25 148.167 217.25 144ZM251 142.75L244 157C243.667 156.667 242.083 155.75 239.25 154.25C241.083 150.583 243.167 145.833 245.5 140L251 142.75ZM208 161.75V140.75H202V161.75H208ZM196.5 173.5V135.75H213.5V171.5H208V166.5H202V173.5H196.5ZM248.75 134L236.5 136.25V159.75H251.5V164.5H236.5V180.25C236.5 182.083 236 183.333 235 184C233.833 184.833 230.75 185.5 225.75 186C225.083 183.667 224.75 182.5 224.75 182.5C224.583 181.833 224.083 181.083 223.25 180.25H229.75C230.083 180.25 230.333 180.167 230.5 180C230.667 179.833 230.75 179.583 230.75 179.25V164.5H215V159.75H230.75V137.25C225.75 138.083 221.083 138.667 216.75 139C216.25 136.667 215.667 134.917 215 133.75C226.167 133.083 236.333 131.417 245.5 128.75L248.75 134ZM301.5 151.25C301.5 160.25 300.833 166.75 299.5 170.75C298 174.917 295.5 178.083 292 180.25C288.167 182.583 284.083 183.75 279.75 183.75C274.417 183.75 270.25 182.25 267.25 179.25C264.25 176.417 262.75 172.583 262.75 167.75C262.75 163.583 263.833 159.417 266 155.25C268.333 150.417 271.667 145.583 276 140.75C270.833 142.25 265.833 143.25 261 143.75L260.5 137.75C268.667 137.417 275.75 136.083 281.75 133.75L285.75 138.75C283.25 140.917 280.583 143.417 277.75 146.25C274.75 150.417 272.583 154.083 271.25 157.25C269.583 160.75 268.75 164 268.75 167C268.75 170.333 269.75 172.917 271.75 174.75C273.75 176.75 276.583 177.75 280.25 177.75C283.583 177.75 286.417 176.917 288.75 175.25C291.25 173.417 293.25 170.667 294.75 167C296.083 163 296.75 157.417 296.75 150.25C296.75 145.583 296.25 140.917 295.25 136.25L301.5 134.75C303.333 140.417 304.833 144.917 306 148.25C308 152.75 309.667 156.083 311 158.25C312.5 160.75 314.417 163.333 316.75 166L311.5 170.5C309.333 167.5 307.583 164.583 306.25 161.75C304.583 158.583 303 155.083 301.5 151.25ZM303.25 133.25L306.25 131C307.75 132.167 309.833 134.417 312.5 137.75L309 140.5C308.667 140.167 306.75 137.75 303.25 133.25ZM318.25 133L314.75 136L309 128.75L312.25 126.25C314.583 128.417 316.583 130.667 318.25 133ZM345.25 130.75L349.5 128C350.833 129.333 352.583 131.5 354.75 134.5L350 137.25C349.333 135.75 347.75 133.583 345.25 130.75ZM365.25 128L370.75 130.5L366.75 138H378.25V150H372V142.75H329.75V150.25H324V138H335.75C332.917 133.833 331.333 131.667 331 131.5L335.5 128.5C336.333 129.667 338.083 132.083 340.75 135.75L337 138H360.5C361 137 361.583 135.833 362.25 134.5C362.917 133.167 363.917 131 365.25 128ZM340.25 172.75H333.75V147H367.5V172.75H359.5V178.5C359.5 179.167 359.583 179.583 359.75 179.75C359.75 179.917 359.833 180 360 180C360.167 180.167 361.083 180.25 362.75 180.25H366H370C371.667 180.25 372.75 179.917 373.25 179.25C373.75 178.75 374.083 177.083 374.25 174.25C376.25 175.25 378.25 176 380.25 176.5C379.417 180.5 378.5 182.917 377.5 183.75C376.333 184.75 373.667 185.25 369.5 185.25H362.5C359.5 185.25 357.333 185.083 356 184.75C355.5 184.583 355 184.25 354.5 183.75C354 183.083 353.75 182.083 353.75 180.75V172.75H346.5C345.667 174.75 344.667 176.417 343.5 177.75C341.5 179.75 339.833 181.083 338.5 181.75C337.833 182.083 337.25 182.333 336.75 182.5C336.417 182.5 336.167 182.583 336 182.75C335.833 182.917 335.417 183.167 334.75 183.5C334.583 183.5 334.208 183.625 333.625 183.875C333.042 184.125 332.5 184.333 332 184.5C330.667 185.167 328.25 185.75 324.75 186.25C324.417 185.083 323.958 183.917 323.375 182.75C322.792 181.583 322.417 180.917 322.25 180.75C327.25 180.583 331 179.833 333.5 178.5C335.833 177.333 338.083 175.417 340.25 172.75ZM339.5 154.25H361.75V151.25H339.5V154.25ZM339.5 161.5H361.75V158H339.5V161.5ZM339.5 168.75H361.75V165H339.5V168.75ZM412.75 174.25V171.5C410.917 171.333 408.833 171.25 406.5 171.25C403.667 171.25 401.5 171.75 400 172.75C398.833 173.75 398.25 174.833 398.25 176C398.25 177 398.833 177.833 400 178.5C401.667 179.667 403.75 180.25 406.25 180.25C408.583 180.25 410.25 179.75 411.25 178.75C412.25 177.917 412.75 176.417 412.75 174.25ZM418.5 139.5C422.833 139.333 425.917 139.083 427.75 138.75C429.75 138.417 431.458 138.083 432.875 137.75C434.292 137.417 435.833 137.083 437.5 136.75L437.75 143C433.083 143.667 426.583 144.417 418.25 145.25V153.5C424.083 153.333 429.583 152.667 434.75 151.5L435 157.25L426.25 158.25L418.25 158.5C418.25 162.833 418.333 165.917 418.5 167.75C422.833 168.917 426.583 170.167 429.75 171.5C433.083 173.167 436.5 175.167 440 177.5L436 182.5C432.167 179.833 429.75 178.167 428.75 177.5C426.75 176.333 423.333 174.833 418.5 173C418.5 176.667 418.333 179 418 180C417.5 181.333 416.5 182.333 415 183C412.667 184.333 409.75 185 406.25 185C401.75 185 398.333 184.083 396 182.25C393.667 180.417 392.5 178.25 392.5 175.75C392.5 173.25 393.5 171.167 395.5 169.5C398.167 167.333 402.083 166.25 407.25 166.25C408.083 166.25 409.833 166.417 412.5 166.75V158.75C404.5 158.75 399.75 158.417 398.25 157.75C395.583 156.417 394.167 153.583 394 149.25L399.75 149C400.083 150.667 400.417 151.75 400.75 152.25C400.917 152.75 401.583 153.167 402.75 153.5C404.25 153.833 407.5 153.917 412.5 153.75V145.25C404.667 145.25 399.833 145.167 398 145C395.833 145 393.333 144.667 390.5 144L391.25 138.25C393.25 138.75 396.25 139.167 400.25 139.5C403.917 139.833 408 140 412.5 140L412.25 129.75L419.5 130C419.5 130.667 419.417 131.5 419.25 132.5C419.083 133.5 418.958 134.542 418.875 135.625C418.792 136.708 418.667 138 418.5 139.5ZM500 159C502 160.667 503.75 161.833 505.25 162.5C502.083 167.5 499.333 171.333 497 174C494.333 176.667 491.25 178.833 487.75 180.5C483.75 182.333 479.833 183.25 476 183.25C470.833 183.25 466.917 181.667 464.25 178.5C462.25 176 461.25 171.5 461.25 165L462 132.25L469.25 132.5C467.917 146.667 467.25 157.333 467.25 164.5C467.25 169.5 467.75 172.667 468.75 174C470.25 176.333 472.833 177.5 476.5 177.5C485.833 177.5 493.667 171.333 500 159ZM515.5 173.25L519.75 169.5C523.917 173.5 527.333 177.417 530 181.25L524.75 185.5C523.583 183.5 522.417 181.75 521.25 180.25C520.75 179.583 518.833 177.25 515.5 173.25ZM618.5 168.75V160H609.75V168.75H618.5ZM611.75 144.75V138.25H617.25V144.75H625.75V149.5H617.25V155.75H623.75V173.5H604.75V155.75H611.75V149.5H602.75V144.75H611.75ZM627.5 177.75V136.5H600.75V177.75H627.5ZM595.25 185.5V131.75H633.25V185.5H627.5V182.5H600.75V185.5H595.25ZM595 130.75L589.75 143V185.5H584.25V154.25C582.417 157.417 581.083 159.667 580.25 161C578.583 157.667 577.5 155.667 577 155C579.667 150.833 581.75 147.167 583.25 144C584.75 140.833 586.75 135.5 589.25 128L595 130.75ZM667.25 146H684.5L685.25 145.5L689.25 149.5C686.75 153.5 684.5 156.583 682.5 158.75L675.5 167.25L681.5 172.25L678 176.75C672.667 172.417 669.5 169.833 668.5 169C667.5 168.333 664.667 166.5 660 163.5L663 159.5C664.833 160.5 667.583 162.167 671.25 164.5C675.75 158.667 679 154.167 681 151H664C659.833 157 657.417 160.417 656.75 161.25C655.25 163.083 652.75 165.5 649.25 168.5C648.25 167.167 646.75 165.75 644.75 164.25C648.917 160.75 652.833 156.583 656.5 151.75C659.667 147.25 662.583 142 665.25 136L671.25 138.25C669.917 141.25 668.583 143.833 667.25 146ZM731.5 140.25C725 141.75 720.417 144.25 717.75 147.75C714.917 151.583 713.5 155.917 713.5 160.75C713.5 164.583 714.25 167.667 715.75 170C716.583 171.5 717.583 172.25 718.75 172.25C719.417 172.25 720 171.917 720.5 171.25C722 169.75 724 165.917 726.5 159.75C728.833 153.417 730.5 146.917 731.5 140.25ZM736.5 184C735.667 181.667 734.75 179.75 733.75 178.25C739.583 176.917 743.333 175.75 745 174.75C748 173.25 750.417 171.083 752.25 168.25C754.083 165.417 755 161.917 755 157.75C755 152.417 753.5 148.167 750.5 145C747.167 141.667 742.833 139.917 737.5 139.75C735.5 150.417 733.5 158.083 731.5 162.75C728.833 169.083 726.083 173.667 723.25 176.5C722.083 178 720.5 178.75 718.5 178.75C716 178.75 713.75 177.417 711.75 174.75C709.083 171.083 707.75 166.5 707.75 161C707.75 153.667 710.417 147.5 715.75 142.5C721.083 137.5 728.083 135 736.75 135C741.083 135 745.333 136 749.5 138C752.333 139.167 754.583 140.667 756.25 142.5C757.917 144.333 759.25 146.583 760.25 149.25C761.083 152.25 761.5 155 761.5 157.5C761.5 162.5 760.333 166.917 758 170.75C756 174.25 752.833 177.167 748.5 179.5C745.833 181.333 741.833 182.833 736.5 184ZM777.5 136.5H811.75L812.5 136.25L816.75 140.5L810 152.25C809.333 153.417 807.917 155.417 805.75 158.25C810.917 163.25 814.5 166.833 816.5 169C817.833 170.333 820.75 173.75 825.25 179.25L819.5 183.75C817.333 180.417 815.333 177.667 813.5 175.5C809.5 170.833 805.667 166.667 802 163C796.667 168.667 792.5 172.583 789.5 174.75C784.833 178.25 780.167 181.083 775.5 183.25C775.167 182.583 774.5 181.5 773.5 180C773.167 179.667 772.875 179.292 772.625 178.875C772.375 178.458 771.833 178 771 177.5C779.833 173.667 787 169.25 792.5 164.25C797.5 159.583 802.833 152.25 808.5 142.25H777.5V136.5ZM863.25 139.25H882L882.5 139L885.75 142.5L879 156.75C877.833 158.917 876 161.5 873.5 164.5C871.667 167 869.083 169.75 865.75 172.75C862.583 175.417 859 177.917 855 180.25C852 181.917 848.083 183.667 843.25 185.5C842.75 184.333 842.25 183.333 841.75 182.5C841.25 181.833 840.417 181 839.25 180C845.583 177.833 850.333 175.75 853.5 173.75C857 171.75 860.833 168.917 865 165.25C860.333 161.25 856.417 158.25 853.25 156.25L857 152C861.833 155.167 865.833 158 869 160.5C871 157.667 872.583 155.25 873.75 153.25C874.917 151.417 876.25 148.5 877.75 144.5H860C857 148.667 855 151.417 854 152.75C852.167 154.583 850.5 156.083 849 157.25C846.167 159.917 843.25 162.083 840.25 163.75C839.25 161.583 837.917 159.833 836.25 158.5C840.583 156 843.833 153.75 846 151.75C848.667 149.583 851.167 146.667 853.5 143C856 139 858.083 134.833 859.75 130.5L866.5 132.75C865.5 134.75 864.417 136.917 863.25 139.25ZM938.5 144.75L933.25 149.5V185H926.5V154.75C924.167 156.75 920.25 159.417 914.75 162.75C909.75 165.583 905.917 167.583 903.25 168.75C902.417 166.417 901.333 164.417 900 162.75C906 160.25 911.25 157.5 915.75 154.5C919.917 152 924.417 148.583 929.25 144.25C933.583 140.417 938 135.75 942.5 130.25L948 135L938.5 144.75ZM965.25 184.25C963.917 182.083 962.583 180.333 961.25 179C965.583 176.167 968.75 173.25 970.75 170.25C972.75 167.417 974.167 163.833 975 159.5C975.667 155.667 976 148 976 136.5H982.5C982.333 147.167 982.083 153.75 981.75 156.25C981.25 160.917 980.417 164.75 979.25 167.75C978.083 170.583 976.25 173.583 973.75 176.75C971.083 179.917 968.25 182.417 965.25 184.25ZM991.75 177V132.25H998V172.75C1002.5 169.25 1005.83 166.417 1008 164.25C1010.17 162.083 1013 158.5 1016.5 153.5C1019.33 156 1020.92 157.333 1021.25 157.5C1017.25 163 1013.08 167.75 1008.75 171.75C1004.08 176.083 999.5 179.667 995 182.5L991 178L991.75 177ZM27.5 204.25C21 205.75 16.4167 208.25 13.75 211.75C10.9167 215.583 9.5 219.917 9.5 224.75C9.5 228.583 10.25 231.667 11.75 234C12.5833 235.5 13.5833 236.25 14.75 236.25C15.4167 236.25 16 235.917 16.5 235.25C18 233.75 20 229.917 22.5 223.75C24.8333 217.417 26.5 210.917 27.5 204.25ZM32.5 248C31.6667 245.667 30.75 243.75 29.75 242.25C35.5833 240.917 39.3333 239.75 41 238.75C44 237.25 46.4167 235.083 48.25 232.25C50.0833 229.417 51 225.917 51 221.75C51 216.417 49.5 212.167 46.5 209C43.1667 205.667 38.8333 203.917 33.5 203.75C31.5 214.417 29.5 222.083 27.5 226.75C24.8333 233.083 22.0833 237.667 19.25 240.5C18.0833 242 16.5 242.75 14.5 242.75C12 242.75 9.75 241.417 7.75 238.75C5.08333 235.083 3.75 230.5 3.75 225C3.75 217.667 6.41667 211.5 11.75 206.5C17.0833 201.5 24.0833 199 32.75 199C37.0833 199 41.3333 200 45.5 202C48.3333 203.167 50.5833 204.667 52.25 206.5C53.9167 208.333 55.25 210.583 56.25 213.25C57.0833 216.25 57.5 219 57.5 221.5C57.5 226.5 56.3333 230.917 54 234.75C52 238.25 48.8333 241.167 44.5 243.5C41.8333 245.333 37.8333 246.833 32.5 248ZM101 223V210.75H93V223H101ZM114.75 223V210.75H106.25V223H114.75ZM101 206V193.75H106.25V206H120V227.75H106.25V240.25L113.75 239.25C113.583 238.75 112.417 236.75 110.25 233.25L115.5 231.25C116.5 232.75 117.208 233.833 117.625 234.5C118.042 235.167 118.417 235.792 118.75 236.375C119.083 236.958 119.417 237.583 119.75 238.25C121.25 241.25 122.667 244.25 124 247.25L118.25 249.75L115.75 244L86.5 248.5L85 242.75L95 241.75C96 241.417 98 241.167 101 241V227.75H93V231H87.5V206H101ZM77.5 201C79.8333 198.667 81.75 196.417 83.25 194.25L87.75 198C85.5833 200.667 83 203.5 80 206.5C81.3333 211.833 82.25 215.917 82.75 218.75C83.25 222.25 83.5 225.833 83.5 229.5C83.5 235.5 83.25 239.667 82.75 242C82.25 243.833 81.4167 245.333 80.25 246.5C79.75 247.333 79 247.833 78 248C77.8333 248.167 75.1667 248.75 70 249.75C69.8333 248.417 69.25 246.417 68.25 243.75H74C75 243.75 75.6667 243.583 76 243.25C76.5 242.75 76.8333 241.5 77 239.5C77.5 235.833 77.6667 231.333 77.5 226C74.8333 229 71.8333 231.75 68.5 234.25C67.8333 232.25 66.8333 230.5 65.5 229C70.6667 225.167 74.5 221.583 77 218.25C77 217.75 76.4167 215.083 75.25 210.25C74.9167 210.583 72.75 212.25 68.75 215.25C67.4167 213.083 66.3333 211.417 65.5 210.25C67.3333 209.25 69.9167 207.417 73.25 204.75C72.5833 203.083 70.9167 200.167 68.25 196L72.25 193C73.5833 194.5 75.3333 197.167 77.5 201ZM172.5 240.75V232H146V240.75H172.5ZM172.5 227V218.25H146V227H172.5ZM172.5 213.5V205.5H146V213.5H172.5ZM162 193.25L159.5 200.75H179.25V249.25H172.5V246.25H146V249.75H139.75V200.75H153.5L155.5 191.75L162 193.25ZM196 204L200.75 205.25C200.583 207.25 200.25 209.833 199.75 213C199.583 214.667 198.917 217.25 197.75 220.75L193.25 219.25C194.917 213.083 195.833 208 196 204ZM230.75 207.25V193H236.5V207.25H250V212.5H236.5V224H248V229.25H236.5V243H251.75V248.5H212.75V243H230.75V229.25H219.25V224H230.75V212.5H221.75C220.917 215.5 219.5 218.833 217.5 222.5C216.333 221.333 214.667 220.333 212.5 219.5C214.667 215.167 216.083 212.167 216.75 210.5L212.25 212C211.583 210.167 210.417 207.25 208.75 203.25L213 201.5L216.75 210C218.25 205.167 219.25 200.583 219.75 196.25L225.25 197.75C224.917 200.583 224.25 203.75 223.25 207.25H230.75ZM202 250V192.75H207.75V250H202ZM284.5 193.25L291 196L286.75 202.75C287.917 202.583 289 202.458 290 202.375C291 202.292 291.958 202.167 292.875 202C293.792 201.833 294.583 201.75 295.25 201.75C296.25 201.417 298.5 200.917 302 200.25L302.25 206L291 207.5C291.333 207.5 288.833 207.667 283.5 208L279.75 213.75C282.417 213.417 283.833 213.25 284 213.25C285 213.25 286.333 213.417 288 213.75C289.167 214.25 290 214.833 290.5 215.5C291 216 291.5 216.75 292 217.75C292 217.417 292.167 218.417 292.5 220.75L310 214.25L312 220.5C309.833 221 306.75 221.75 302.75 222.75C302.917 222.75 299.5 223.833 292.5 226C292.5 229.833 292.583 233 292.75 235.5H287V228.25C282 230.417 278.917 232.167 277.75 233.5C276.417 234.5 275.75 235.667 275.75 237C275.75 238.5 276.667 239.667 278.5 240.5C280.833 241.833 285 242.5 291 242.5C295 242.5 300.333 242.083 307 241.25V247.25C299.333 247.75 294.25 248 291.75 248C283.75 248 277.917 246.833 274.25 244.5C271.583 242.833 270.25 240.417 270.25 237.25C270.25 234.917 271.333 232.667 273.5 230.5C275.5 228.667 280 226.083 287 222.75C287 220.75 286.667 219.417 286 218.75C285.333 218.083 284.333 217.75 283 217.75C280.5 217.75 278.417 218.333 276.75 219.5C274.75 220.833 270.833 224.833 265 231.5L260.5 227.25C265.5 222.583 268.667 219.417 270 217.75C272.167 215.417 274.5 212.333 277 208.5C271.667 208.833 267.833 208.833 265.5 208.5L265.25 203C267.75 203.167 270.833 203.25 274.5 203.25H280C281 201.417 282.5 198.083 284.5 193.25ZM380.75 242.5C379.417 243.5 378.083 245 376.75 247C373.917 245 370.5 242.167 366.5 238.5L370.5 234.5C373.833 237.833 377.25 240.5 380.75 242.5ZM341.25 247.5C340.417 246.333 339.167 244.917 337.5 243.25C341.333 240.917 344 239.083 345.5 237.75C346.833 236.917 348.083 235.667 349.25 234L353.5 238C352.167 239.167 351.125 240.083 350.375 240.75C349.625 241.417 348.917 242.083 348.25 242.75C346.917 243.917 344.583 245.5 341.25 247.5ZM342.75 232.25V227.25H378.75V232.25H363.25V244.75C363.25 245.917 363.083 247 362.75 248C362.25 248.667 361.25 249.25 359.75 249.75C357.75 250.25 355.75 250.667 353.75 251C353.417 249 353.25 248.083 353.25 248.25C353.083 247.917 352.417 246.833 351.25 245H356.75C356.917 245 357.083 244.917 357.25 244.75C357.417 244.583 357.5 244.333 357.5 244V232.25H342.75ZM324 195H337.75L338.5 194.75L341.75 198.5C341.417 199.5 339.417 204.917 335.75 214.75C339.083 222.25 340.75 227.667 340.75 231C340.75 233.667 340.167 235.583 339 236.75C337.667 238.083 335.417 239 332.25 239.5C332.083 237.667 331.417 235.5 330.25 233H333.25C334.083 233 334.583 232.75 334.75 232.25C335.083 230.75 335 228.5 334.5 225.5C333.833 222.167 332.583 218.667 330.75 215L335 200H329.25V250H324V195ZM360.5 206.5C358.833 209.167 357.5 211.25 356.5 212.75C355.833 213.75 354.417 215.417 352.25 217.75H369.25C365.75 214.25 362.833 210.5 360.5 206.5ZM348.5 192.25L353.5 194.25L352 197.75H359L359.75 197.25L363.5 200.5L363 201.5C363.833 202.833 365.5 205.083 368 208.25C369 207.083 370.583 205 372.75 202H365V197.75H375.25L376.25 197L380.75 201C378.25 204.167 375.083 207.833 371.25 212C371.75 212.333 372.458 212.917 373.375 213.75C374.292 214.583 375.167 215.333 376 216C376.167 216.167 377.833 217.167 381 219C380.167 219.5 379.333 220.167 378.5 221C377.833 222 377.25 222.917 376.75 223.75C374.583 222.25 372.583 220.75 370.75 219.25V223H349.25V220.5C347.583 222 345.833 223.25 344 224.25C343.333 223.25 342.833 222.5 342.5 222C342.167 221.667 341.792 221.333 341.375 221C340.958 220.667 340.5 220.417 340 220.25C342.167 219.25 344.5 217.583 347 215.25C346.333 214.417 345.333 213.667 344 213L346.25 209.5C347.25 210.167 348.583 211 350.25 212L351.75 210C351.083 209.5 349.833 208.75 348 207.75L350.25 204.5L354.25 206.5C354.417 206.167 355.25 204.75 356.75 202.25H349.75C347.25 206.75 344.583 210.417 341.75 213.25L338.75 209.25C340.417 207.417 342.083 205.167 343.75 202.5C344.583 201 346.167 197.583 348.5 192.25ZM396.25 213L402.25 211.25C402.917 212.917 403.75 215.125 404.75 217.875C405.75 220.625 406.5 223.167 407 225.5C407.5 227.167 408.25 230.417 409.25 235.25L403.25 237.25C402.417 233.083 401.5 229.25 400.5 225.75C400.167 224.417 399.625 222.5 398.875 220C398.125 217.5 397.25 215.167 396.25 213ZM433.25 211L424.5 242H441.75V247.75H388.25V242H419L423.5 224L427 209.25L433.25 211ZM412 202.5V193.25H418V202.5H439V207.75H390.5V202.5H412ZM471.75 231.25L477.25 231.75C477.25 234.583 477.333 236.083 477.5 236.25C477.833 237.083 478.333 238 479 239C479.833 239.667 481.083 240.167 482.75 240.5C484.917 241.167 488.417 241.5 493.25 241.5C496.417 241.5 500.417 241.167 505.25 240.5V246.5C499.583 247 496.167 247.25 495 247.25C489 247.25 484.5 246.833 481.5 246C478.333 245.167 476.167 244.083 475 242.75C473.667 241.417 472.75 240 472.25 238.5C471.75 236.833 471.583 234.417 471.75 231.25ZM503 212.5L502.75 218.25C499.583 218.083 496.583 218 493.75 218C491.75 218 490.167 218.083 489 218.25C488.667 218.25 487.458 218.333 485.375 218.5C483.292 218.667 480.75 219 477.75 219.5L476.75 214C479.583 213.5 482.042 213.167 484.125 213C486.208 212.833 487.5 212.75 488 212.75C493 212.417 498 212.333 503 212.5ZM472.75 205.5C477.083 204.833 481.667 203.833 486.5 202.5L486.75 208.25C481.25 209.583 476 210.5 471 211C467.833 221.833 462.917 234.25 456.25 248.25L450.75 245.75C453.25 240.75 455.583 235.833 457.75 231C458.583 228.667 459.667 225.708 461 222.125C462.333 218.542 463.583 215 464.75 211.5C458.917 211.833 455.333 211.917 454 211.75L454.25 206C459.083 206.333 463.167 206.417 466.5 206.25C467.5 202.917 468.5 198.917 469.5 194.25L476 196.25C475.5 197.917 475 199.458 474.5 200.875C474 202.292 473.417 203.833 472.75 205.5ZM557.75 195.75V210.5C560.417 210.5 564.75 210.167 570.75 209.5V215.25L557.5 215.75C557.5 224.917 557.083 230.333 556.25 232C555.583 233.667 554.25 234.5 552.25 234.5C549.417 234.5 545.917 233.417 541.75 231.25C542.417 229.417 542.833 227.75 543 226.25C546.5 227.917 548.583 228.75 549.25 228.75C549.583 228.75 549.917 228.583 550.25 228.25C550.75 227.917 551 227.333 551 226.5C551 226.333 551.167 222.833 551.5 216L533 217.5C532.833 223 532.75 227.833 532.75 232C532.75 235.667 532.917 238 533.25 239C533.417 239.667 534.25 240.167 535.75 240.5C537.917 241.167 541.917 241.5 547.75 241.5C551.75 241.5 556.833 241.25 563 240.75V246.5C553.333 246.833 549.167 247 550.5 247C542.5 247 537 246.583 534 245.75C531.333 245.083 529.5 243.833 528.5 242C527.167 240.5 526.667 237.833 527 234V218L515.25 219L515 213.25C519.333 213.25 523.333 213.083 527 212.75C527 209.083 526.917 204.833 526.75 200H533.75L533.25 212.5L551.5 211L551.25 195.75H557.75ZM604.75 238.25V235.5C602.917 235.333 600.833 235.25 598.5 235.25C595.667 235.25 593.5 235.75 592 236.75C590.833 237.75 590.25 238.833 590.25 240C590.25 241 590.833 241.833 592 242.5C593.667 243.667 595.75 244.25 598.25 244.25C600.583 244.25 602.25 243.75 603.25 242.75C604.25 241.917 604.75 240.417 604.75 238.25ZM610.5 203.5C614.833 203.333 617.917 203.083 619.75 202.75C621.75 202.417 623.458 202.083 624.875 201.75C626.292 201.417 627.833 201.083 629.5 200.75L629.75 207C625.083 207.667 618.583 208.417 610.25 209.25V217.5C616.083 217.333 621.583 216.667 626.75 215.5L627 221.25L618.25 222.25L610.25 222.5C610.25 226.833 610.333 229.917 610.5 231.75C614.833 232.917 618.583 234.167 621.75 235.5C625.083 237.167 628.5 239.167 632 241.5L628 246.5C624.167 243.833 621.75 242.167 620.75 241.5C618.75 240.333 615.333 238.833 610.5 237C610.5 240.667 610.333 243 610 244C609.5 245.333 608.5 246.333 607 247C604.667 248.333 601.75 249 598.25 249C593.75 249 590.333 248.083 588 246.25C585.667 244.417 584.5 242.25 584.5 239.75C584.5 237.25 585.5 235.167 587.5 233.5C590.167 231.333 594.083 230.25 599.25 230.25C600.083 230.25 601.833 230.417 604.5 230.75V222.75C596.5 222.75 591.75 222.417 590.25 221.75C587.583 220.417 586.167 217.583 586 213.25L591.75 213C592.083 214.667 592.417 215.75 592.75 216.25C592.917 216.75 593.583 217.167 594.75 217.5C596.25 217.833 599.5 217.917 604.5 217.75V209.25C596.667 209.25 591.833 209.167 590 209C587.833 209 585.333 208.667 582.5 208L583.25 202.25C585.25 202.75 588.25 203.167 592.25 203.5C595.917 203.833 600 204 604.5 204L604.25 193.75L611.5 194C611.5 194.667 611.417 195.5 611.25 196.5C611.083 197.5 610.958 198.542 610.875 199.625C610.792 200.708 610.667 202 610.5 203.5ZM671.25 224C670.583 221.5 669.75 219.75 668.75 218.75C667.917 217.917 667.083 217.5 666.25 217.5C664.75 217.5 663.667 218.083 663 219.25C662 220.417 661.5 221.833 661.5 223.5C661.5 225.5 662 227.167 663 228.5C663.667 229.667 664.667 230.25 666 230.25C667.167 230.25 668.25 229.75 669.25 228.75C670.417 227.583 671.083 226 671.25 224ZM677.25 203.5C681.25 203.333 685.375 203.125 689.625 202.875C693.875 202.625 696.833 202.5 698.5 202.5V208.5H677.25V227C677.583 230.833 677.583 233.25 677.25 234.25C677.083 235.583 676.5 237.25 675.5 239.25C674.333 241.417 672.25 243.417 669.25 245.25C666.583 247.25 662.667 249 657.5 250.5C656.667 248.333 655.667 246.417 654.5 244.75C660.333 243.75 664.75 242.083 667.75 239.75C670.25 237.583 671.75 234.667 672.25 231C670.75 232.5 669.5 233.5 668.5 234C667.833 234.5 666.75 234.75 665.25 234.75C663.083 234.75 661.083 233.75 659.25 231.75C657.417 229.583 656.5 227.083 656.5 224.25C656.5 220.917 657.5 218.167 659.5 216C661.333 214 663.333 213 665.5 213C667.667 213 669.75 214.167 671.75 216.5L671.5 208.75L644 210.75L643.75 204.75L671.5 203.75L671.25 192.5H677.75C677.417 197.167 677.25 200.833 677.25 203.5ZM714.75 237C713.583 237 712.583 237.417 711.75 238.25C710.75 239.25 710.25 240.333 710.25 241.5C710.25 242.833 710.75 243.917 711.75 244.75C712.583 245.583 713.583 246 714.75 246C716.083 246 717.167 245.583 718 244.75C718.833 243.917 719.25 242.833 719.25 241.5C719.25 240.5 718.833 239.417 718 238.25C717.167 237.417 716.083 237 714.75 237ZM714.75 233C717.083 233 719.083 233.833 720.75 235.5C722.417 237.167 723.25 239.167 723.25 241.5C723.25 243.833 722.417 245.833 720.75 247.5C719.083 249.167 717.083 250 714.75 250C712.417 250 710.417 249.167 708.75 247.5C707.083 245.833 706.25 243.833 706.25 241.5C706.25 239.167 707.083 237.167 708.75 235.5C710.417 233.833 712.417 233 714.75 233ZM817.25 223.5V218.5H801.25V223.5H817.25ZM817.25 213.5V210H801.25V213.5H817.25ZM817.25 204.75V199.75H801.25V204.75H817.25ZM795.75 228.5V194.5H823.25V228.5H816V242.5C816 243.167 816.083 243.583 816.25 243.75C816.417 243.917 816.833 244 817.5 244H819.75C820.417 244 820.917 243.833 821.25 243.5C821.917 242.5 822.333 240.833 822.5 238.5C825.167 239.5 827.083 240.083 828.25 240.25C827.583 244.25 826.667 246.833 825.5 248C824.667 248.833 822.917 249.25 820.25 249.25H815.5C813.5 249.25 812.083 248.833 811.25 248C810.417 247.167 810 245.917 810 244.25V228.5H806.25C805.917 232.667 805.5 235.5 805 237C804.167 239.333 803.25 241.083 802.25 242.25C801.75 243.083 800.75 244.25 799.25 245.75C798.583 246.583 797.083 247.583 794.75 248.75L790.75 250.75C790.75 249.417 789.583 247.583 787.25 245.25C792.083 243.75 795.667 241.5 798 238.5C799.667 236.167 800.583 232.833 800.75 228.5H795.75ZM778.75 202.75V193H784.5V202.75H789.75L790.25 202.25L794 205.75C793.667 206.25 793.375 206.792 793.125 207.375C792.875 207.958 792.583 208.5 792.25 209C790.75 212 788.667 215.167 786 218.5C788 221 790.417 223.5 793.25 226C792.417 227 791.667 227.917 791 228.75C790.333 229.583 789.75 230.333 789.25 231C788.417 230 787.542 228.958 786.625 227.875C785.708 226.792 784.917 225.917 784.25 225.25V250H778.25V226.5C775.417 229.167 773.5 230.75 772.5 231.25C772.167 230.583 771.083 228.75 769.25 225.75C773.083 223.25 776.583 220.417 779.75 217.25C782.583 214.083 784.75 210.917 786.25 207.75H770.75V202.75H778.75ZM857.25 194.75L861.5 192C862.833 193.333 864.583 195.5 866.75 198.5L862 201.25C861.333 199.75 859.75 197.583 857.25 194.75ZM877.25 192L882.75 194.5L878.75 202H890.25V214H884V206.75H841.75V214.25H836V202H847.75C844.917 197.833 843.333 195.667 843 195.5L847.5 192.5C848.333 193.667 850.083 196.083 852.75 199.75L849 202H872.5C873 201 873.583 199.833 874.25 198.5C874.917 197.167 875.917 195 877.25 192ZM852.25 236.75H845.75V211H879.5V236.75H871.5V242.5C871.5 243.167 871.583 243.583 871.75 243.75C871.75 243.917 871.833 244 872 244C872.167 244.167 873.083 244.25 874.75 244.25H878H882C883.667 244.25 884.75 243.917 885.25 243.25C885.75 242.75 886.083 241.083 886.25 238.25C888.25 239.25 890.25 240 892.25 240.5C891.417 244.5 890.5 246.917 889.5 247.75C888.333 248.75 885.667 249.25 881.5 249.25H874.5C871.5 249.25 869.333 249.083 868 248.75C867.5 248.583 867 248.25 866.5 247.75C866 247.083 865.75 246.083 865.75 244.75V236.75H858.5C857.667 238.75 856.667 240.417 855.5 241.75C853.5 243.75 851.833 245.083 850.5 245.75C849.833 246.083 849.25 246.333 848.75 246.5C848.417 246.5 848.167 246.583 848 246.75C847.833 246.917 847.417 247.167 846.75 247.5C846.583 247.5 846.208 247.625 845.625 247.875C845.042 248.125 844.5 248.333 844 248.5C842.667 249.167 840.25 249.75 836.75 250.25C836.417 249.083 835.958 247.917 835.375 246.75C834.792 245.583 834.417 244.917 834.25 244.75C839.25 244.583 843 243.833 845.5 242.5C847.833 241.333 850.083 239.417 852.25 236.75ZM851.5 218.25H873.75V215.25H851.5V218.25ZM851.5 225.5H873.75V222H851.5V225.5ZM851.5 232.75H873.75V229H851.5V232.75ZM930.25 221.25L934.25 217.75C936.583 219.583 939.25 222.417 942.25 226.25L938 230C935.833 227.167 933.25 224.25 930.25 221.25ZM916.5 237.75V224.5H906V237.75H916.5ZM916.5 219.75V207.25H906V219.75H916.5ZM913.5 202.5H921.75V245.75H916.5V242.25H906V246.5H901V202.5H908.5C908.833 200.167 909.167 196.833 909.5 192.5L915.25 193.25C914.917 195.917 914.333 199 913.5 202.5ZM940.5 250C939.667 247.333 938.667 245.167 937.5 243.5H944.75C945.583 243.5 946.083 243.417 946.25 243.25C946.75 242.417 947.083 240.5 947.25 237.5C947.583 233.167 947.583 223.25 947.25 207.75H933.25C931.583 212.917 929.583 217.417 927.25 221.25C926.917 220.75 926.5 220.292 926 219.875C925.5 219.458 925 218.958 924.5 218.375C924 217.792 923.417 217.25 922.75 216.75C924.417 213.917 926.083 210.25 927.75 205.75C929.083 201.583 930.25 197.083 931.25 192.25L937.25 193.5C936.25 197.833 935.5 200.917 935 202.75H953.25L952.75 234.25C952.75 239.75 952.417 243.25 951.75 244.75C951.25 246.083 950.417 247.083 949.25 247.75C947.75 248.417 944.833 249.167 940.5 250ZM999 237.25C996.333 236.25 993.833 235.75 991.5 235.75C989.833 235.75 988.417 236.167 987.25 237C986.083 238 985.5 238.917 985.5 239.75C985.5 240.25 985.75 240.917 986.25 241.75C986.583 242.25 987.333 242.75 988.5 243.25C989.833 243.75 991.167 244 992.5 244C995 244 996.833 243.417 998 242.25C998.833 241.417 999.167 239.75 999 237.25ZM1004.75 233.75C1006.75 234.25 1008.25 234.708 1009.25 235.125C1010.25 235.542 1010.83 235.833 1011 236C1011.33 236 1012.21 236.417 1013.62 237.25C1015.04 238.083 1016.75 239 1018.75 240L1015.25 246C1010.75 242.833 1007.25 240.667 1004.75 239.5C1004.42 242.833 1003.58 245.083 1002.25 246.25C1000.08 247.917 997.083 248.75 993.25 248.75C989.25 248.75 985.917 247.667 983.25 245.5C981.083 244 980 242.167 980 240C980 237.5 981.083 235.417 983.25 233.75C985.083 232.083 988.083 231.25 992.25 231.25C994.25 231.25 996.5 231.583 999 232.25C998.5 225.417 998.25 221.667 998.25 221C998.25 219.5 998.417 217.417 998.75 214.75L1005 215.25C1004.5 217.917 1004.25 220.5 1004.25 223C1004.25 224.833 1004.42 228.417 1004.75 233.75ZM1017.75 209.75L1015.25 215.5C1011.75 213.833 1008.58 212.583 1005.75 211.75C1005.25 211.583 1002 210.75 996 209.25L997.25 204C1001.58 204.667 1005.08 205.417 1007.75 206.25C1008.08 206.417 1011.42 207.583 1017.75 209.75ZM984 204.25C985.333 203.917 986.583 203.667 987.75 203.5C988.917 203.333 990.583 203 992.75 202.5L993 208.25C987.5 209.25 983.833 209.833 982 210C978.667 219.5 976.333 225.667 975 228.5C973.167 232.833 970.667 237.75 967.5 243.25L962 240.25C967.667 230.083 972.167 220.167 975.5 210.5C971.833 210.667 968.583 210.667 965.75 210.5V204.75C970.083 205.083 972.5 205.25 973 205.25C974.5 205.25 975.917 205.167 977.25 205C978.917 200.167 980 196.5 980.5 194L987 195.75C986.5 196.917 985.5 199.75 984 204.25ZM26 305.5L21 306C19.8333 302 19 298.083 18.5 294.25L23.5 293.75C24.1667 297.917 25 301.833 26 305.5ZM6.5 310L1.5 308.25L2.75 302.5C3.08333 301.5 3.58333 298.5 4.25 293.5L9 294.5C8.66667 300.167 7.83333 305.333 6.5 310ZM51.75 303V286.75H45V303H51.75ZM39.75 303V286.75H33.5V303H39.75ZM51.75 281.75V265H45V281.75H51.75ZM39.75 281.75V265H33.5V281.75H39.75ZM28 313.5V260H57.5V313H51.75V308.25H33.5V313.5H28ZM19.75 284L17.75 279.75L22.5 278C24.3333 281.667 25.8333 285.25 27 288.75L22 290.25L21.25 288.75L17.25 289.25V314.75H11.25V289.75L2.5 291L1.5 285H6.5C6.83333 284.667 8.16667 282.333 10.5 278C10 277.5 9.41667 276.958 8.75 276.375C8.08333 275.792 7.58333 275.417 7.25 275.25C7.25 275.25 4.91667 273.75 0.25 270.75L3.25 266.25L5.75 267.75C8.08333 263.417 9.83333 259.417 11 255.75L16.75 258.5C13.25 264.833 11.0833 268.917 10.25 270.75L13.25 273C15.75 268.5 17.5833 265.083 18.75 262.75L23.75 265.75L12 284.75C15 284.75 17.5833 284.5 19.75 284ZM91.25 304.25V294.25H76V304.25H91.25ZM76 313.5H70.25V289.25H96.75V311.75H91.25V309.25H76V313.5ZM102 259.25H119L120.25 259L124 262.5C124 262.5 121.583 268 116.75 279C121.917 285.833 124.5 291.417 124.5 295.75C124.5 298.917 123.667 301.25 122 302.75C120.167 304.583 117.083 305.583 112.75 305.75C111.583 302.25 110.917 300.333 110.75 300H115.25C116.417 300 117.333 299.75 118 299.25C118.5 298.75 118.75 298 118.75 297C118.75 293 116.083 287.167 110.75 279.5C113.583 273 115.583 267.917 116.75 264.25H107.5V313.75H102V259.25ZM80.5 263.25V256.75H86.5V263.25H98.75V268H91.5L95.75 270L92 279.5H100.25V284.75H66.5V279.5H74.25C73.25 276 72.1667 273.167 71 271L76 269C77.8333 273.333 78.9167 276.167 79.25 277.5L75.25 279.5H86.5C87 278.167 88.0833 274.333 89.75 268H67.5V263.25H80.5ZM187.5 299.75L183.25 305.25C174.25 297.583 167.417 291.417 162.75 286.75C160.083 283.917 157.417 281.167 154.75 278.5C153.75 277.667 152.75 277 151.75 276.5C151.583 276.333 151.25 276.25 150.75 276.25C150.25 276.25 149.917 276.333 149.75 276.5C149.25 276.667 148.333 277.75 147 279.75C144.5 283.417 140.917 287.917 136.25 293.25L131.25 288.75C138.417 280.917 142.583 276.25 143.75 274.75C146.25 271.25 148.583 269.5 150.75 269.5C151.75 269.5 152.75 269.75 153.75 270.25C154.25 270.583 156.833 272.917 161.5 277.25C167 282.583 172.25 287.417 177.25 291.75C178.083 292.417 181.5 295.083 187.5 299.75ZM219.5 268.25C213 269.75 208.417 272.25 205.75 275.75C202.917 279.583 201.5 283.917 201.5 288.75C201.5 292.583 202.25 295.667 203.75 298C204.583 299.5 205.583 300.25 206.75 300.25C207.417 300.25 208 299.917 208.5 299.25C210 297.75 212 293.917 214.5 287.75C216.833 281.417 218.5 274.917 219.5 268.25ZM224.5 312C223.667 309.667 222.75 307.75 221.75 306.25C227.583 304.917 231.333 303.75 233 302.75C236 301.25 238.417 299.083 240.25 296.25C242.083 293.417 243 289.917 243 285.75C243 280.417 241.5 276.167 238.5 273C235.167 269.667 230.833 267.917 225.5 267.75C223.5 278.417 221.5 286.083 219.5 290.75C216.833 297.083 214.083 301.667 211.25 304.5C210.083 306 208.5 306.75 206.5 306.75C204 306.75 201.75 305.417 199.75 302.75C197.083 299.083 195.75 294.5 195.75 289C195.75 281.667 198.417 275.5 203.75 270.5C209.083 265.5 216.083 263 224.75 263C229.083 263 233.333 264 237.5 266C240.333 267.167 242.583 268.667 244.25 270.5C245.917 272.333 247.25 274.583 248.25 277.25C249.083 280.25 249.5 283 249.5 285.5C249.5 290.5 248.333 294.917 246 298.75C244 302.25 240.833 305.167 236.5 307.5C233.833 309.333 229.833 310.833 224.5 312ZM269 288.25L274 290.75C272 294.25 271 296.667 271 298C271 298.833 271.25 299.5 271.75 300C272.917 301.167 274.5 301.833 276.5 302C280.333 303 285.167 303.5 291 303.5C298 303.5 304.083 303 309.25 302L309.75 308.5L300.25 309C299.25 309.167 297 309.25 293.5 309.25C281.833 309.25 273.833 307.917 269.5 305.25C266.5 303.417 265 301.25 265 298.75C265 297.583 265.25 296.25 265.75 294.75C266.583 292.75 267.667 290.583 269 288.25ZM303.75 264.75L304.25 270.5C296.583 271.5 290.583 272 286.25 272C283.083 272 280.167 271.833 277.5 271.5C274.833 271.167 272.167 270.583 269.5 269.75L271.25 264.5C274.417 265.333 276.75 265.833 278.25 266C281.25 266.333 284 266.5 286.5 266.5C291 266.5 296.75 265.917 303.75 264.75ZM343.25 295.5H349C349 298.5 349.25 300.417 349.75 301.25C350.417 302.25 351.5 303.167 353 304C355.5 304.833 359.333 305.25 364.5 305.25C368.167 305.25 372.417 304.917 377.25 304.25L377.5 310C372.833 310.5 369.25 310.75 366.75 310.75C360.583 310.75 355.667 310.333 352 309.5C350 308.833 348.25 307.75 346.75 306.25C345.583 305.083 344.75 303.75 344.25 302.25C343.75 299.583 343.417 297.333 343.25 295.5ZM364 276.5L375 276.25L374.75 282C371.083 281.833 366.583 281.75 361.25 281.75C360.75 281.75 359.375 281.833 357.125 282C354.875 282.167 352.333 282.5 349.5 283L349 278C355.333 277.167 360.333 276.667 364 276.5ZM374 267L370.5 270.25C368.833 268.25 366.583 266.167 363.75 264L366.75 260.75C368.083 261.75 369.375 262.792 370.625 263.875C371.875 264.958 373 266 374 267ZM341.25 258L347.5 260L344.5 269.5C347.5 269 350 268.5 352 268C353.667 267.667 355.75 267.083 358.25 266.25L358.5 272.25C350.667 273.917 345.417 274.833 342.75 275C341.917 277.833 340.833 280.917 339.5 284.25C338.167 287.583 336.917 290.833 335.75 294C335.083 295.333 332.583 301.417 328.25 312.25L322.75 309.5C325.583 303.667 328.083 298.083 330.25 292.75C331.417 289.75 333.5 284 336.5 275.5C333.667 275.667 330.083 275.75 325.75 275.75V270C327.75 270.167 330 270.25 332.5 270.25C334.5 270.25 336.333 270.167 338 270C338.333 268.833 338.792 267.125 339.375 264.875C339.958 262.625 340.583 260.333 341.25 258ZM369.5 258.5L372.5 255.25C374.333 256.75 376.75 258.833 379.75 261.5L376.25 264.75C375.083 263.25 372.833 261.167 369.5 258.5ZM406.25 269.25L408 268.5L410.25 272.25C407.25 274.583 405.75 275.75 405.75 275.75V279.5C411.25 275.833 415.167 273.583 417.5 272.75C420.333 271.75 422.917 271.25 425.25 271.25C430.083 271.25 434.083 272.833 437.25 276C440.25 279.167 441.75 283.417 441.75 288.75C441.75 292.583 440.75 296 438.75 299C436.75 302.333 433.917 304.833 430.25 306.5C426.083 308.5 420.667 309.833 414 310.5C413.833 309 413.083 307 411.75 304.5C420.083 304.5 426.083 303 429.75 300C433.417 297.333 435.25 293.583 435.25 288.75C435.25 284.917 434.25 281.917 432.25 279.75C430.25 277.75 427.75 276.75 424.75 276.75C419.75 276.75 413.333 279.667 405.5 285.5C405.5 293.667 405.667 302.583 406 312.25L399.75 312.5V303.25V291L394.25 297.25C393.917 297.917 393.458 298.583 392.875 299.25C392.292 299.917 391.5 300.917 390.5 302.25L385.75 297.5C388.083 295.167 392.75 290.667 399.75 284C399.75 281.5 399.833 278.667 400 275.5C398 275.833 396.625 276.042 395.875 276.125C395.125 276.208 394.042 276.333 392.625 276.5C391.208 276.667 390.083 276.75 389.25 276.75V270.75C392.25 270.917 395.833 270.833 400 270.5C400.167 269 400.292 267 400.375 264.5C400.458 262 400.5 259.75 400.5 257.75L407.25 258.25L406.5 264C406.333 264.833 406.25 266.583 406.25 269.25ZM470.25 283.5C471.583 284.333 473.167 285.167 475 286C473.167 292 471.75 295.583 470.75 296.75C469.75 297.917 468.5 298.5 467 298.5C465.667 298.5 464.5 297.75 463.5 296.25C462 293.417 461.25 288.917 461.25 282.75C461.25 276.083 462.333 268.5 464.5 260L471 261.75C469.167 268.417 468 273.833 467.5 278C467 282.333 466.917 285.583 467.25 287.75C467.25 288.083 467.333 288.333 467.5 288.5H468C468.167 288.5 468.333 288.417 468.5 288.25C468.833 287.583 469.417 286 470.25 283.5ZM471.25 313C470.417 310.5 469.583 308.417 468.75 306.75C474.25 305.75 478.5 304.333 481.5 302.5C484.333 300.667 486.417 298.083 487.75 294.75C489.083 291.25 489.75 286.083 489.75 279.25C489.75 274.417 489.333 268 488.5 260L495.25 259.5C495.75 266.167 496 272.5 496 278.5C496 286.833 495.167 293.167 493.5 297.5C492.167 300.833 490 303.667 487 306C482.833 309.167 477.583 311.5 471.25 313ZM558.75 296.5C558.75 293.333 558.667 291.5 558.5 291C560.833 291.333 561.917 291.5 561.75 291.5C562.083 291.5 562.417 291.333 562.75 291C562.917 290.833 563 290.417 563 289.75C563 285.25 559.417 278.917 552.25 270.75L555.75 267.25C561.25 273.25 564.75 277.667 566.25 280.5C568.417 284.667 569.5 288.25 569.5 291.25C569.5 293.25 569 294.667 568 295.5C566.833 296.5 564.667 297 561.5 297C561.333 297 560.417 296.833 558.75 296.5ZM557.25 265.75L560.25 262.5C561.583 263.5 562.958 264.625 564.375 265.875C565.792 267.125 566.917 268.167 567.75 269L564.5 272.25C562.5 270.083 560.083 267.917 557.25 265.75ZM533.75 258.25L540.5 260L537.25 270H541.25C544.75 270 547.333 271 549 273C550.667 274.833 551.5 277.833 551.5 282C551.5 285.667 550.75 290.417 549.25 296.25C547.417 302.25 545.583 306.5 543.75 309C542.25 310.833 540.583 311.75 538.75 311.75C537.583 311.75 536.25 311.25 534.75 310.25C532.917 308.75 531 306.75 529 304.25C530.667 302.917 531.917 301.5 532.75 300C534.75 303.333 536.333 305 537.5 305C539 305 540.583 302.917 542.25 298.75C544.583 292.25 545.75 286.583 545.75 281.75C545.75 278.917 545.417 277.083 544.75 276.25C543.917 275.417 542.583 275 540.75 275C538.75 275 536.917 275.083 535.25 275.25C531.083 287.583 525.917 299.5 519.75 311L514 308C517 303.167 519.75 298.167 522.25 293C524.083 289.167 526.333 283.667 529 276.5C525.167 277.167 521.667 278 518.5 279L517.75 272.5C518.75 272.5 523.083 271.917 530.75 270.75L532.75 263.5C532.917 262.667 533.125 261.75 533.375 260.75C533.625 259.75 533.75 258.917 533.75 258.25ZM562.75 259.75L565.75 256.5C568.583 258.667 571.083 260.75 573.25 262.75L570 266.25C567.667 263.917 565.25 261.75 562.75 259.75ZM579.5 301.25L583.75 297.5C587.917 301.5 591.333 305.417 594 309.25L588.75 313.5C587.583 311.5 586.417 309.75 585.25 308.25C584.75 307.583 582.833 305.25 579.5 301.25ZM658 296V292.5H652.25V296H658ZM658 288.25V284.75H652.25V288.25H658ZM692.25 287.5V282.5H680.25V287.5H692.25ZM692.25 277.5V272.5H680.25V277.5H692.25ZM692.25 268V263.5H680.25V268H692.25ZM649.25 255.25L654.5 257.5L652.75 260.5H670.75V264.75H660.75C660.75 264.917 660.167 266.5 659 269.5H672.25V274H657C656 275.667 655.25 276.958 654.75 277.875C654.25 278.792 653.75 279.667 653.25 280.5H658.25C658.75 279.167 659.5 277.333 660.5 275L665.75 276.25L663.75 280.5H671.5V284.75H663V288.25H669.5V292.5H663V296H669.5V300.5H663V304.75H671.25V307.75C673.75 305.75 675.583 303.667 676.75 301.5C677.917 299.333 678.583 296.333 678.75 292.5H675.25V258.5H697.5V292.5H692V306.25C692 306.75 692.167 307.167 692.5 307.5C692.667 307.667 693.167 307.75 694 307.75C694.833 307.75 695.333 307.667 695.5 307.5C695.833 307 696.083 305.417 696.25 302.75C697.25 303.25 698.917 303.833 701.25 304.5C700.583 308.5 699.833 310.917 699 311.75C698.167 312.583 696.917 313 695.25 313H692C690 313 688.667 312.667 688 312C687.333 311.5 687 310.167 687 308V292.5H684C683.667 296.5 683.167 299.583 682.5 301.75C681.5 304.25 680.333 306.417 679 308.25C677.833 309.75 675.333 312 671.5 315C671 313.833 670.667 313 670.5 312.5C670.333 312 670.083 311.583 669.75 311.25C669.583 311.083 668.833 310.5 667.5 309.5H652.25V313.25H646.75V288.75L643.5 292C642.667 289.667 641.75 287.833 640.75 286.5C642.417 285 644.25 283 646.25 280.5C647.75 278.667 649.25 276.5 650.75 274H642.5V269.5H653.25C653.25 269.333 653.833 267.75 655 264.75H649.75L646.75 268.5C646.25 268 644.833 266.917 642.5 265.25C643.333 264.25 644.083 263.333 644.75 262.5C645.417 261.667 646 260.917 646.5 260.25C647.833 257.917 648.75 256.25 649.25 255.25ZM658 302.75V300.5H652.25V304.75H658V302.75ZM746.25 306.5V299.75H723.25V306.5H746.25ZM735.5 288.75C729.833 291.75 725.5 293.833 722.5 295H749.25C746.583 293.833 744.708 293 743.625 292.5C742.542 292 739.833 290.75 735.5 288.75ZM735.25 282.75C738.417 280.417 741 278.167 743 276H726.25C728.583 278.667 731.583 280.917 735.25 282.75ZM731.75 261.5V256H737.75V261.5H761.25V273.5H755.25V266.25H729.25L732.75 268.25L730 271.5H747L748 271.25L751.75 275C749.083 277.833 746.75 280.25 744.75 282.25C744.083 282.583 743.542 282.958 743.125 283.375C742.708 283.792 741.833 284.5 740.5 285.5C745 287.167 748.25 288.417 750.25 289.25C753.25 290.417 757.917 291.667 764.25 293C762.917 294.833 761.917 296.75 761.25 298.75C758.917 298.083 756 297.167 752.5 296V314H746.25V311.5H723.25V314H717.25V296.5C713.083 297.667 710.333 298.417 709 298.75C707.667 296.417 706.667 294.833 706 294C712.833 292.5 717.417 291.333 719.75 290.5C723.417 289.167 727 287.583 730.5 285.75C727.333 283.417 724.5 281.083 722 278.75C719.167 280.75 715.75 282.833 711.75 285C710.417 283 709.333 281.583 708.5 280.75C712.667 278.583 715.833 276.667 718 275C720.5 273.167 723.5 270.25 727 266.25H715V274H709V261.5H731.75ZM791 292.5L796.75 292.75C796.75 296.417 797.667 298.917 799.5 300.25C802.167 302.083 807.167 303 814.5 303C817.833 303 821.417 302.583 825.25 301.75L825.5 308.25C817.833 308.583 814.083 308.75 814.25 308.75C805.25 308.75 799.167 307.417 796 304.75C792.667 302.25 791 298.167 791 292.5ZM822.25 266.75L822 272.5C819.167 272.333 816.25 272.25 813.25 272.25C807.417 272.25 800.917 272.917 793.75 274.25L793.25 268.5C799.917 267.167 806.5 266.5 813 266.5C816.333 266.5 819.417 266.583 822.25 266.75ZM779.75 260.5L786.25 262.25C784.583 271.083 783.583 276.5 783.25 278.5C782.75 283.667 782.5 288.167 782.5 292C782.5 298.667 783.083 304.917 784.25 310.75L778 312.25C777.833 309.25 777.625 306.833 777.375 305C777.125 303.167 776.917 301.5 776.75 300C776.583 298.667 776.5 296.083 776.5 292.25C776.5 282.583 777.583 272 779.75 260.5ZM841 293.75L846.25 296.25C844.583 300.417 842.333 304.917 839.5 309.75L834 306.25C835.667 304.083 838 299.917 841 293.75ZM877.25 296.25L881.5 292.5C885.333 296.333 888.667 300.25 891.5 304.25L886.75 308.25C885.583 306.583 882.417 302.583 877.25 296.25ZM849 306V291.75H855.25V304.25C855.25 305.083 855.417 305.667 855.75 306C855.917 306.333 856.333 306.667 857 307C857.167 307.167 858.417 307.25 860.75 307.25H867.25C869.583 307.25 871 307 871.5 306.5C872.167 305.833 872.833 304.167 873.5 301.5C875.667 302.833 877.667 303.75 879.5 304.25C878.5 307.583 877.75 309.583 877.25 310.25C876.25 311.25 875.333 311.917 874.5 312.25C873.167 312.583 871.167 312.75 868.5 312.75H859.5C855.5 312.75 852.833 312.333 851.5 311.5C849.833 310.333 849 308.5 849 306ZM869.5 295.25L865.25 299.5C863.25 297.5 861.542 295.833 860.125 294.5C858.708 293.167 857.583 292.167 856.75 291.5L861 287.25C865.333 291.25 868.167 293.917 869.5 295.25ZM859.75 263.25V256.5H865.75V263.25H889.25V268.5H848.75V279C848.75 279.833 848.917 280.417 849.25 280.75C849.583 281.083 850.083 281.25 850.75 281.25H885.75V286.5H849.5C847.167 286.5 845.333 286 844 285C843.167 284.167 842.75 283.083 842.75 281.75V268.5H835.5V263.25H859.75ZM917.75 258L917 268.75L919.25 267.75L921.5 271.75C919.5 273.417 917.833 275 916.5 276.5V280C923.333 274.5 928.25 270.917 931.25 269.25C933.917 267.917 936.083 267.25 937.75 267.25C940.25 267.25 942.167 267.917 943.5 269.25C944.833 270.917 945.5 273.083 945.5 275.75C945.5 278.917 945.417 282.417 945.25 286.25C944.75 294.417 944.5 298.667 944.5 299C944.5 300.833 944.75 302.167 945.25 303C945.417 303.667 945.917 304 946.75 304C947.417 304 948 303.667 948.5 303C948.833 302.5 949.417 300.167 950.25 296C952.25 297.5 954.167 298.333 956 298.5C955 303.167 953.75 306.25 952.25 307.75C950.75 309.25 948.917 310 946.75 310C944.25 310 942.25 309.167 940.75 307.5C939.25 305.667 938.5 303 938.5 299.5C938.5 296.167 938.583 292.917 938.75 289.75C939.25 282.417 939.5 278.583 939.5 278.25C939.5 276.083 939.167 274.667 938.5 274C937.833 273.333 937 273 936 273C934.833 273 933.5 273.5 932 274.5C928.833 276.5 923.583 280.583 916.25 286.75V296.75L916.5 312.25H910.5L910.75 292.25L900.75 302.75L897.25 297.5L910.75 285L911 275.75C907 276.75 903.667 277.417 901 277.75L900.5 272C903 271.833 906.583 271.333 911.25 270.5V257.75L917.75 258ZM977.25 289.5C981.583 286.667 985.417 284.583 988.75 283.25C991.75 282.25 994.917 281.75 998.25 281.75C1003.08 281.75 1006.92 282.917 1009.75 285.25C1012.42 287.75 1013.75 290.833 1013.75 294.5C1013.75 299.5 1011.67 303.583 1007.5 306.75C1002 310.75 992.667 312.917 979.5 313.25V311.25C979.5 310.417 979.167 309 978.5 307C986.833 307.333 993 306.833 997 305.5C1001 304.167 1003.83 302.417 1005.5 300.25C1006.83 298.417 1007.5 296.583 1007.5 294.75C1007.5 292.583 1006.67 290.667 1005 289C1003.33 287.5 1000.83 286.75 997.5 286.75C994 286.75 990.25 287.667 986.25 289.5C982.583 291.5 979.083 294.5 975.75 298.5L971 296.5C972.333 285.667 973.583 276.667 974.75 269.5L981.25 271.5C979.583 277.5 978.667 280.667 978.5 281C977.833 283.667 977.417 286.5 977.25 289.5ZM1001.25 262.75L999.25 268.5C994.917 267.5 991.25 266.5 988.25 265.5C984.75 264.167 981.5 262.833 978.5 261.5L981 256C985 257.833 987.917 259 989.75 259.5C993.75 260.833 997.583 261.917 1001.25 262.75ZM21.75 322L21 332.75L23.25 331.75L25.5 335.75C23.5 337.417 21.8333 339 20.5 340.5V344C27.3333 338.5 32.25 334.917 35.25 333.25C37.9167 331.917 40.0833 331.25 41.75 331.25C44.25 331.25 46.1667 331.917 47.5 333.25C48.8333 334.917 49.5 337.083 49.5 339.75C49.5 342.917 49.4167 346.417 49.25 350.25C48.75 358.417 48.5 362.667 48.5 363C48.5 364.833 48.75 366.167 49.25 367C49.4167 367.667 49.9167 368 50.75 368C51.4167 368 52 367.667 52.5 367C52.8333 366.5 53.4167 364.167 54.25 360C56.25 361.5 58.1667 362.333 60 362.5C59 367.167 57.75 370.25 56.25 371.75C54.75 373.25 52.9167 374 50.75 374C48.25 374 46.25 373.167 44.75 371.5C43.25 369.667 42.5 367 42.5 363.5C42.5 360.167 42.5833 356.917 42.75 353.75C43.25 346.417 43.5 342.583 43.5 342.25C43.5 340.083 43.1667 338.667 42.5 338C41.8333 337.333 41 337 40 337C38.8333 337 37.5 337.5 36 338.5C32.8333 340.5 27.5833 344.583 20.25 350.75V360.75L20.5 376.25H14.5L14.75 356.25L4.75 366.75L1.25 361.5L14.75 349L15 339.75C11 340.75 7.66667 341.417 5 341.75L4.5 336C7 335.833 10.5833 335.333 15.25 334.5V321.75L21.75 322ZM103 365.25C100.333 364.25 97.8333 363.75 95.5 363.75C93.8333 363.75 92.4167 364.167 91.25 365C90.0833 366 89.5 366.917 89.5 367.75C89.5 368.25 89.75 368.917 90.25 369.75C90.5833 370.25 91.3333 370.75 92.5 371.25C93.8333 371.75 95.1667 372 96.5 372C99 372 100.833 371.417 102 370.25C102.833 369.417 103.167 367.75 103 365.25ZM108.75 361.75C110.75 362.25 112.25 362.708 113.25 363.125C114.25 363.542 114.833 363.833 115 364C115.333 364 116.208 364.417 117.625 365.25C119.042 366.083 120.75 367 122.75 368L119.25 374C114.75 370.833 111.25 368.667 108.75 367.5C108.417 370.833 107.583 373.083 106.25 374.25C104.083 375.917 101.083 376.75 97.25 376.75C93.25 376.75 89.9167 375.667 87.25 373.5C85.0833 372 84 370.167 84 368C84 365.5 85.0833 363.417 87.25 361.75C89.0833 360.083 92.0833 359.25 96.25 359.25C98.25 359.25 100.5 359.583 103 360.25C102.5 353.417 102.25 349.667 102.25 349C102.25 347.5 102.417 345.417 102.75 342.75L109 343.25C108.5 345.917 108.25 348.5 108.25 351C108.25 352.833 108.417 356.417 108.75 361.75ZM121.75 337.75L119.25 343.5C115.75 341.833 112.583 340.583 109.75 339.75C109.25 339.583 106 338.75 100 337.25L101.25 332C105.583 332.667 109.083 333.417 111.75 334.25C112.083 334.417 115.417 335.583 121.75 337.75ZM88 332.25C89.3333 331.917 90.5833 331.667 91.75 331.5C92.9167 331.333 94.5833 331 96.75 330.5L97 336.25C91.5 337.25 87.8333 337.833 86 338C82.6667 347.5 80.3333 353.667 79 356.5C77.1667 360.833 74.6667 365.75 71.5 371.25L66 368.25C71.6667 358.083 76.1667 348.167 79.5 338.5C75.8333 338.667 72.5833 338.667 69.75 338.5V332.75C74.0833 333.083 76.5 333.25 77 333.25C78.5 333.25 79.9167 333.167 81.25 333C82.9167 328.167 84 324.5 84.5 322L91 323.75C90.5 324.917 89.5 327.75 88 332.25ZM167.5 331.75L172.75 329C176.417 334.5 179.083 339.5 180.75 344C182.75 349.5 184.333 355.667 185.5 362.5L179 364.5C178 357.167 176.5 350.583 174.5 344.75C173.167 341.083 170.833 336.75 167.5 331.75ZM150.25 356.25C151.583 357.583 153.167 358.75 155 359.75C152.667 366.083 150.583 370.25 148.75 372.25C147.917 373.083 146.917 373.5 145.75 373.5C144.75 373.5 143.667 372.917 142.5 371.75C140.5 369.583 138.917 366.667 137.75 363C136.25 358.167 135.5 353.083 135.5 347.75C135.5 341.75 136.25 334.667 137.75 326.5L144.5 328C143.333 331.833 142.5 335.25 142 338.25C141.5 341.75 141.25 345.417 141.25 349.25C141.25 352.917 141.75 356.25 142.75 359.25C143.417 362.25 144.167 364.167 145 365C145.167 365.167 145.333 365.25 145.5 365.25C145.833 365.25 146.25 365 146.75 364.5C147.75 362.833 148.917 360.083 150.25 356.25ZM233.25 346.75V361.25H242.25C239.583 357.75 236.583 352.917 233.25 346.75ZM216.75 361.25H227.5V346.25C223.5 352.583 219.917 357.583 216.75 361.25ZM225.25 338.75H211V333.25H227.5V320.5H233.25V333.25H249.75V338.75H235.25C237.917 344.25 240.75 349.083 243.75 353.25C246.583 356.75 249.667 359.833 253 362.5C251.833 363.5 251.083 364.25 250.75 364.75C250.417 365.25 249.833 366.333 249 368C246.5 366.167 244.333 364.083 242.5 361.75V366.25H233.25V377.75H227.5V366.25H216.5V361.75C215.5 362.75 214.542 363.708 213.625 364.625C212.708 365.542 211.75 366.5 210.75 367.5C209.917 366 208.833 364.583 207.5 363.25V377.75H202V344.75C199.5 349.083 197.5 352.25 196 354.25C195.833 353.75 195.417 352.833 194.75 351.5C194.083 350.167 193.5 349.083 193 348.25C198.833 340.083 203.75 330.5 207.75 319.5L213.5 322.25C211.667 326.917 209.667 331.083 207.5 334.75V362C211 359 214.083 355.75 216.75 352.25C218.917 349.417 221.75 344.917 225.25 338.75ZM263.75 360.25H266C266.5 362.417 266.833 364.458 267 366.375C267.167 368.292 267.25 369.417 267.25 369.75H264.5C264.333 367.25 264.083 364.083 263.75 360.25ZM259.5 360L262.5 360.25C261.833 364.75 261.25 368.417 260.75 371.25L257.5 370.5C258.5 365.833 259.167 362.333 259.5 360ZM268.25 359.75L270.25 359.25C271.917 364.417 272.75 367.167 272.75 367.5L270 368.25C269 363.25 268.417 360.417 268.25 359.75ZM270.25 352V346H265.5V352H270.25ZM270.25 341.75V337H265.5V341.75H270.25ZM270.25 332.75V328H265.5V332.75H270.25ZM260.75 357.5V323H282.25V328H275V332.75H280.75V337H275V341.75H281V346H275V352H283.5C282.667 365.833 281.833 373.417 281 374.75C280 376.25 276.667 377.333 271 378C270.833 376.333 270.333 374.583 269.5 372.75H275C275.5 372.75 275.917 372.583 276.25 372.25C276.583 371.583 276.917 370.25 277.25 368.25C277.25 367.583 277.333 366.833 277.5 366L275 366.5C274.5 364.5 273.5 362 272 359L274.25 358.25C274.75 359.083 275.833 361.417 277.5 365.25L278.25 356H265.5V357.5H260.75ZM295.5 356L295.75 348.75H290.5V356H295.5ZM301 356H307.25V348.75H301.25C301.083 349.75 301 352.167 301 356ZM302.75 333L298 328C296.333 330.167 294.833 331.917 293.5 333.25C292.5 334.25 291.833 335 291.5 335.5H305.75C304.75 334.5 303.75 333.667 302.75 333ZM296.75 319.75L302 322L301 323.75C303.5 326.25 306.25 328.667 309.25 331C309.083 331 311.5 332.667 316.5 336C315 337.5 313.833 339.167 313 341C312.333 340.5 311.542 339.917 310.625 339.25C309.708 338.583 308.667 337.833 307.5 337V340H301.25V344.5H312.5V360.25H302.75C305.417 365.917 310.083 370.25 316.75 373.25C315.25 374.417 314.333 375.25 314 375.75C313.333 376.75 312.833 377.667 312.5 378.5C309.833 376.833 307.167 374.667 304.5 372C303 370.5 301.083 367.917 298.75 364.25C296.917 367.75 295.333 370.25 294 371.75C292.333 373.75 289.667 376.083 286 378.75C285.333 377.583 284.083 376 282.25 374C285.75 372.167 288.25 370.25 289.75 368.25C291.917 365.417 293.5 362.75 294.5 360.25H285.5V344.5H295.75V340H288.75V338.25C285.583 340.917 283.917 342.333 283.75 342.5C283.25 341.833 281.917 340.583 279.75 338.75C282.417 336.583 285.25 333.917 288.25 330.75C290.917 327.917 293.75 324.25 296.75 319.75ZM348.5 321.25L355 324L350.75 330.75C351.917 330.583 353 330.458 354 330.375C355 330.292 355.958 330.167 356.875 330C357.792 329.833 358.583 329.75 359.25 329.75C360.25 329.417 362.5 328.917 366 328.25L366.25 334L355 335.5C355.333 335.5 352.833 335.667 347.5 336L343.75 341.75C346.417 341.417 347.833 341.25 348 341.25C349 341.25 350.333 341.417 352 341.75C353.167 342.25 354 342.833 354.5 343.5C355 344 355.5 344.75 356 345.75C356 345.417 356.167 346.417 356.5 348.75L374 342.25L376 348.5C373.833 349 370.75 349.75 366.75 350.75C366.917 350.75 363.5 351.833 356.5 354C356.5 357.833 356.583 361 356.75 363.5H351V356.25C346 358.417 342.917 360.167 341.75 361.5C340.417 362.5 339.75 363.667 339.75 365C339.75 366.5 340.667 367.667 342.5 368.5C344.833 369.833 349 370.5 355 370.5C359 370.5 364.333 370.083 371 369.25V375.25C363.333 375.75 358.25 376 355.75 376C347.75 376 341.917 374.833 338.25 372.5C335.583 370.833 334.25 368.417 334.25 365.25C334.25 362.917 335.333 360.667 337.5 358.5C339.5 356.667 344 354.083 351 350.75C351 348.75 350.667 347.417 350 346.75C349.333 346.083 348.333 345.75 347 345.75C344.5 345.75 342.417 346.333 340.75 347.5C338.75 348.833 334.833 352.833 329 359.5L324.5 355.25C329.5 350.583 332.667 347.417 334 345.75C336.167 343.417 338.5 340.333 341 336.5C335.667 336.833 331.833 336.833 329.5 336.5L329.25 331C331.75 331.167 334.833 331.25 338.5 331.25H344C345 329.417 346.5 326.083 348.5 321.25ZM407.25 352.75V347.75H442.75V352.75H428V358.25H440V363.25H428V371.75C436.833 372.083 442.417 372.083 444.75 371.75C444.25 372.75 443.667 374.583 443 377.25L427.75 377C424.583 377 421.917 376.417 419.75 375.25C417.083 374.25 414.583 372.417 412.25 369.75C410.25 372.75 409.167 374.333 409 374.5C408.5 375 407.958 375.542 407.375 376.125C406.792 376.708 406.167 377.333 405.5 378C404.333 376.333 403 374.833 401.5 373.5C404.667 370.667 406.833 368.167 408 366C409.167 363.833 410.417 360.167 411.75 355L417.25 355.75C416.417 359.75 415.75 362.083 415.25 362.75C415.083 363.25 414.833 364 414.5 365C415.833 366.667 417.083 367.833 418.25 368.5C419.583 369.167 421.083 369.917 422.75 370.75V352.75H407.25ZM432.75 339.75V335.5H416.75V339.75H432.75ZM432.75 331.25V326.5H416.75V331.25H432.75ZM411.5 344.25V322H438.25V344.25H411.5ZM394 333.25V320.5H399.5V333.25H405.75V338.75H399.5V347.75C401.167 347.083 402.417 346.583 403.25 346.25C404.083 345.917 405 345.583 406 345.25V350.5C405 350.833 403.917 351.25 402.75 351.75C401.583 352.25 400.5 352.667 399.5 353V371.75C399.5 374.083 398.917 375.583 397.75 376.25C396.417 377.083 393.75 377.833 389.75 378.5C389.583 377.833 389.5 377.167 389.5 376.5C389.5 375.833 389.417 375.417 389.25 375.25C389.083 374.917 388.583 374 387.75 372.5H393C393.333 372.5 393.583 372.417 393.75 372.25C393.917 372.083 394 371.917 394 371.75V355.25C389.5 357.083 387.083 358 386.75 358L385.25 352.25C387.75 351.583 390.667 350.667 394 349.5V338.75H386V333.25H394ZM468.25 377.75C465.917 375.083 464.583 373.583 464.25 373.25C469.083 369.75 473.583 365.5 477.75 360.5L482.25 364.5C477.417 369.833 472.75 374.25 468.25 377.75ZM508.75 373.5C506.583 375.667 505.167 377.167 504.5 378C499.333 373.667 494.583 369.167 490.25 364.5L494.5 360.5C498.333 364.667 503.083 369 508.75 373.5ZM490.25 353.25V339H480.5V353.25H490.25ZM474.75 334V321.25H480.5V334H490.25V321.5H496.25V334H504.5V339H496.25V353.25H507V358H465.5V353.25H474.75V339H467.25V334H474.75ZM462.25 335.5V378H456.5V346.25C453.833 350.583 452.333 353 452 353.5C451.5 352.167 450.417 350.333 448.75 348C453.583 341.167 457.833 331.833 461.5 320L467.5 322.25C466.833 323.917 465.083 328.333 462.25 335.5ZM564 351C566 352.667 567.75 353.833 569.25 354.5C566.083 359.5 563.333 363.333 561 366C558.333 368.667 555.25 370.833 551.75 372.5C547.75 374.333 543.833 375.25 540 375.25C534.833 375.25 530.917 373.667 528.25 370.5C526.25 368 525.25 363.5 525.25 357L526 324.25L533.25 324.5C531.917 338.667 531.25 349.333 531.25 356.5C531.25 361.5 531.75 364.667 532.75 366C534.25 368.333 536.833 369.5 540.5 369.5C549.833 369.5 557.667 363.333 564 351ZM604.75 366.25V363.5C602.917 363.333 600.833 363.25 598.5 363.25C595.667 363.25 593.5 363.75 592 364.75C590.833 365.75 590.25 366.833 590.25 368C590.25 369 590.833 369.833 592 370.5C593.667 371.667 595.75 372.25 598.25 372.25C600.583 372.25 602.25 371.75 603.25 370.75C604.25 369.917 604.75 368.417 604.75 366.25ZM610.5 331.5C614.833 331.333 617.917 331.083 619.75 330.75C621.75 330.417 623.458 330.083 624.875 329.75C626.292 329.417 627.833 329.083 629.5 328.75L629.75 335C625.083 335.667 618.583 336.417 610.25 337.25V345.5C616.083 345.333 621.583 344.667 626.75 343.5L627 349.25L618.25 350.25L610.25 350.5C610.25 354.833 610.333 357.917 610.5 359.75C614.833 360.917 618.583 362.167 621.75 363.5C625.083 365.167 628.5 367.167 632 369.5L628 374.5C624.167 371.833 621.75 370.167 620.75 369.5C618.75 368.333 615.333 366.833 610.5 365C610.5 368.667 610.333 371 610 372C609.5 373.333 608.5 374.333 607 375C604.667 376.333 601.75 377 598.25 377C593.75 377 590.333 376.083 588 374.25C585.667 372.417 584.5 370.25 584.5 367.75C584.5 365.25 585.5 363.167 587.5 361.5C590.167 359.333 594.083 358.25 599.25 358.25C600.083 358.25 601.833 358.417 604.5 358.75V350.75C596.5 350.75 591.75 350.417 590.25 349.75C587.583 348.417 586.167 345.583 586 341.25L591.75 341C592.083 342.667 592.417 343.75 592.75 344.25C592.917 344.75 593.583 345.167 594.75 345.5C596.25 345.833 599.5 345.917 604.5 345.75V337.25C596.667 337.25 591.833 337.167 590 337C587.833 337 585.333 336.667 582.5 336L583.25 330.25C585.25 330.75 588.25 331.167 592.25 331.5C595.917 331.833 600 332 604.5 332L604.25 321.75L611.5 322C611.5 322.667 611.417 323.5 611.25 324.5C611.083 325.5 610.958 326.542 610.875 327.625C610.792 328.708 610.667 330 610.5 331.5ZM671.25 352C670.583 349.5 669.75 347.75 668.75 346.75C667.917 345.917 667.083 345.5 666.25 345.5C664.75 345.5 663.667 346.083 663 347.25C662 348.417 661.5 349.833 661.5 351.5C661.5 353.5 662 355.167 663 356.5C663.667 357.667 664.667 358.25 666 358.25C667.167 358.25 668.25 357.75 669.25 356.75C670.417 355.583 671.083 354 671.25 352ZM677.25 331.5C681.25 331.333 685.375 331.125 689.625 330.875C693.875 330.625 696.833 330.5 698.5 330.5V336.5H677.25V355C677.583 358.833 677.583 361.25 677.25 362.25C677.083 363.583 676.5 365.25 675.5 367.25C674.333 369.417 672.25 371.417 669.25 373.25C666.583 375.25 662.667 377 657.5 378.5C656.667 376.333 655.667 374.417 654.5 372.75C660.333 371.75 664.75 370.083 667.75 367.75C670.25 365.583 671.75 362.667 672.25 359C670.75 360.5 669.5 361.5 668.5 362C667.833 362.5 666.75 362.75 665.25 362.75C663.083 362.75 661.083 361.75 659.25 359.75C657.417 357.583 656.5 355.083 656.5 352.25C656.5 348.917 657.5 346.167 659.5 344C661.333 342 663.333 341 665.5 341C667.667 341 669.75 342.167 671.75 344.5L671.5 336.75L644 338.75L643.75 332.75L671.5 331.75L671.25 320.5H677.75C677.417 325.167 677.25 328.833 677.25 331.5ZM714.75 365C713.583 365 712.583 365.417 711.75 366.25C710.75 367.25 710.25 368.333 710.25 369.5C710.25 370.833 710.75 371.917 711.75 372.75C712.583 373.583 713.583 374 714.75 374C716.083 374 717.167 373.583 718 372.75C718.833 371.917 719.25 370.833 719.25 369.5C719.25 368.5 718.833 367.417 718 366.25C717.167 365.417 716.083 365 714.75 365ZM714.75 361C717.083 361 719.083 361.833 720.75 363.5C722.417 365.167 723.25 367.167 723.25 369.5C723.25 371.833 722.417 373.833 720.75 375.5C719.083 377.167 717.083 378 714.75 378C712.417 378 710.417 377.167 708.75 375.5C707.083 373.833 706.25 371.833 706.25 369.5C706.25 367.167 707.083 365.167 708.75 363.5C710.417 361.833 712.417 361 714.75 361Z" fill="url(#paint0_linear_29_214)" fill-opacity="0.4"/>
<defs>
<linearGradient id="paint0_linear_29_214" x1="-1" y1="189" x2="1034" y2="189" gradientUnits="userSpaceOnUse">
<stop stop-color="white"/>
<stop offset="1" stop-color="#FF2D2D"/>
</linearGradient>
</defs>
</svg>
