<svg width="64" height="64" viewBox="0 0 64 64" fill="none" xmlns="http://www.w3.org/2000/svg">
<circle cx="32" cy="32" r="32" fill="#FF2D2D"/>
<path d="M23.072 17.968H53.648V21.232H23.072V17.968ZM35.84 11.728H39.488V19.552H35.84V11.728ZM35.84 34.72H39.056V53.776H35.84V34.72ZM27.392 34.432H30.704V39.472C30.704 44.848 29.936 51.088 23.456 55.792C22.928 55.072 21.728 53.968 20.912 53.392C26.768 49.312 27.392 43.888 27.392 39.376V34.432ZM33.68 19.744L37.424 20.896C35.6 24.352 33.344 28.432 31.52 31.024L28.64 29.968C30.416 27.232 32.528 22.816 33.68 19.744ZM42.08 24.448L44.864 22.864C48.32 25.792 52.16 29.968 53.888 32.896L50.912 34.672C49.28 31.792 45.488 27.424 42.08 24.448ZM23.696 29.104C29.936 28.96 39.824 28.576 49.232 28.24L49.136 31.264C40.112 31.792 30.656 32.272 24.08 32.56L23.696 29.104ZM12.32 14.704L14.336 12.112C17.36 13.408 21.152 15.568 22.976 17.248L20.912 20.176C19.088 18.448 15.392 16.144 12.32 14.704ZM9.776 27.76L11.744 25.072C14.816 26.224 18.704 28.288 20.624 29.872L18.56 32.848C16.688 31.216 12.896 29.056 9.776 27.76ZM11.216 52.864C13.664 49.168 17.168 42.784 19.76 37.312L22.496 39.52C20.144 44.608 16.976 50.704 14.336 55.168L11.216 52.864ZM44.336 34.432H47.696V50.32C47.696 51.28 47.744 51.76 47.984 52C48.128 52.144 48.464 52.192 48.752 52.192C49.088 52.192 49.712 52.192 50.144 52.192C50.528 52.192 50.96 52.144 51.152 51.952C51.392 51.808 51.536 51.472 51.632 50.704C51.728 49.888 51.776 48.16 51.824 45.856C52.448 46.384 53.504 46.912 54.368 47.2C54.32 49.312 54.176 51.856 53.888 52.72C53.648 53.632 53.264 54.208 52.592 54.592C52.064 54.928 51.104 55.12 50.336 55.12C49.712 55.12 48.464 55.12 47.936 55.12C47.024 55.12 45.968 54.88 45.296 54.304C44.576 53.632 44.336 52.864 44.336 49.936V34.432Z" fill="white"/>
</svg>
