<svg width="1586" height="108" viewBox="0 0 1586 108" fill="none" xmlns="http://www.w3.org/2000/svg">
<path d="M71.7031 97L39.6406 101.898L36.9688 91.2109L47.2109 90.3203C50.4766 79.6328 53.1484 69.0938 55.2266 58.7031L65.9141 7.49219L77.9375 10.6094L58.3438 89.4297C72 87.6484 81.5 86.3125 86.8438 85.4219C84.7656 79.4844 81.2031 71.0234 76.1562 60.0391L85.5078 56.4766C92.3359 68.9453 98.7188 84.0859 104.656 101.898L94.4141 106.352C92.6328 100.414 91.1484 96.1094 89.9609 93.4375L71.7031 97ZM31.1797 19.0703V35.5469H46.3203V44.8984H31.1797V52.9141C35.6328 56.1797 40.6797 59.4453 46.3203 62.7109C45.4297 64.4922 43.7969 67.4609 41.4219 71.6172C37.2656 69.2422 33.8516 66.8672 31.1797 64.4922V107.242H21.8281V68.9453C17.0781 76.6641 12.3281 83.3438 7.57812 88.9844C5.79688 85.4219 3.57031 81.8594 0.898438 78.2969C6.24219 72.6562 10.25 67.6094 12.9219 63.1562C15.5938 59 18.5625 52.9141 21.8281 44.8984H4.01562V35.5469H21.8281V20.8516L8.02344 23.5234C5.94531 19.3672 4.16406 16.25 2.67969 14.1719C16.3359 12.6875 29.3984 9.71875 41.8672 5.26562L46.7656 14.1719C39.3438 16.5469 34.1484 18.1797 31.1797 19.0703ZM154.086 74.2891L163.883 75.1797C163.883 80.2266 164.031 82.8984 164.328 83.1953C164.922 84.6797 165.812 86.3125 167 88.0938C168.484 89.2812 170.711 90.1719 173.68 90.7656C177.539 91.9531 183.773 92.5469 192.383 92.5469C198.023 92.5469 205.148 91.9531 213.758 90.7656V101.453C203.664 102.344 197.578 102.789 195.5 102.789C184.812 102.789 176.797 102.047 171.453 100.562C165.812 99.0781 161.953 97.1484 159.875 94.7734C157.5 92.3984 155.867 89.875 154.977 87.2031C154.086 84.2344 153.789 79.9297 154.086 74.2891ZM209.75 40.8906L209.305 51.1328C203.664 50.8359 198.32 50.6875 193.273 50.6875C189.711 50.6875 186.891 50.8359 184.812 51.1328C184.219 51.1328 182.066 51.2812 178.355 51.5781C174.645 51.875 170.117 52.4688 164.773 53.3594L162.992 43.5625C168.039 42.6719 172.418 42.0781 176.129 41.7812C179.84 41.4844 182.141 41.3359 183.031 41.3359C191.938 40.7422 200.844 40.5938 209.75 40.8906ZM155.867 28.4219C163.586 27.2344 171.75 25.4531 180.359 23.0781L180.805 33.3203C171.008 35.6953 161.656 37.3281 152.75 38.2188C147.109 57.5156 138.352 79.6328 126.477 104.57L116.68 100.117C121.133 91.2109 125.289 82.4531 129.148 73.8438C130.633 69.6875 132.562 64.418 134.938 58.0352C137.312 51.6523 139.539 45.3438 141.617 39.1094C131.227 39.7031 124.844 39.8516 122.469 39.5547L122.914 29.3125C131.523 29.9063 138.797 30.0547 144.734 29.7578C146.516 23.8203 148.297 16.6953 150.078 8.38281L161.656 11.9453C160.766 14.9141 159.875 17.6602 158.984 20.1836C158.094 22.707 157.055 25.4531 155.867 28.4219ZM275.656 8.82812L271.648 24.8594C280.258 23.375 286.047 22.4844 289.016 22.1875C294.656 21.2969 300.742 19.9609 307.273 18.1797L307.719 28.4219C296.734 31.3906 283.82 33.6172 268.977 35.1016C266.305 46.0859 264.375 55.4375 263.188 63.1562C270.312 59.2969 276.695 56.4766 282.336 54.6953C288.867 53.2109 294.211 52.4688 298.367 52.4688C305.492 52.4688 311.43 54.5469 316.18 58.7031C320.633 63.1562 322.859 68.9453 322.859 76.0703C322.859 85.2734 319.148 92.25 311.727 97C301.336 103.234 283.523 106.203 258.289 105.906C257.695 101.156 256.953 97.7422 256.062 95.6641C273.578 95.6641 285.898 94.625 293.023 92.5469C300.148 90.7656 305.195 88.2422 308.164 84.9766C310.836 81.7109 312.172 78.2969 312.172 74.7344C312.172 70.2812 310.836 67.0156 308.164 64.9375C305.195 62.5625 301.484 61.375 297.031 61.375C291.094 61.375 284.711 62.7109 277.883 65.3828C271.352 68.3516 265.117 72.8047 259.18 78.7422L251.609 73.8438C253.094 62.5625 255.172 49.6484 257.844 35.1016L246.266 35.5469C242.109 35.5469 238.695 35.3984 236.023 35.1016L236.914 23.9688C244.633 25.4531 252.352 25.8984 260.07 25.3047L264.078 6.15625L275.656 8.82812ZM388.766 26.1953C377.188 28.8672 369.023 33.3203 364.273 39.5547C359.227 46.3828 356.703 54.1016 356.703 62.7109C356.703 69.5391 358.039 75.0312 360.711 79.1875C362.195 81.8594 363.977 83.1953 366.055 83.1953C367.242 83.1953 368.281 82.6016 369.172 81.4141C371.844 78.7422 375.406 71.9141 379.859 60.9297C384.016 49.6484 386.984 38.0703 388.766 26.1953ZM397.672 104.125C396.188 99.9688 394.555 96.5547 392.773 93.8828C403.164 91.5078 409.844 89.4297 412.812 87.6484C418.156 84.9766 422.461 81.1172 425.727 76.0703C428.992 71.0234 430.625 64.7891 430.625 57.3672C430.625 47.8672 427.953 40.2969 422.609 34.6562C416.672 28.7187 408.953 25.6016 399.453 25.3047C395.891 44.3047 392.328 57.9609 388.766 66.2734C384.016 77.5547 379.117 85.7188 374.07 90.7656C371.992 93.4375 369.172 94.7734 365.609 94.7734C361.156 94.7734 357.148 92.3984 353.586 87.6484C348.836 81.1172 346.461 72.9531 346.461 63.1562C346.461 50.0938 351.211 39.1094 360.711 30.2031C370.211 21.2969 382.68 16.8438 398.117 16.8438C405.836 16.8438 413.406 18.625 420.828 22.1875C425.875 24.2656 429.883 26.9375 432.852 30.2031C435.82 33.4688 438.195 37.4766 439.977 42.2266C441.461 47.5703 442.203 52.4688 442.203 56.9219C442.203 65.8281 440.125 73.6953 435.969 80.5234C432.406 86.7578 426.766 91.9531 419.047 96.1094C414.297 99.375 407.172 102.047 397.672 104.125ZM464.914 16.3984H544.625L545.961 15.5078L553.531 24.4141C552.047 25.6016 550.414 27.0859 548.633 28.8672C546.852 30.6484 543.289 33.9141 537.945 38.6641C534.086 42.5234 527.109 48.4609 517.016 56.4766L513.008 51.1328C512.117 60.9297 510.93 68.9453 509.445 75.1797C508.258 80.5234 506.031 84.9766 502.766 88.5391C499.797 92.1016 496.234 95.3672 492.078 98.3359C489.109 100.711 483.766 103.383 476.047 106.352C473.969 102.492 472.781 100.266 472.484 99.6719C472.188 99.0781 471 97.7422 468.922 95.6641C476.344 93.5859 481.391 91.6562 484.062 89.875C487.625 87.7969 490.445 85.2734 492.523 82.3047C494.898 79.0391 496.68 75.4766 497.867 71.6172C498.758 68.9453 499.5 64.4922 500.094 58.2578L500.539 40.4453H513.008V46.2344C521.914 38.5156 528.891 31.9844 533.938 26.6406H464.914V16.3984ZM579.805 21.7422H653.727L655.062 20.8516L663.078 28.4219C658.328 42.6719 653.281 54.3984 647.938 63.6016C642.594 72.2109 636.062 79.7812 628.344 86.3125C618.844 94.0312 606.969 100.414 592.719 105.461C591.828 103.086 590.938 101.156 590.047 99.6719C589.75 99.0781 589.305 98.4102 588.711 97.668C588.117 96.9258 587.227 95.9609 586.039 94.7734C596.43 91.5078 604.445 88.2422 610.086 84.9766C616.023 81.7109 621.516 77.5547 626.562 72.5078C630.719 68.3516 635.023 62.5625 639.477 55.1406C641.555 51.2812 644.82 43.7109 649.273 32.4297H579.805V21.7422ZM666.641 6.15625C665.156 6.15625 663.82 6.75 662.633 7.9375C661.148 9.42188 660.406 10.9062 660.406 12.3906C660.406 13.875 661.148 15.3594 662.633 16.8438C663.82 18.0312 665.156 18.625 666.641 18.625C668.422 18.625 669.906 18.0312 671.094 16.8438C672.281 15.6563 672.875 14.1719 672.875 12.3906C672.875 10.6094 672.281 9.125 671.094 7.9375C669.906 6.75 668.422 6.15625 666.641 6.15625ZM666.641 0.367188C670.203 0.367188 673.172 1.55469 675.547 3.92969C677.922 6.30469 679.109 9.125 679.109 12.3906C679.109 15.9531 677.922 18.9219 675.547 21.2969C673.172 23.6719 670.203 24.8594 666.641 24.8594C663.375 24.8594 660.555 23.6719 658.18 21.2969C655.805 18.9219 654.617 15.9531 654.617 12.3906C654.617 9.125 655.805 6.30469 658.18 3.92969C660.555 1.55469 663.375 0.367188 666.641 0.367188ZM761.938 79.6328V31.0938H710.281V79.6328H761.938ZM698.258 97.8906V20.8516H773.961V97H761.938V89.875H710.281V97.8906H698.258ZM895.977 61.8203H805.578V50.6875H895.977V61.8203ZM972.125 23.9688V44.0078H1014.43V53.8047H971.68C971.086 63.8984 970.344 70.4297 969.453 73.3984C967.969 78.7422 966.188 82.8984 964.109 85.8672C960.844 90.0234 956.688 94.0312 951.641 97.8906C946.297 101.453 939.617 104.719 931.602 107.688C928.93 102.938 926.555 99.5234 924.477 97.4453C931.898 95.3672 938.133 92.8438 943.18 89.875C947.039 87.7969 950.453 84.9766 953.422 81.4141C955.5 78.4453 957.281 74.7344 958.766 70.2812C959.953 67.0156 960.695 61.5234 960.992 53.8047H915.125V44.0078H960.992V25.75C950.305 27.8281 939.32 29.3125 928.039 30.2031C927.445 28.125 926.258 24.7109 924.477 19.9609C940.508 18.4766 953.199 16.9922 962.551 15.5078C971.902 14.0234 982.219 11.6484 993.5 8.38281L998.844 18.1797C989.047 21.1484 980.141 23.0781 972.125 23.9688ZM1072.77 26.1953C1061.19 28.8672 1053.02 33.3203 1048.27 39.5547C1043.23 46.3828 1040.7 54.1016 1040.7 62.7109C1040.7 69.5391 1042.04 75.0312 1044.71 79.1875C1046.2 81.8594 1047.98 83.1953 1050.05 83.1953C1051.24 83.1953 1052.28 82.6016 1053.17 81.4141C1055.84 78.7422 1059.41 71.9141 1063.86 60.9297C1068.02 49.6484 1070.98 38.0703 1072.77 26.1953ZM1081.67 104.125C1080.19 99.9688 1078.55 96.5547 1076.77 93.8828C1087.16 91.5078 1093.84 89.4297 1096.81 87.6484C1102.16 84.9766 1106.46 81.1172 1109.73 76.0703C1112.99 71.0234 1114.62 64.7891 1114.62 57.3672C1114.62 47.8672 1111.95 40.2969 1106.61 34.6562C1100.67 28.7187 1092.95 25.6016 1083.45 25.3047C1079.89 44.3047 1076.33 57.9609 1072.77 66.2734C1068.02 77.5547 1063.12 85.7188 1058.07 90.7656C1055.99 93.4375 1053.17 94.7734 1049.61 94.7734C1045.16 94.7734 1041.15 92.3984 1037.59 87.6484C1032.84 81.1172 1030.46 72.9531 1030.46 63.1562C1030.46 50.0938 1035.21 39.1094 1044.71 30.2031C1054.21 21.2969 1066.68 16.8438 1082.12 16.8438C1089.84 16.8438 1097.41 18.625 1104.83 22.1875C1109.88 24.2656 1113.88 26.9375 1116.85 30.2031C1119.82 33.4688 1122.2 37.4766 1123.98 42.2266C1125.46 47.5703 1126.2 52.4688 1126.2 56.9219C1126.2 65.8281 1124.12 73.6953 1119.97 80.5234C1116.41 86.7578 1110.77 91.9531 1103.05 96.1094C1098.3 99.375 1091.17 102.047 1081.67 104.125ZM1187.21 79.1875V69.8359H1198.34V79.1875H1217.94V87.2031H1198.34V96.1094H1235.75V104.125H1151.59V96.1094H1187.21V87.2031H1168.51V79.1875H1187.21ZM1208.59 55.5859V49.7969H1176.52V55.5859H1208.59ZM1208.59 43.1172V37.3281H1176.52V43.1172H1208.59ZM1208.59 30.6484V24.4141H1176.52V30.6484H1208.59ZM1208.59 15.9531V6.60156H1219.72V15.9531H1239.76V24.4141H1219.72V55.5859H1243.32V63.1562H1218.38C1222.24 67.6094 1225.95 71.1719 1229.52 73.8438C1232.48 76.2188 1237.98 79.6328 1245.99 84.0859C1243.02 87.6484 1240.8 90.4688 1239.31 92.5469C1226.25 84.8281 1215.41 75.0312 1206.8 63.1562H1179.64C1175.78 68.5 1171.03 73.6953 1165.39 78.7422C1158.56 84.6797 1152.18 89.4297 1146.24 92.9922C1144.76 90.3203 1142.53 87.7969 1139.56 85.4219C1146.69 81.5625 1152.62 77.5547 1157.38 73.3984C1160.64 70.7266 1164.05 67.3125 1167.62 63.1562H1142.68V55.5859H1166.28V24.4141H1146.69V15.9531H1166.28V6.60156H1176.52V15.9531H1208.59ZM1292.3 56.0312H1350.64L1351.53 55.5859L1358.21 61.375C1354.95 66.125 1351.53 70.5781 1347.97 74.7344L1341.29 70.2812L1345.3 64.0469H1328.38V76.9609H1347.08V85.4219H1328.38V96.5547H1347.08H1358.21C1356.43 100.711 1355.39 103.68 1355.09 105.461C1336.69 105.461 1326.3 105.312 1323.92 105.016C1317.98 104.125 1313.68 102.641 1311.01 100.562C1307.45 98.7812 1303.73 95.5156 1299.88 90.7656C1295.12 98.1875 1290.82 103.828 1286.96 107.688C1286.66 106.797 1285.92 105.832 1284.73 104.793C1283.55 103.754 1282.06 102.492 1280.28 101.008C1285.92 95.0703 1289.63 90.1719 1291.41 86.3125C1293.79 82.1562 1296.02 75.9219 1298.09 67.6094L1307.45 70.7266C1307.15 72.5078 1305.96 76.5156 1303.88 82.75C1307.15 86.6094 1309.82 89.2812 1311.9 90.7656C1314.27 92.8438 1316.5 94.0312 1318.58 94.3281V64.0469H1292.3V56.0312ZM1334.61 17.2891V5.71094H1343.52V17.2891H1355.98V25.3047H1343.52C1347.97 32.4297 1353.46 38.3672 1359.99 43.1172C1357.02 46.0859 1354.95 48.3125 1353.76 49.7969C1349.9 46.8281 1346.48 43.4141 1343.52 39.5547V53.3594H1334.61V36.4375C1332.53 40.8906 1328.82 45.3438 1323.48 49.7969C1322.59 48.6094 1321.47 47.3477 1320.14 46.0117C1318.8 44.6758 1317.84 43.8594 1317.24 43.5625C1321.7 39.4062 1324.81 36.2891 1326.59 34.2109C1327.19 33.3203 1329.12 30.3516 1332.38 25.3047H1324.37V17.2891H1334.61ZM1278.95 76.5156V50.2422H1272.71V76.5156H1278.95ZM1302.99 16.8438V5.26562H1311.9V16.8438H1320.36V24.8594H1311.9V28.8672C1315.76 31.5391 1319.02 33.4688 1321.7 34.6562C1321.1 35.5469 1320.51 36.5117 1319.91 37.5508C1319.32 38.5898 1318.28 40 1316.8 41.7812C1317.39 41.7812 1315.76 40.7422 1311.9 38.6641V53.3594H1302.99V37.3281C1299.73 42.0781 1295.87 46.0859 1291.41 49.3516C1289.93 46.9766 1288.45 45.1953 1286.96 44.0078V86.7578H1272.71V97.8906H1263.8V68.0547C1263.51 68.6484 1262.99 69.6133 1262.25 70.9492C1261.5 72.2852 1260.54 73.8438 1259.35 75.625C1257.87 71.4688 1256.09 67.6094 1254.01 64.0469C1255.49 61.9688 1257.57 58.1094 1260.24 52.4688C1262.32 48.6094 1263.8 44.1562 1264.7 39.1094C1266.18 33.1719 1267.52 26.0469 1268.7 17.7344H1257.12V8.38281H1289.63V17.7344H1278.95L1277.16 29.3125C1277.16 29.6094 1276.27 33.6172 1274.49 41.3359H1286.52C1291.86 37.1797 1297.05 31.6875 1302.1 24.8594H1290.97V16.8438H1302.99ZM1406.75 69.3906L1416.99 69.8359C1416.99 76.3672 1418.62 80.8203 1421.89 83.1953C1426.64 86.4609 1435.55 88.0938 1448.61 88.0938C1454.55 88.0938 1460.93 87.3516 1467.76 85.8672L1468.2 97.4453C1454.55 98.0391 1447.87 98.3359 1448.16 98.3359C1432.13 98.3359 1421.3 95.9609 1415.66 91.2109C1409.72 86.7578 1406.75 79.4844 1406.75 69.3906ZM1462.41 23.5234L1461.97 33.7656C1456.92 33.4688 1451.73 33.3203 1446.38 33.3203C1435.99 33.3203 1424.41 34.5078 1411.65 36.8828L1410.76 26.6406C1422.63 24.2656 1434.36 23.0781 1445.94 23.0781C1451.88 23.0781 1457.37 23.2266 1462.41 23.5234ZM1386.71 12.3906L1398.29 15.5078C1395.32 31.2422 1393.54 40.8906 1392.95 44.4531C1392.05 53.6562 1391.61 61.6719 1391.61 68.5C1391.61 80.375 1392.65 91.5078 1394.73 101.898L1383.59 104.57C1383.3 99.2266 1382.93 94.9219 1382.48 91.6562C1382.04 88.3906 1381.66 85.4219 1381.37 82.75C1381.07 80.375 1380.92 75.7734 1380.92 68.9453C1380.92 51.7266 1382.85 32.875 1386.71 12.3906ZM1493.14 29.3125L1496.7 12.3906L1508.28 16.3984C1503.23 35.1016 1500.71 51.2812 1500.71 64.9375C1500.71 74.7344 1501.9 87.2031 1504.27 102.344L1493.14 105.016C1491.06 91.3594 1490.02 79.0391 1490.02 68.0547C1490.02 54.3984 1491.06 41.4844 1493.14 29.3125ZM1552.81 81.8594C1547.47 80.9688 1543.46 80.5234 1540.79 80.5234C1536.34 80.5234 1532.92 81.2656 1530.55 82.75C1528.77 83.6406 1527.88 84.9766 1527.88 86.7578C1527.88 88.8359 1528.91 90.4688 1530.99 91.6562C1533.37 93.4375 1536.63 94.3281 1540.79 94.3281C1545.24 94.3281 1548.36 93.4375 1550.14 91.6562C1551.92 90.1719 1552.81 86.9062 1552.81 81.8594ZM1562.16 31.5391C1565.13 30.9453 1570.77 29.3125 1579.09 26.6406L1579.53 37.3281C1570.62 39.4062 1564.84 40.5938 1562.16 40.8906C1561.87 48.6094 1562.02 60.3359 1562.61 76.0703C1568.84 78.4453 1576.41 82.75 1585.32 88.9844L1578.2 97.8906C1573.15 93.7344 1568.1 90.0234 1563.05 86.7578C1562.76 92.3984 1561.27 96.5547 1558.6 99.2266C1555.63 101.898 1550.44 103.234 1543.02 103.234C1535.59 103.234 1529.8 101.453 1525.65 97.8906C1521.2 94.3281 1518.97 90.3203 1518.97 85.8672C1518.97 82.0078 1520.75 78.7422 1524.31 76.0703C1527.88 73.3984 1533.66 72.0625 1541.68 72.0625C1542.87 72.0625 1546.43 72.3594 1552.37 72.9531L1551.48 42.2266C1544.35 42.8203 1537.97 43.1172 1532.33 43.1172C1528.77 43.1172 1524.31 42.8203 1518.97 42.2266V31.9844C1529.36 32.875 1535.89 33.3203 1538.56 33.3203C1543.61 33.3203 1547.91 33.1719 1551.48 32.875L1551.03 27.0859V10.6094H1562.61C1562.31 14.7656 1562.16 21.7422 1562.16 31.5391Z" fill="#FF2D2D" fill-opacity="0.4"/>
</svg>
