<svg width="1641" height="104" viewBox="0 0 1641 104" fill="none" xmlns="http://www.w3.org/2000/svg">
<path d="M30.9453 47.7422V37.8594H100.125V47.7422H66.1797C62.4557 58.6276 57.4427 71.9479 51.1406 87.7031C60.3073 86.5573 70.763 84.9818 82.5078 82.9766L73.4844 64.9297L82.5078 60.6328C90.2422 74.6693 96.2578 86.987 100.555 97.5859L90.2422 101.883C89.3828 99.0182 88.0938 95.5807 86.375 91.5703L52.8594 97.1562L33.5234 99.7344L30.0859 88.9922L40.8281 88.5625C46.2708 74.526 50.7109 60.9193 54.1484 47.7422H30.9453ZM38.25 19.8125V9.5H91.9609V19.8125H38.25ZM25.3594 27.9766V102.312H15.9062V45.1641C14.1875 47.7422 12.612 50.1055 11.1797 52.2539C9.7474 54.4023 7.88542 57.3385 5.59375 61.0625C4.16146 57.3385 2.44271 54.0443 0.4375 51.1797C5.88021 43.4453 10.3203 35.9974 13.7578 28.8359C16.6224 23.6797 20.4896 14.513 25.3594 1.33594L35.2422 6.0625C31.8047 14.9427 28.5104 22.2474 25.3594 27.9766ZM153.836 87.2734L144.812 88.9922C144.24 86.7005 143.094 79.9688 141.375 68.7969L150.398 67.5078C150.685 73.5234 151.831 80.112 153.836 87.2734ZM119.891 95.4375C116.74 94.5781 113.875 93.5755 111.297 92.4297C113.875 82.1172 115.451 73.8099 116.023 67.5078L125.047 69.2266C123.901 78.3932 122.182 87.1302 119.891 95.4375ZM175.32 16.8047V3.48438H184.773V16.8047H209.266V24.9688H181.766L171.883 45.5938C177.898 45.3073 185.49 44.8776 194.656 44.3047C193.51 42.013 190.932 38.4323 186.922 33.5625L193.797 28.8359C200.099 36.5703 205.542 43.875 210.125 50.75L201.961 55.9062L198.953 51.1797L192.078 51.6094V88.1328C192.078 89.2786 192.365 90.138 192.938 90.7109C193.224 90.9974 193.94 91.1406 195.086 91.1406H198.094C199.526 91.1406 200.529 90.8542 201.102 90.2812C201.674 89.1354 202.247 86.1276 202.82 81.2578C207.69 83.8359 210.841 85.4115 212.273 85.9844C210.555 93.1458 209.122 97.2995 207.977 98.4453C206.831 99.5911 203.823 100.164 198.953 100.164H192.508C188.784 100.164 186.349 99.5911 185.203 98.4453C183.771 97.013 183.055 94.5781 183.055 91.1406V52.8984L174.461 53.7578C174.174 66.9349 173.029 76.5312 171.023 82.5469C169.018 87.9896 166.01 92.2865 162 95.4375C161.714 96.2969 158.849 98.4453 153.406 101.883C152.26 99.5911 150.112 96.8698 146.961 93.7188C152.117 91.4271 155.841 88.9922 158.133 86.4141C160.424 83.8359 162.143 80.3984 163.289 76.1016C164.435 72.6641 165.008 65.5026 165.008 54.6172L155.984 55.4766L152.547 45.5938H162.43C165.294 39.0052 168.159 32.1302 171.023 24.9688H152.547V16.8047H175.32ZM154.695 58.9141L146.531 61.9219L145.242 58.9141L137.938 59.7734V101.883H128.484V60.6328L113.016 61.9219L110.867 52.4688H120.32C120.32 52.1823 122.612 48.0286 127.195 40.0078C125.19 38.5755 119.604 34.5651 110.438 27.9766L114.734 19.8125L119.031 22.8203C121.896 16.8047 124.904 9.78646 128.055 1.76562L137.078 6.49219L126.336 27.1172L131.922 31.4141C134.214 27.4036 137.221 21.6745 140.945 14.2266L150.398 19.3828L130.203 52.0391L142.664 50.75C142.378 49.8906 142.02 49.0312 141.59 48.1719C141.16 47.3125 140.802 46.5247 140.516 45.8086C140.229 45.0924 139.943 44.5911 139.656 44.3047L147.82 41.2969C149.253 44.7344 151.544 50.6068 154.695 58.9141ZM320.984 77.8203L313.68 87.2734C298.211 74.0964 286.466 63.4974 278.445 55.4766C273.862 50.6068 269.279 45.8802 264.695 41.2969C262.977 39.8646 261.258 38.7188 259.539 37.8594C259.253 37.5729 258.68 37.4297 257.82 37.4297C256.961 37.4297 256.388 37.5729 256.102 37.8594C255.242 38.1458 253.667 40.0078 251.375 43.4453C247.078 49.7474 240.919 57.4818 232.898 66.6484L224.305 58.9141C236.622 45.4505 243.784 37.4297 245.789 34.8516C250.086 28.8359 254.096 25.8281 257.82 25.8281C259.539 25.8281 261.258 26.2578 262.977 27.1172C263.836 27.6901 268.276 31.7005 276.297 39.1484C285.75 48.3151 294.773 56.6224 303.367 64.0703C304.799 65.2161 310.672 69.7995 320.984 77.8203ZM375.984 23.6797C364.812 26.2578 356.935 30.5547 352.352 36.5703C347.482 43.1589 345.047 50.6068 345.047 58.9141C345.047 65.5026 346.336 70.8021 348.914 74.8125C350.346 77.3906 352.065 78.6797 354.07 78.6797C355.216 78.6797 356.219 78.1068 357.078 76.9609C359.656 74.3828 363.094 67.7943 367.391 57.1953C371.401 46.3099 374.266 35.138 375.984 23.6797ZM384.578 98.875C383.146 94.8646 381.57 91.5703 379.852 88.9922C389.878 86.7005 396.323 84.6953 399.188 82.9766C404.344 80.3984 408.497 76.6745 411.648 71.8047C414.799 66.9349 416.375 60.9193 416.375 53.7578C416.375 44.5911 413.797 37.2865 408.641 31.8438C402.911 26.1146 395.464 23.1068 386.297 22.8203C382.859 41.1536 379.422 54.3307 375.984 62.3516C371.401 73.237 366.674 81.1146 361.805 85.9844C359.799 88.5625 357.078 89.8516 353.641 89.8516C349.344 89.8516 345.477 87.5599 342.039 82.9766C337.456 76.6745 335.164 68.7969 335.164 59.3438C335.164 46.7396 339.747 36.1406 348.914 27.5469C358.081 18.9531 370.112 14.6562 385.008 14.6562C392.456 14.6562 399.76 16.375 406.922 19.8125C411.792 21.8177 415.659 24.3958 418.523 27.5469C421.388 30.6979 423.68 34.5651 425.398 39.1484C426.831 44.3047 427.547 49.0312 427.547 53.3281C427.547 61.9219 425.542 69.513 421.531 76.1016C418.094 82.1172 412.651 87.1302 405.203 91.1406C400.62 94.2917 393.745 96.8698 384.578 98.875ZM520.359 64.0703V58.0547H462.352V64.0703H520.359ZM475.242 33.9922H462.352V52.8984H520.359V33.9922H502.742V40.0078C502.742 40.8672 502.885 41.4401 503.172 41.7266C503.458 42.013 504.461 42.1562 506.18 42.1562C507.898 42.1562 508.901 42.013 509.188 41.7266C510.047 40.8672 510.62 39.2917 510.906 37C512.911 38.4323 515.203 39.7214 517.781 40.8672C516.635 43.7318 515.49 45.737 514.344 46.8828C513.198 47.7422 511.193 48.1719 508.328 48.1719H503.172C499.734 48.1719 497.443 47.599 496.297 46.4531C494.865 45.0208 494.148 43.4453 494.148 41.7266V33.9922H484.266C483.406 37.4297 481.831 40.5807 479.539 43.4453C477.247 46.3099 473.81 48.7448 469.227 50.75C467.794 48.7448 465.932 46.4531 463.641 43.875C467.078 42.7292 469.943 41.2969 472.234 39.5781C473.953 37.8594 474.956 35.9974 475.242 33.9922ZM494.148 27.1172V21.1016H485.555V27.1172H494.148ZM481.258 10.7891L477.391 13.3672H500.594L507.039 1.33594L516.492 5.63281L510.906 13.3672H540.125V21.1016H502.742V27.1172H530.242V70.5156H517.352V76.1016H540.555V83.8359H517.352V93.2891C517.352 96.1536 516.635 98.3021 515.203 99.7344C513.198 101.167 508.185 102.169 500.164 102.742C499.591 99.5911 498.732 96.7266 497.586 94.1484H505.75H507.039C507.326 93.862 507.469 93.2891 507.469 92.4297V83.8359H471.375C477.104 88.1328 480.542 90.8542 481.688 92L475.242 98.4453C471.518 94.7214 467.508 91.1406 463.211 87.7031L467.078 83.8359H443.445V76.1016H507.469V70.5156H452.898V27.1172H476.961V21.1016H444.305V13.3672H472.664L466.648 6.0625L473.094 0.90625C475.099 2.91146 477.82 6.20573 481.258 10.7891ZM596.414 62.3516V55.9062H574.93V62.3516H596.414ZM628.211 62.3516V55.9062H607.156V62.3516H628.211ZM596.414 49.0312V43.4453H574.93V49.0312H596.414ZM628.211 49.0312V43.4453H607.156V49.0312H628.211ZM626.062 14.2266L607.156 15.9453V21.9609H649.695V30.125H607.156V36.1406H638.523V70.5156H607.156V76.5312H641.961V84.2656H607.156V91.5703H649.695V99.7344H553.875V91.5703H596.414V84.2656H562.469V76.5312H596.414V70.5156H565.047V36.1406H596.414V30.125H553.445V21.9609H596.414V16.8047C583.523 17.6641 572.352 18.0938 562.898 18.0938C561.18 14.0833 559.891 11.2188 559.031 9.5C585.385 9.5 610.594 7.35156 634.656 3.05469L640.242 12.5078C637.951 12.7943 633.224 13.3672 626.062 14.2266ZM710.281 45.1641C715.151 43.4453 726.753 39.7214 745.086 33.9922L748.953 44.7344C726.896 49.8906 713.719 53.4714 709.422 55.4766C698.823 59.487 691.661 63.4974 687.938 67.5078C685.073 70.3724 683.641 73.5234 683.641 76.9609C683.641 80.9714 685.503 83.9792 689.227 85.9844C694.096 88.5625 703.979 89.8516 718.875 89.8516C726.609 89.8516 731.766 89.7083 734.344 89.4219C738.927 89.4219 744.227 88.849 750.242 87.7031L750.672 98.4453C735.203 99.3047 725.607 99.7344 721.883 99.7344C708.133 99.7344 697.534 98.4453 690.086 95.8672C683.784 93.5755 679.63 90.8542 677.625 87.7031C675.047 84.2656 673.758 80.8281 673.758 77.3906C673.758 72.2344 675.763 67.2214 679.773 62.3516C683.784 57.4818 691.089 52.7552 701.688 48.1719C701.115 45.5938 700.398 41.0104 699.539 34.4219C698.966 30.4115 698.68 25.3984 698.68 19.3828C698.68 14.513 698.823 10.3594 699.109 6.92188L710.711 6.49219C709.852 16.8047 709.422 25.3984 709.422 32.2734C709.422 33.4193 709.708 37.7161 710.281 45.1641ZM770.008 96.7266L787.625 62.3516C790.203 64.9297 793.211 66.9349 796.648 68.3672C791.492 78.6797 785.763 89.9948 779.461 102.312L770.008 96.7266ZM791.492 41.2969L785.477 50.3203C778.029 44.8776 773.159 41.5833 770.867 40.4375L777.312 31.8438C779.891 33.276 784.617 36.4271 791.492 41.2969ZM776.453 13.3672L782.898 5.63281C790.346 11.0755 795.073 14.7995 797.078 16.8047L790.633 24.9688C783.758 18.9531 779.031 15.0859 776.453 13.3672ZM826.727 22.8203V4.34375H837.039V22.8203H862.391V31.4141H837.039V48.6016H868.836V57.625H846.062V89.8516C846.062 90.4245 846.349 90.9974 846.922 91.5703C847.208 91.8568 848.068 92 849.5 92H855.516H858.523C859.669 91.4271 860.385 90.9974 860.672 90.7109C861.531 88.4193 862.247 85.125 862.82 80.8281C864.253 81.6875 865.828 82.4036 867.547 82.9766C870.984 84.1224 872.703 84.6953 872.703 84.6953C871.557 90.4245 870.125 94.7214 868.406 97.5859C868.12 98.7318 867.404 99.5911 866.258 100.164C864.539 100.737 861.674 101.023 857.664 101.023H848.641C843.771 101.023 840.62 100.307 839.188 98.875C837.469 97.7292 836.609 95.5807 836.609 92.4297V57.625H825.008C824.721 65.0729 823.862 71.2318 822.43 76.1016C821.284 80.3984 819.565 84.1224 817.273 87.2734C814.982 90.4245 811.688 93.7188 807.391 97.1562C806.245 97.7292 805.385 98.2305 804.812 98.6602C804.24 99.0898 803.309 99.7344 802.02 100.594C800.73 101.453 799.37 102.312 797.938 103.172V102.742C796.792 100.737 795.789 99.3047 794.93 98.4453C793.497 97.013 792.065 95.8672 790.633 95.0078C797.794 91.5703 802.951 88.276 806.102 85.125C808.966 82.2604 811.115 78.9661 812.547 75.2422C813.693 72.3776 814.552 66.5052 815.125 57.625H795.359V48.6016H826.727V31.4141H809.539C806.674 36.8568 804.096 41.0104 801.805 43.875L793.641 38.2891C797.651 32.8464 800.516 28.5495 802.234 25.3984C804.24 21.9609 806.388 16.2318 808.68 8.21094L817.273 11.6484L813.836 22.8203H826.727ZM921.258 82.5469L912.664 84.2656C910.945 77.9635 909.656 72.2344 908.797 67.0781L916.961 65.7891C918.68 73.237 920.112 78.8229 921.258 82.5469ZM888.602 95.0078C887.169 93.862 884.448 92.4297 880.438 90.7109C882.729 83.8359 884.018 79.5391 884.305 77.8203C884.878 74.9557 885.451 70.9453 886.023 65.7891L895.047 67.0781C893.615 74.526 892.827 79.0378 892.684 80.6133C892.54 82.1888 892.182 83.6927 891.609 85.125C891.323 87.1302 890.32 90.4245 888.602 95.0078ZM944.461 58.0547V50.3203H932.43V58.0547H944.461ZM966.805 58.0547V50.3203H954.344V58.0547H966.805ZM944.461 44.3047V38.2891H932.43V44.3047H944.461ZM966.805 44.3047V38.2891H954.344V44.3047H966.805ZM944.461 15.0859V3.91406H954.344V15.0859H979.266V23.6797H954.344V30.9844H976.258V64.9297H958.641C961.792 70.3724 965.372 75.2422 969.383 79.5391C974.253 84.4089 978.836 87.9896 983.133 90.2812C981.128 91.7135 978.693 94.1484 975.828 97.5859C972.104 95.0078 968.237 91.7135 964.227 87.7031C961.648 84.8385 958.354 80.6849 954.344 75.2422V102.312H944.461V75.2422C936.727 84.4089 928.706 92 920.398 98.0156C917.82 94.5781 915.385 92 913.094 90.2812C920.255 85.6979 925.984 81.5443 930.281 77.8203C934.005 74.0964 937.729 69.7995 941.453 64.9297H923.836V30.9844H944.461V23.6797H921.688V15.0859H944.461ZM922.547 58.0547L914.383 60.6328L913.523 58.0547C911.518 58.3411 909.37 58.4844 907.078 58.4844V102.742H897.195V59.3438L882.156 61.0625L881.727 51.6094H890.75L898.055 39.5781C892.898 36.1406 887.169 32.4167 880.867 28.4062L885.164 20.2422L890.75 23.25C893.328 17.2344 896.336 10.3594 899.773 2.625L908.367 7.35156L897.625 27.9766L902.781 31.4141L911.805 14.6562L920.398 19.8125L901.062 51.1797C907.078 51.1797 910.659 51.0365 911.805 50.75L908.797 43.0156L916.961 40.4375C918.393 44.4479 920.255 50.3203 922.547 58.0547ZM1048.88 25.3984C1054.89 23.9661 1063.77 21.2448 1075.52 17.2344L1078.52 26.6875C1067.92 30.4115 1059.33 32.8464 1052.74 33.9922C1057.9 43.4453 1065.35 52.612 1075.09 61.4922L1069.5 69.2266C1063.2 66.6484 1058.47 64.9297 1055.32 64.0703C1050.74 63.4974 1046.58 63.2109 1042.86 63.2109C1032.26 63.2109 1024.53 64.7865 1019.66 67.9375C1016.51 70.2292 1014.93 72.9505 1014.93 76.1016C1014.93 78.9661 1016.51 81.5443 1019.66 83.8359C1025.39 87.2734 1033.84 88.9922 1045.01 88.9922C1051.88 88.9922 1060.76 88.276 1071.65 86.8438L1072.08 96.7266C1063.2 97.8724 1055.32 98.4453 1048.45 98.4453C1032.4 98.4453 1020.66 96.0104 1013.21 91.1406C1007.77 87.4167 1005.05 82.4036 1005.05 76.1016C1005.05 70.3724 1007.91 65.3594 1013.64 61.0625C1019.37 57.0521 1028.68 55.0469 1041.57 55.0469C1042.72 55.0469 1047.87 55.3333 1057.04 55.9062C1052.17 50.4635 1047.44 43.7318 1042.86 35.7109C1031.97 37.1432 1023.52 37.8594 1017.51 37.8594C1015.79 37.8594 1010.92 37.5729 1002.9 37L1003.33 27.1172C1010.78 27.9766 1016.51 28.4062 1020.52 28.4062C1026.53 28.4062 1032.55 27.9766 1038.56 27.1172C1035.12 20.5286 1032.69 14.3698 1031.26 8.64062L1042 6.0625C1044.29 14.0833 1046.58 20.5286 1048.88 25.3984ZM1136.1 6.0625L1134.81 24.5391L1138.68 22.8203L1142.55 29.6953C1139.11 32.5599 1136.24 35.2812 1133.95 37.8594V43.875C1145.7 34.4219 1154.15 28.263 1159.3 25.3984C1163.89 23.1068 1167.61 21.9609 1170.48 21.9609C1174.77 21.9609 1178.07 23.1068 1180.36 25.3984C1182.65 28.263 1183.8 31.987 1183.8 36.5703C1183.8 42.013 1183.65 48.0286 1183.37 54.6172C1182.51 68.6536 1182.08 75.9583 1182.08 76.5312C1182.08 79.6823 1182.51 81.974 1183.37 83.4062C1183.65 84.5521 1184.51 85.125 1185.95 85.125C1187.09 85.125 1188.09 84.5521 1188.95 83.4062C1189.53 82.5469 1190.53 78.5365 1191.96 71.375C1195.4 73.9531 1198.69 75.3854 1201.84 75.6719C1200.12 83.6927 1197.98 88.9922 1195.4 91.5703C1192.82 94.1484 1189.67 95.4375 1185.95 95.4375C1181.65 95.4375 1178.21 94.0052 1175.63 91.1406C1173.05 87.9896 1171.77 83.4062 1171.77 77.3906C1171.77 71.6615 1171.91 66.0755 1172.2 60.6328C1173.05 48.0286 1173.48 41.4401 1173.48 40.8672C1173.48 37.1432 1172.91 34.7083 1171.77 33.5625C1170.62 32.4167 1169.19 31.8438 1167.47 31.8438C1165.46 31.8438 1163.17 32.7031 1160.59 34.4219C1155.15 37.8594 1146.13 44.8776 1133.52 55.4766V72.6641L1133.95 99.3047H1123.64L1124.07 64.9297L1106.88 82.9766L1100.87 73.9531L1124.07 52.4688L1124.5 36.5703C1117.62 38.2891 1111.9 39.4349 1107.31 40.0078L1106.45 30.125C1110.75 29.8385 1116.91 28.9792 1124.93 27.5469V5.63281L1136.1 6.0625ZM1249.54 70.0859L1258.99 70.9453C1258.99 75.8151 1259.14 78.3932 1259.42 78.6797C1259.99 80.112 1260.85 81.6875 1262 83.4062C1263.43 84.5521 1265.58 85.4115 1268.45 85.9844C1272.17 87.1302 1278.18 87.7031 1286.49 87.7031C1291.93 87.7031 1298.81 87.1302 1307.12 85.9844V96.2969C1297.38 97.1562 1291.51 97.5859 1289.5 97.5859C1279.19 97.5859 1271.45 96.8698 1266.3 95.4375C1260.85 94.0052 1257.13 92.1432 1255.12 89.8516C1252.83 87.5599 1251.26 85.125 1250.4 82.5469C1249.54 79.6823 1249.25 75.5286 1249.54 70.0859ZM1303.25 37.8594L1302.82 47.7422C1297.38 47.4557 1292.22 47.3125 1287.35 47.3125C1283.91 47.3125 1281.19 47.4557 1279.19 47.7422C1278.61 47.7422 1276.54 47.8854 1272.96 48.1719C1269.38 48.4583 1265.01 49.0312 1259.85 49.8906L1258.13 40.4375C1263 39.5781 1267.23 39.0052 1270.81 38.7188C1274.39 38.4323 1276.61 38.2891 1277.47 38.2891C1286.06 37.7161 1294.66 37.5729 1303.25 37.8594ZM1251.26 25.8281C1258.71 24.6823 1266.58 22.9635 1274.89 20.6719L1275.32 30.5547C1265.87 32.8464 1256.84 34.4219 1248.25 35.2812C1242.81 53.901 1234.36 75.2422 1222.9 99.3047L1213.45 95.0078C1217.74 86.4141 1221.75 77.9635 1225.48 69.6562C1226.91 65.6458 1228.77 60.5612 1231.06 54.4023C1233.35 48.2435 1235.5 42.1562 1237.51 36.1406C1227.48 36.7135 1221.32 36.8568 1219.03 36.5703L1219.46 26.6875C1227.77 27.2604 1234.79 27.4036 1240.52 27.1172C1242.23 21.388 1243.95 14.513 1245.67 6.49219L1256.84 9.92969C1255.98 12.7943 1255.12 15.444 1254.27 17.8789C1253.41 20.3138 1252.4 22.9635 1251.26 25.8281ZM1334.19 30.5547V19.8125H1408.09V30.5547H1376.3V77.3906H1417.55V88.1328H1324.3V77.3906H1365.12V30.5547H1334.19ZM1450.63 87.7031V10.3594H1462.23V81.2578C1475.41 75.2422 1485.58 69.3698 1492.74 63.6406C1502.48 55.9062 1511.93 45.8802 1521.1 33.5625C1523.39 36.4271 1525.97 39.0052 1528.84 41.2969C1518.81 54.1875 1509.5 64.0703 1500.91 70.9453C1493.46 76.9609 1481.71 84.2656 1465.67 92.8594C1462.23 94.2917 1459.66 95.724 1457.94 97.1562L1449.77 89.8516L1450.63 87.7031ZM1613.05 16.8047L1617.78 11.2188C1618.35 11.5052 1619.93 12.7943 1622.51 15.0859C1625.09 17.3776 1627.66 19.8125 1630.24 22.3906L1624.66 27.5469C1623.8 26.6875 1622.36 25.3268 1620.36 23.4648C1618.35 21.6029 1615.92 19.3828 1613.05 16.8047ZM1579.11 40.8672H1552.9V30.9844H1579.97V7.78125H1592L1591.57 30.9844H1626.38C1625.8 49.3177 1625.09 62.9245 1624.23 71.8047C1623.37 81.5443 1622.36 87.7031 1621.22 90.2812C1621.22 90.5677 1620.22 91.7135 1618.21 93.7188C1615.35 95.4375 1608.47 96.5833 1597.59 97.1562C1597.3 95.151 1596.3 91.4271 1594.58 85.9844H1607.04C1609.33 85.9844 1610.76 84.4089 1611.34 81.2578C1613.34 71.2318 1614.49 57.7682 1614.77 40.8672H1590.71C1588.99 52.612 1586.7 61.4922 1583.84 67.5078C1580.97 73.5234 1577.1 79.2526 1572.23 84.6953C1567.65 90.138 1560.78 95.4375 1551.61 100.594C1549.03 96.5833 1546.31 93.5755 1543.45 91.5703C1552.33 86.7005 1558.91 82.1172 1563.21 77.8203C1568.08 72.9505 1571.52 67.9375 1573.52 62.7812C1576.1 56.4792 1577.96 49.1745 1579.11 40.8672ZM1640.12 12.0781L1634.54 17.6641C1632.53 15.6589 1630.24 13.5104 1627.66 11.2188C1625.09 8.92708 1623.22 7.49479 1622.08 6.92188L1627.23 1.33594C1628.09 1.90885 1632.39 5.48958 1640.12 12.0781Z" fill="#FF2D2D" fill-opacity="0.4"/>
</svg>
