<svg width="1623" height="103" viewBox="0 0 1623 103" fill="none" xmlns="http://www.w3.org/2000/svg">
<path d="M78.5312 29.125C79.3906 30.5573 80.5365 31.9896 81.9688 33.4219C82.8281 34.5677 84.4036 35.8568 86.6953 37.2891C77.2422 48.7474 69.9375 56.7682 64.7812 61.3516C57.9062 67.6536 49.7422 73.9557 40.2891 80.2578C30.5495 86.2734 19.3776 92.1458 6.77344 97.875L0.757812 85.8438C10.4974 82.6927 17.6589 79.8281 22.2422 77.25C31.9818 72.0938 39 67.9401 43.2969 64.7891C49.8854 59.9193 55.901 54.763 61.3438 49.3203C67.6458 43.0182 73.375 36.2865 78.5312 29.125ZM33.8438 29.5547L26.1094 38.5781C19.8073 32.849 15.5104 29.125 13.2188 27.4062C12.6458 26.8333 11.6432 26.0456 10.2109 25.043C8.77865 24.0404 7.20312 22.9661 5.48438 21.8203C3.76562 20.6745 2.33333 19.6719 1.1875 18.8125L8.0625 10.2188C11.2135 11.9375 14.0065 13.6562 16.4414 15.375C18.8763 17.0938 20.5234 18.2396 21.3828 18.8125C27.112 23.3958 31.2656 26.9766 33.8438 29.5547ZM112.047 16.2344H170.914L172.203 15.8047L179.508 23.1094L167.906 43.3047C166.76 45.3099 164.326 48.7474 160.602 53.6172C169.482 62.2109 175.641 68.3698 179.078 72.0938C181.37 74.3854 186.383 80.2578 194.117 89.7109L184.234 97.4453C180.51 91.7161 177.073 86.9896 173.922 83.2656C167.047 75.2448 160.458 68.0833 154.156 61.7812C144.99 71.5208 137.828 78.2526 132.672 81.9766C124.651 87.9922 116.63 92.862 108.609 96.5859C108.036 95.4401 106.891 93.5781 105.172 91C104.599 90.4271 104.098 89.7826 103.668 89.0664C103.238 88.3503 102.307 87.5625 100.875 86.7031C116.057 80.1146 128.375 72.5234 137.828 63.9297C146.422 55.9089 155.589 43.3047 165.328 26.1172H112.047V16.2344ZM286.07 71.2344C286.07 65.7917 285.927 62.6406 285.641 61.7812C289.651 62.3542 291.513 62.6406 291.227 62.6406C291.799 62.6406 292.372 62.3542 292.945 61.7812C293.232 61.4948 293.375 60.7786 293.375 59.6328C293.375 51.8984 287.216 41.013 274.898 26.9766L280.914 20.9609C290.367 31.2734 296.383 38.8646 298.961 43.7344C302.685 50.8958 304.547 57.0547 304.547 62.2109C304.547 65.6484 303.688 68.0833 301.969 69.5156C299.964 71.2344 296.24 72.0938 290.797 72.0938C290.51 72.0938 288.935 71.8073 286.07 71.2344ZM283.492 18.3828L288.648 12.7969C290.94 14.5156 293.303 16.4492 295.738 18.5977C298.173 20.7461 300.107 22.5365 301.539 23.9688L295.953 29.5547C292.516 25.8307 288.362 22.1068 283.492 18.3828ZM243.102 5.49219L254.703 8.5L249.117 25.6875H255.992C262.008 25.6875 266.448 27.4062 269.312 30.8438C272.177 33.9948 273.609 39.151 273.609 46.3125C273.609 52.6146 272.32 60.7786 269.742 70.8047C266.591 81.1172 263.44 88.4219 260.289 92.7188C257.711 95.8698 254.846 97.4453 251.695 97.4453C249.69 97.4453 247.398 96.5859 244.82 94.8672C241.669 92.2891 238.375 88.8516 234.938 84.5547C237.802 82.263 239.951 79.8281 241.383 77.25C244.82 82.9792 247.542 85.8438 249.547 85.8438C252.125 85.8438 254.846 82.263 257.711 75.1016C261.721 63.9297 263.727 54.1901 263.727 45.8828C263.727 41.013 263.154 37.862 262.008 36.4297C260.576 34.9974 258.284 34.2812 255.133 34.2812C251.695 34.2812 248.544 34.4245 245.68 34.7109C238.518 55.9089 229.638 76.3906 219.039 96.1562L209.156 91C214.312 82.6927 219.039 74.099 223.336 65.2188C226.487 58.6302 230.354 49.1771 234.938 36.8594C228.349 38.0052 222.333 39.4375 216.891 41.1562L215.602 29.9844C217.32 29.9844 224.768 28.9818 237.945 26.9766L241.383 14.5156C241.669 13.0833 242.027 11.5078 242.457 9.78906C242.887 8.07031 243.102 6.63802 243.102 5.49219ZM292.945 8.07031L298.102 2.48438C302.971 6.20833 307.268 9.78906 310.992 13.2266L305.406 19.2422C301.396 15.2318 297.242 11.5078 292.945 8.07031ZM362.555 32.5625H403.805L404.664 32.1328L411.109 39.4375C407.672 42.3021 401.513 47.6016 392.633 55.3359V61.7812H417.555V70.375H392.633V90.1406C392.633 93.5781 391.773 95.8698 390.055 97.0156C388.622 98.4479 384.039 99.8802 376.305 101.312C375.159 97.0156 373.727 93.2917 372.008 90.1406H381.031C381.604 90.1406 382.034 89.9974 382.32 89.7109C382.607 89.4245 382.75 88.9948 382.75 88.4219V70.375H354.82V61.7812H382.75V50.1797H385.328C386.76 49.0339 387.763 48.1745 388.336 47.6016C388.909 47.0286 390.771 45.1667 393.922 42.0156H362.555V32.5625ZM369.859 14.0859H417.555V23.9688H364.703C360.693 30.8438 354.964 38.8646 347.516 48.0312V100.023H337.203V58.3438C332.047 63.7865 328.18 67.5104 325.602 69.5156C324.456 68.0833 322.021 65.5052 318.297 61.7812C325.745 56.3385 332.047 50.6094 337.203 44.5938V38.5781H342.359C345.51 34.8542 348.948 29.9844 352.672 23.9688H321.734V14.0859H358.258C359.404 12.0807 361.122 7.92708 363.414 1.625L373.297 5.92188C373.297 5.92188 372.151 8.64323 369.859 14.0859ZM488.023 51.4688V32.1328H498.336V51.4688H522.828V60.4922H498.336V88.4219H527.125V97.875H461.383V88.4219H488.023V60.4922H465.68V51.4688H488.023ZM475.992 17.0938H525.406V26.1172H471.266C466.682 33.5651 464.247 37.5755 463.961 38.1484C463.674 38.4349 461.383 41.4427 457.086 47.1719V101.312H446.773V59.2031C445.055 61.4948 443.121 63.5716 440.973 65.4336C438.824 67.2956 436.747 69.2292 434.742 71.2344C432.451 67.7969 430.159 65.2188 427.867 63.5C436.461 55.7656 442.333 50.0365 445.484 46.3125C448.062 43.4479 452.646 36.7161 459.234 26.1172H431.305V17.0938H464.82C466.826 13.0833 468.258 10.0039 469.117 7.85547C469.977 5.70703 470.979 3.34375 472.125 0.765625L482.008 4.63281C479.43 10.6484 477.424 14.8021 475.992 17.0938ZM625.094 54.9062C628.531 57.7708 631.539 59.776 634.117 60.9219C628.674 69.5156 623.948 76.1042 619.938 80.6875C615.354 85.2708 610.055 88.9948 604.039 91.8594C597.164 95.0104 590.432 96.5859 583.844 96.5859C574.964 96.5859 568.232 93.8646 563.648 88.4219C560.211 84.125 558.492 76.3906 558.492 65.2188L559.781 8.92969L572.242 9.35938C569.951 33.7083 568.805 52.0417 568.805 64.3594C568.805 72.9531 569.664 78.3958 571.383 80.6875C573.961 84.6979 578.401 86.7031 584.703 86.7031C600.745 86.7031 614.208 76.1042 625.094 54.9062ZM745.836 12.3672L746.266 22.6797L720.484 24.3984C713.609 28.9818 708.453 33.1354 705.016 36.8594C701.578 41.1562 699.143 45.0234 697.711 48.4609C695.706 52.4714 694.703 56.3385 694.703 60.0625C694.703 65.5052 696.135 70.0885 699 73.8125C702.151 77.8229 706.018 80.6875 710.602 82.4062C715.185 84.4115 721.917 85.7005 730.797 86.2734L730.367 97.4453C720.341 96.2995 712.464 94.5807 706.734 92.2891C699.286 88.8516 693.844 84.5547 690.406 79.3984C686.682 74.8151 684.82 68.9427 684.82 61.7812C684.82 56.0521 686.109 50.4661 688.688 45.0234C690.693 39.8672 695.276 33.5651 702.438 26.1172L683.102 28.2656L653.023 32.1328L652.164 20.9609C675.94 19.8151 707.164 16.9505 745.836 12.3672ZM823.609 21.8203L832.633 17.0938C838.935 26.5469 843.518 35.1406 846.383 42.875C849.82 52.3281 852.542 62.9271 854.547 74.6719L843.375 78.1094C841.656 65.5052 839.078 54.1901 835.641 44.1641C833.349 37.862 829.339 30.4141 823.609 21.8203ZM793.961 63.9297C796.253 66.2214 798.974 68.2266 802.125 69.9453C798.115 80.8307 794.534 87.9922 791.383 91.4297C789.951 92.862 788.232 93.5781 786.227 93.5781C784.508 93.5781 782.646 92.5755 780.641 90.5703C777.203 86.8464 774.482 81.8333 772.477 75.5312C769.898 67.224 768.609 58.487 768.609 49.3203C768.609 39.0078 769.898 26.8333 772.477 12.7969L784.078 15.375C782.073 21.9635 780.641 27.8359 779.781 32.9922C778.922 39.0078 778.492 45.3099 778.492 51.8984C778.492 58.2005 779.352 63.9297 781.07 69.0859C782.216 74.2422 783.505 77.5365 784.938 78.9688C785.224 79.2552 785.51 79.3984 785.797 79.3984C786.37 79.3984 787.086 78.9688 787.945 78.1094C789.664 75.2448 791.669 70.5182 793.961 63.9297ZM915.133 81.1172V76.3906C911.982 76.1042 908.401 75.9609 904.391 75.9609C899.521 75.9609 895.797 76.8203 893.219 78.5391C891.214 80.2578 890.211 82.1198 890.211 84.125C890.211 85.8438 891.214 87.276 893.219 88.4219C896.083 90.4271 899.664 91.4297 903.961 91.4297C907.971 91.4297 910.836 90.5703 912.555 88.8516C914.273 87.4193 915.133 84.8411 915.133 81.1172ZM925.016 21.3906C932.464 21.1042 937.763 20.6745 940.914 20.1016C944.352 19.5286 947.288 18.9557 949.723 18.3828C952.158 17.8099 954.807 17.237 957.672 16.6641L958.102 27.4062C950.081 28.5521 938.909 29.8411 924.586 31.2734V45.4531C934.612 45.1667 944.065 44.0208 952.945 42.0156L953.375 51.8984L938.336 53.6172L924.586 54.0469C924.586 61.4948 924.729 66.7943 925.016 69.9453C932.464 71.9505 938.909 74.099 944.352 76.3906C950.081 79.2552 955.953 82.6927 961.969 86.7031L955.094 95.2969C948.505 90.7135 944.352 87.849 942.633 86.7031C939.195 84.6979 933.323 82.1198 925.016 78.9688C925.016 85.2708 924.729 89.2812 924.156 91C923.297 93.2917 921.578 95.0104 919 96.1562C914.99 98.4479 909.977 99.5938 903.961 99.5938C896.227 99.5938 890.354 98.0182 886.344 94.8672C882.333 91.7161 880.328 87.9922 880.328 83.6953C880.328 79.3984 882.047 75.8177 885.484 72.9531C890.068 69.2292 896.799 67.3672 905.68 67.3672C907.112 67.3672 910.12 67.6536 914.703 68.2266V54.4766C900.953 54.4766 892.789 53.9036 890.211 52.7578C885.628 50.4661 883.193 45.5964 882.906 38.1484L892.789 37.7188C893.362 40.5833 893.935 42.4453 894.508 43.3047C894.794 44.1641 895.94 44.8802 897.945 45.4531C900.523 46.026 906.109 46.1693 914.703 45.8828V31.2734C901.24 31.2734 892.932 31.1302 889.781 30.8438C886.057 30.8438 881.76 30.2708 876.891 29.125L878.18 19.2422C881.617 20.1016 886.773 20.8177 893.648 21.3906C899.951 21.9635 906.969 22.25 914.703 22.25L914.273 4.63281L926.734 5.0625C926.734 6.20833 926.591 7.64062 926.305 9.35938C926.018 11.0781 925.803 12.8685 925.66 14.7305C925.517 16.5924 925.302 18.8125 925.016 21.3906ZM1029.43 56.625C1028.28 52.3281 1026.85 49.3203 1025.13 47.6016C1023.7 46.1693 1022.27 45.4531 1020.84 45.4531C1018.26 45.4531 1016.4 46.4557 1015.25 48.4609C1013.53 50.4661 1012.67 52.901 1012.67 55.7656C1012.67 59.2031 1013.53 62.0677 1015.25 64.3594C1016.4 66.3646 1018.11 67.3672 1020.41 67.3672C1022.41 67.3672 1024.27 66.5078 1025.99 64.7891C1028 62.7839 1029.14 60.0625 1029.43 56.625ZM1039.74 21.3906C1046.62 21.1042 1053.71 20.7461 1061.01 20.3164C1068.32 19.8867 1073.4 19.6719 1076.27 19.6719V29.9844H1039.74V61.7812C1040.32 68.3698 1040.32 72.5234 1039.74 74.2422C1039.46 76.5339 1038.45 79.3984 1036.73 82.8359C1034.73 86.5599 1031.15 89.9974 1025.99 93.1484C1021.41 96.5859 1014.68 99.5938 1005.8 102.172C1004.36 98.4479 1002.65 95.1536 1000.64 92.2891C1010.67 90.5703 1018.26 87.7057 1023.41 83.6953C1027.71 79.9714 1030.29 74.9583 1031.15 68.6562C1028.57 71.2344 1026.42 72.9531 1024.7 73.8125C1023.56 74.6719 1021.7 75.1016 1019.12 75.1016C1015.39 75.1016 1011.96 73.3828 1008.8 69.9453C1005.65 66.2214 1004.08 61.9245 1004.08 57.0547C1004.08 51.3255 1005.8 46.599 1009.23 42.875C1012.39 39.4375 1015.82 37.7188 1019.55 37.7188C1023.27 37.7188 1026.85 39.724 1030.29 43.7344L1029.86 30.4141L982.594 33.8516L982.164 23.5391L1029.86 21.8203L1029.43 2.48438H1040.6C1040.03 10.5052 1039.74 16.8073 1039.74 21.3906ZM1104.2 78.9688C1102.19 78.9688 1100.47 79.6849 1099.04 81.1172C1097.32 82.8359 1096.46 84.6979 1096.46 86.7031C1096.46 88.9948 1097.32 90.8568 1099.04 92.2891C1100.47 93.7214 1102.19 94.4375 1104.2 94.4375C1106.49 94.4375 1108.35 93.7214 1109.78 92.2891C1111.21 90.8568 1111.93 88.9948 1111.93 86.7031C1111.93 84.9844 1111.21 83.1224 1109.78 81.1172C1108.35 79.6849 1106.49 78.9688 1104.2 78.9688ZM1104.2 72.0938C1108.21 72.0938 1111.64 73.526 1114.51 76.3906C1117.37 79.2552 1118.8 82.6927 1118.8 86.7031C1118.8 90.7135 1117.37 94.151 1114.51 97.0156C1111.64 99.8802 1108.21 101.312 1104.2 101.312C1100.18 101.312 1096.75 99.8802 1093.88 97.0156C1091.02 94.151 1089.59 90.7135 1089.59 86.7031C1089.59 82.6927 1091.02 79.2552 1093.88 76.3906C1096.75 73.526 1100.18 72.0938 1104.2 72.0938ZM1218.06 57.0547L1226.66 61.3516C1223.22 67.3672 1221.5 71.5208 1221.5 73.8125C1221.5 75.2448 1221.93 76.3906 1222.79 77.25C1224.79 79.2552 1227.52 80.401 1230.95 80.6875C1237.54 82.4062 1245.85 83.2656 1255.88 83.2656C1267.91 83.2656 1278.36 82.4062 1287.24 80.6875L1288.1 91.8594L1271.77 92.7188C1270.05 93.0052 1266.19 93.1484 1260.17 93.1484C1240.12 93.1484 1226.37 90.8568 1218.92 86.2734C1213.77 83.1224 1211.19 79.3984 1211.19 75.1016C1211.19 73.0964 1211.62 70.8047 1212.48 68.2266C1213.91 64.7891 1215.77 61.0651 1218.06 57.0547ZM1277.79 16.6641L1278.65 26.5469C1265.47 28.2656 1255.16 29.125 1247.71 29.125C1242.27 29.125 1237.26 28.8385 1232.67 28.2656C1228.09 27.6927 1223.51 26.6901 1218.92 25.2578L1221.93 16.2344C1227.37 17.6667 1231.38 18.526 1233.96 18.8125C1239.12 19.3854 1243.84 19.6719 1248.14 19.6719C1255.88 19.6719 1265.76 18.6693 1277.79 16.6641ZM1343.1 5.0625L1341.81 23.5391L1345.68 21.8203L1349.55 28.6953C1346.11 31.5599 1343.24 34.2812 1340.95 36.8594V42.875C1352.7 33.4219 1361.15 27.263 1366.3 24.3984C1370.89 22.1068 1374.61 20.9609 1377.48 20.9609C1381.77 20.9609 1385.07 22.1068 1387.36 24.3984C1389.65 27.263 1390.8 30.987 1390.8 35.5703C1390.8 41.013 1390.65 47.0286 1390.37 53.6172C1389.51 67.6536 1389.08 74.9583 1389.08 75.5312C1389.08 78.6823 1389.51 80.974 1390.37 82.4062C1390.65 83.5521 1391.51 84.125 1392.95 84.125C1394.09 84.125 1395.09 83.5521 1395.95 82.4062C1396.53 81.5469 1397.53 77.5365 1398.96 70.375C1402.4 72.9531 1405.69 74.3854 1408.84 74.6719C1407.12 82.6927 1404.98 87.9922 1402.4 90.5703C1399.82 93.1484 1396.67 94.4375 1392.95 94.4375C1388.65 94.4375 1385.21 93.0052 1382.63 90.1406C1380.05 86.9896 1378.77 82.4062 1378.77 76.3906C1378.77 70.6615 1378.91 65.0755 1379.2 59.6328C1380.05 47.0286 1380.48 40.4401 1380.48 39.8672C1380.48 36.1432 1379.91 33.7083 1378.77 32.5625C1377.62 31.4167 1376.19 30.8438 1374.47 30.8438C1372.46 30.8438 1370.17 31.7031 1367.59 33.4219C1362.15 36.8594 1353.13 43.8776 1340.52 54.4766V71.6641L1340.95 98.3047H1330.64L1331.07 63.9297L1313.88 81.9766L1307.87 72.9531L1331.07 51.4688L1331.5 35.5703C1324.62 37.2891 1318.9 38.4349 1314.31 39.0078L1313.45 29.125C1317.75 28.8385 1323.91 27.9792 1331.93 26.5469V4.63281L1343.1 5.0625ZM1455.25 64.3594L1465.13 64.7891C1465.13 71.0911 1466.71 75.388 1469.86 77.6797C1474.44 80.8307 1483.04 82.4062 1495.64 82.4062C1501.37 82.4062 1507.53 81.6901 1514.12 80.2578L1514.55 91.4297C1501.37 92.0026 1494.92 92.2891 1495.21 92.2891C1479.74 92.2891 1469.29 89.9974 1463.84 85.4141C1458.11 81.1172 1455.25 74.099 1455.25 64.3594ZM1508.96 20.1016L1508.53 29.9844C1503.66 29.6979 1498.65 29.5547 1493.49 29.5547C1483.47 29.5547 1472.29 30.7005 1459.98 32.9922L1459.12 23.1094C1470.58 20.8177 1481.89 19.6719 1493.06 19.6719C1498.79 19.6719 1504.09 19.8151 1508.96 20.1016ZM1435.91 9.35938L1447.09 12.3672C1444.22 27.5495 1442.5 36.8594 1441.93 40.2969C1441.07 49.1771 1440.64 56.9115 1440.64 63.5C1440.64 74.9583 1441.64 85.7005 1443.65 95.7266L1432.91 98.3047C1432.62 93.1484 1432.26 88.9948 1431.83 85.8438C1431.4 82.6927 1431.04 79.8281 1430.76 77.25C1430.47 74.9583 1430.33 70.5182 1430.33 63.9297C1430.33 47.3151 1432.19 29.125 1435.91 9.35938ZM1572.98 74.6719C1568.4 73.526 1563.82 72.9531 1559.23 72.9531C1554.08 72.9531 1550.21 73.8125 1547.63 75.5312C1545.34 76.9635 1544.2 78.6823 1544.2 80.6875C1544.2 82.9792 1545.34 84.8411 1547.63 86.2734C1549.92 87.9922 1553.51 88.8516 1558.38 88.8516C1564.1 88.8516 1567.97 87.849 1569.98 85.8438C1571.41 84.4115 1572.41 80.6875 1572.98 74.6719ZM1582.87 29.125V29.9844C1589.46 30.2708 1595.47 29.9844 1600.91 29.125C1604.64 28.8385 1609.65 27.6927 1615.95 25.6875L1616.38 36.4297C1604.35 38.7214 1595.47 39.8672 1589.74 39.8672C1587.16 39.8672 1584.87 39.724 1582.87 39.4375V68.2266C1595.47 73.0964 1602.35 75.8177 1603.49 76.3906C1607.22 78.1094 1613.52 81.2604 1622.4 85.8438L1616.38 95.7266C1613.8 94.5807 1611.66 93.3633 1609.94 92.0742C1608.22 90.7852 1606.5 89.6393 1604.78 88.6367C1603.06 87.6341 1601.92 86.9896 1601.34 86.7031C1601.06 86.7031 1598.98 85.7005 1595.11 83.6953C1591.25 81.6901 1587.31 79.9714 1583.3 78.5391C1582.72 85.1276 1581.01 89.7109 1578.14 92.2891C1574.42 95.7266 1567.97 97.4453 1558.8 97.4453C1551.07 97.4453 1545.2 95.7266 1541.19 92.2891C1537.18 88.8516 1535.17 84.9844 1535.17 80.6875C1535.17 76.6771 1537.32 72.9531 1541.62 69.5156C1545.63 66.3646 1552.07 64.7891 1560.95 64.7891C1564.39 64.7891 1568.26 65.2188 1572.55 66.0781C1571.98 56.3385 1571.7 47.1719 1571.7 38.5781V5.92188H1584.16C1583.3 14.5156 1582.87 22.25 1582.87 29.125Z" fill="#FF2D2D" fill-opacity="0.4"/>
</svg>
