<svg width="1612" height="103" viewBox="0 0 1612 103" fill="none" xmlns="http://www.w3.org/2000/svg">
<path d="M15.9609 47.8906C18.2526 49.3229 20.974 50.7552 24.125 52.1875C20.974 62.5 18.5391 68.6589 16.8203 70.6641C15.1016 72.6693 12.9531 73.6719 10.375 73.6719C8.08333 73.6719 6.07812 72.3828 4.35938 69.8047C1.78125 64.9349 0.492188 57.2005 0.492188 46.6016C0.492188 35.1432 2.35417 22.1094 6.07812 7.5L17.25 10.5078C14.099 21.9661 12.0938 31.276 11.2344 38.4375C10.375 45.8854 10.2318 51.4714 10.8047 55.1953C10.8047 55.7682 10.9479 56.1979 11.2344 56.4844H12.0938C12.3802 56.4844 12.6667 56.3411 12.9531 56.0547C13.526 54.9089 14.5286 52.1875 15.9609 47.8906ZM17.6797 98.5938C16.2474 94.2969 14.8151 90.7161 13.3828 87.8516C22.8359 86.1328 30.1406 83.6979 35.2969 80.5469C40.1667 77.3958 43.7474 72.9557 46.0391 67.2266C48.3307 61.2109 49.4766 52.3307 49.4766 40.5859C49.4766 32.2786 48.7604 21.25 47.3281 7.5L58.9297 6.64062C59.7891 18.099 60.2188 28.9844 60.2188 39.2969C60.2188 53.6198 58.7865 64.5052 55.9219 71.9531C53.6302 77.6823 49.9062 82.5521 44.75 86.5625C37.5885 92.0052 28.5651 96.0156 17.6797 98.5938ZM93.7344 78.3984L101.039 71.9531C108.201 78.8281 114.073 85.5599 118.656 92.1484L109.633 99.4531C107.628 96.0156 105.622 93.0078 103.617 90.4297C102.758 89.2839 99.4635 85.2734 93.7344 78.3984ZM214.047 15.2344H272.914L274.203 14.8047L281.508 22.1094L269.906 42.3047C268.76 44.3099 266.326 47.7474 262.602 52.6172C271.482 61.2109 277.641 67.3698 281.078 71.0938C283.37 73.3854 288.383 79.2578 296.117 88.7109L286.234 96.4453C282.51 90.7161 279.073 85.9896 275.922 82.2656C269.047 74.2448 262.458 67.0833 256.156 60.7812C246.99 70.5208 239.828 77.2526 234.672 80.9766C226.651 86.9922 218.63 91.862 210.609 95.5859C210.036 94.4401 208.891 92.5781 207.172 90C206.599 89.4271 206.098 88.7826 205.668 88.0664C205.238 87.3503 204.307 86.5625 202.875 85.7031C218.057 79.1146 230.375 71.5234 239.828 62.9297C248.422 54.9089 257.589 42.3047 267.328 25.1172H214.047V15.2344ZM361.43 19.9609H393.656L394.516 19.5312L400.102 25.5469L388.5 50.0391C386.495 53.763 383.344 58.2031 379.047 63.3594C375.896 67.6562 371.456 72.3828 365.727 77.5391C360.284 82.1224 354.125 86.4193 347.25 90.4297C342.094 93.2943 335.362 96.3021 327.055 99.4531C326.195 97.4479 325.336 95.7292 324.477 94.2969C323.617 93.151 322.185 91.7188 320.18 90C331.065 86.276 339.229 82.6953 344.672 79.2578C350.688 75.8203 357.276 70.9505 364.438 64.6484C356.417 57.7734 349.685 52.6172 344.242 49.1797L350.688 41.875C358.995 47.3177 365.87 52.1875 371.312 56.4844C374.75 51.6146 377.471 47.4609 379.477 44.0234C381.482 40.8724 383.773 35.8594 386.352 28.9844H355.844C350.688 36.1458 347.25 40.8724 345.531 43.1641C342.38 46.3151 339.516 48.8932 336.938 50.8984C332.068 55.4818 327.055 59.2057 321.898 62.0703C320.18 58.3464 317.888 55.3385 315.023 53.0469C322.471 48.75 328.057 44.8828 331.781 41.4453C336.365 37.7214 340.661 32.7083 344.672 26.4062C348.969 19.5312 352.549 12.3698 355.414 4.92188L367.016 8.78906C365.297 12.2266 363.435 15.9505 361.43 19.9609ZM490.766 29.4141L481.742 37.5781V98.5938H470.141V46.6016C466.13 50.0391 459.398 54.6224 449.945 60.3516C441.352 65.2214 434.763 68.6589 430.18 70.6641C428.747 66.6536 426.885 63.2161 424.594 60.3516C434.906 56.0547 443.93 51.3281 451.664 46.1719C458.826 41.875 466.56 36.0026 474.867 28.5547C482.315 21.9661 489.906 13.9453 497.641 4.49219L507.094 12.6562L490.766 29.4141ZM552.211 65.0781V10.9375H563.812V65.0781H552.211ZM566.391 99.8828C565.245 96.7318 563.383 93.2943 560.805 89.5703C569.398 87.2786 575.271 85.2734 578.422 83.5547C582.432 81.8359 585.87 79.2578 588.734 75.8203C591.885 72.6693 594.034 69.2318 595.18 65.5078C596.612 59.2057 597.328 51.1849 597.328 41.4453V6.21094H608.5V44.4531C608.5 59.9219 605.779 71.6667 600.336 79.6875C594.607 87.9948 583.292 94.7266 566.391 99.8828ZM656.195 41.4453L664.359 37.1484C665.792 40.013 667.439 43.0924 669.301 46.3867C671.163 49.681 673.096 53.3333 675.102 57.3438L666.508 61.6406C663.357 54.1927 659.919 47.4609 656.195 41.4453ZM672.094 102.891C670.661 99.1667 668.943 96.3021 666.938 94.2969C677.25 90.8594 685.271 87.1354 691 83.125C696.443 79.401 701.456 73.9583 706.039 66.7969C710.049 59.9219 714.06 49.0365 718.07 34.1406L727.953 37.5781C723.37 51.901 719.359 62.2135 715.922 68.5156C711.911 75.6771 707.042 81.6927 701.312 86.5625C693.292 93.724 683.552 99.1667 672.094 102.891ZM678.109 35L686.703 31.1328C690.714 39.7266 693.721 46.6016 695.727 51.7578L687.562 55.625C685.844 50.7552 682.693 43.8802 678.109 35ZM786.82 45.7422L781.234 55.1953L769.203 48.75C768.63 48.4635 765.479 47.1745 759.75 44.8828L764.047 35.8594C774.073 39.2969 781.664 42.5911 786.82 45.7422ZM840.961 32.8516C843.826 36.862 846.26 39.7266 848.266 41.4453C838.24 53.763 827.211 64.362 815.18 73.2422C804.581 80.9766 789.542 88.8542 770.062 96.875L764.906 85.2734C776.651 81.263 786.104 77.3958 793.266 73.6719C802.719 68.5156 810.883 62.9297 817.758 56.9141C826.352 49.4661 834.086 41.4453 840.961 32.8516ZM798.852 19.9609L792.836 28.5547C783.096 22.5391 775.935 18.3854 771.352 16.0938L776.508 7.5C783.956 10.9375 791.404 15.0911 798.852 19.9609ZM932.484 40.5859L928.617 83.5547H949.242V93.4375H871.898V83.5547H917.875L920.883 49.6094H881.352V40.5859H932.484ZM1043.34 37.1484L1049.79 32.4219C1053.23 37.0052 1055.52 40.013 1056.66 41.4453C1057.81 42.8776 1058.67 44.3099 1059.24 45.7422L1052.8 49.6094C1052.51 49.0365 1049.36 44.8828 1043.34 37.1484ZM1054.95 29.4141L1061.39 25.1172C1062.82 26.263 1064.61 28.3398 1066.76 31.3477C1068.91 34.3555 1070.41 36.5755 1071.27 38.0078L1064.83 42.7344C1063.97 41.5885 1060.67 37.1484 1054.95 29.4141ZM1066.55 20.8203L1040.77 22.9688C1033.89 27.5521 1029.16 31.1328 1026.59 33.7109C1023.43 36.862 1020.57 40.7292 1017.99 45.3125C1015.99 49.3229 1014.98 54.0495 1014.98 59.4922C1014.98 66.9401 1017.85 72.8125 1023.58 77.1094C1029.31 81.9792 1038.47 84.5573 1051.08 84.8438L1050.65 96.0156C1039.19 94.5833 1031.17 92.8646 1026.59 90.8594C1020.28 87.7083 1014.98 83.5547 1010.69 78.3984C1006.96 73.8151 1005.1 68.0859 1005.1 61.2109C1005.1 54.0495 1006.53 47.7474 1009.4 42.3047C1012.55 36.2891 1017.28 30.4167 1023.58 24.6875L997.367 27.2656C996.794 27.2656 988.917 28.2682 973.734 30.2734L972.875 19.5312C990.062 18.6719 1007.82 17.2396 1026.16 15.2344C1027.3 15.2344 1040.62 13.6589 1066.12 10.5078L1066.55 20.8203ZM1134.87 100.742V9.21875H1176.98V75.3906C1176.98 78.2552 1176.55 80.4036 1175.69 81.8359C1174.83 82.6953 1173.4 83.5547 1171.39 84.4141C1169.96 84.7005 1168.45 84.9154 1166.88 85.0586C1165.3 85.2018 1162.51 85.7031 1158.5 86.5625C1157.64 83.125 1156.21 79.5443 1154.2 75.8203H1164.52C1165.09 75.8203 1165.52 75.6771 1165.8 75.3906C1166.38 74.8177 1166.66 74.2448 1166.66 73.6719V17.8125H1145.18V100.742H1134.87ZM1095.77 18.2422V38.8672H1127.56V47.8906H1095.77V74.5312H1127.99V83.125H1095.77V94.2969H1085.88V6.64062L1094.91 10.5078C1101.21 9.07552 1110.95 6.35417 1124.12 2.34375L1128.85 11.3672C1122.84 12.7995 1111.81 15.0911 1095.77 18.2422ZM1235.84 38.8672V31.1328H1213.07V38.8672H1235.84ZM1271.51 38.8672V31.1328H1245.3V38.8672H1271.51ZM1244.01 17.3828H1219.95L1213.07 23.3984H1237.56C1238.99 22.2526 1241.14 20.2474 1244.01 17.3828ZM1232.41 4.0625L1228.11 9.21875H1253.03L1254.75 8.35938L1260.34 14.375C1258.04 16.6667 1256.11 18.5286 1254.54 19.9609C1252.96 21.3932 1251.6 22.5391 1250.45 23.3984H1281.82V46.6016H1258.19C1258.76 51.4714 1260.05 56.0547 1262.05 60.3516C1264.92 58.3464 1267.78 56.3411 1270.65 54.3359C1273.51 52.3307 1276.23 50.4688 1278.81 48.75L1286.12 56.4844C1277.52 61.9271 1270.93 65.9375 1266.35 68.5156C1272.94 77.6823 1280.82 84.5573 1289.98 89.1406C1286.55 92.5781 1284.11 95.5859 1282.68 98.1641C1275.23 93.0078 1270.22 88.9974 1267.64 86.1328C1264.2 82.9818 1261.2 79.1146 1258.62 74.5312C1255.75 70.2344 1253.6 65.9375 1252.17 61.6406C1250.74 58.4896 1249.45 53.4766 1248.3 46.6016H1240.14L1237.13 48.75C1241.72 54.1927 1245.15 59.6354 1247.45 65.0781C1249.45 69.9479 1250.45 76.1068 1250.45 83.5547C1250.45 87.2786 1249.74 90.5729 1248.3 93.4375C1247.16 96.0156 1245.15 97.7344 1242.29 98.5938C1239.14 99.7396 1234.41 100.456 1228.11 100.742C1227.54 96.7318 1226.68 93.4375 1225.53 90.8594H1235.41C1237.42 90.8594 1238.57 90.4297 1238.85 89.5703C1240 88.4245 1240.57 86.276 1240.57 83.125C1240.57 81.4062 1240.43 79.8307 1240.14 78.3984C1229.54 84.1276 1222.52 87.7083 1219.09 89.1406C1214.79 91.1458 1207.34 93.724 1196.74 96.875C1194.16 91.4323 1192.59 88.4245 1192.02 87.8516C1208.92 83.8411 1224.24 77.3958 1237.99 68.5156C1237.99 68.5156 1237.42 67.0833 1236.27 64.2188C1229.4 68.2292 1223.96 71.0938 1219.95 72.8125C1217.08 73.9583 1210.49 76.25 1200.18 79.6875C1199.61 77.9688 1197.89 75.2474 1195.02 71.5234C1208.49 68.3724 1220.95 63.6458 1232.41 57.3438L1229.4 53.4766C1219.09 58.9193 1208.06 63.2161 1196.31 66.3672C1195.17 63.2161 1193.45 60.2083 1191.16 57.3438C1204.33 54.4792 1214.79 50.8984 1222.52 46.6016H1203.62V30.2734C1200.18 32.8516 1198.03 34.4271 1197.17 35C1195.74 32.9948 1193.45 30.4167 1190.3 27.2656C1203.19 18.6719 1213.79 9.79167 1222.09 0.625L1232.41 4.0625ZM1337.25 63.3594L1347.13 63.7891C1347.13 70.0911 1348.71 74.388 1351.86 76.6797C1356.44 79.8307 1365.04 81.4062 1377.64 81.4062C1383.37 81.4062 1389.53 80.6901 1396.12 79.2578L1396.55 90.4297C1383.37 91.0026 1376.92 91.2891 1377.21 91.2891C1361.74 91.2891 1351.29 88.9974 1345.84 84.4141C1340.11 80.1172 1337.25 73.099 1337.25 63.3594ZM1390.96 19.1016L1390.53 28.9844C1385.66 28.6979 1380.65 28.5547 1375.49 28.5547C1365.47 28.5547 1354.29 29.7005 1341.98 31.9922L1341.12 22.1094C1352.58 19.8177 1363.89 18.6719 1375.06 18.6719C1380.79 18.6719 1386.09 18.8151 1390.96 19.1016ZM1317.91 8.35938L1329.09 11.3672C1326.22 26.5495 1324.5 35.8594 1323.93 39.2969C1323.07 48.1771 1322.64 55.9115 1322.64 62.5C1322.64 73.9583 1323.64 84.7005 1325.65 94.7266L1314.91 97.3047C1314.62 92.1484 1314.26 87.9948 1313.83 84.8438C1313.4 81.6927 1313.04 78.8281 1312.76 76.25C1312.47 73.9583 1312.33 69.5182 1312.33 62.9297C1312.33 46.3151 1314.19 28.125 1317.91 8.35938ZM1424.05 50.8984L1435.22 56.9141C1436.94 51.4714 1437.94 45.1693 1438.23 38.0078H1428.34C1427.48 42.0182 1426.05 46.3151 1424.05 50.8984ZM1412.45 14.375V4.92188H1451.12V14.375H1432.64L1430.49 28.9844H1448.54C1447.97 41.3021 1446.53 51.4714 1444.24 59.4922C1441.38 68.6589 1438.23 75.8203 1434.79 80.9766C1430.78 86.9922 1424.91 93.724 1417.17 101.172C1415.74 98.8802 1413.45 96.1589 1410.3 93.0078C1416.03 88.138 1420.32 83.8411 1423.19 80.1172C1425.48 76.9661 1428.2 72.3828 1431.35 66.3672C1426.77 62.9297 1423.19 60.4948 1420.61 59.0625C1417.74 63.6458 1416.17 66.224 1415.88 66.7969C1413.88 63.3594 1411.73 60.638 1409.44 58.6328C1414.31 49.4661 1417.17 43.1641 1418.03 39.7266C1420.04 33.4245 1421.61 24.974 1422.76 14.375H1412.45ZM1468.3 19.1016V1.48438H1478.62V18.6719L1505.69 17.3828L1506.12 26.8359L1478.62 28.125L1479.05 36.7188L1501.82 35.4297L1502.25 43.5938L1479.91 45.3125L1480.77 53.4766L1509.55 50.8984L1509.98 60.3516L1482.48 62.5C1482.77 64.5052 1483.77 67.7995 1485.49 72.3828C1488.64 70.3776 1493.37 67.0833 1499.67 62.5L1506.55 69.375C1502.82 72.2396 1497.24 76.1068 1489.79 80.9766C1492.08 84.4141 1494.37 86.9922 1496.66 88.7109C1497.81 89.8568 1498.67 90.4297 1499.24 90.4297C1499.53 90.4297 1499.82 90.2865 1500.1 90C1500.96 87.4219 1501.68 84.8438 1502.25 82.2656C1505.4 84.2708 1508.55 85.8464 1511.7 86.9922C1509.98 93.2943 1508.12 97.1615 1506.12 98.5938C1504.68 100.026 1503.25 100.742 1501.82 100.742C1498.67 100.742 1495.66 99.7396 1492.8 97.7344C1489.65 95.4427 1485.78 91.4323 1481.2 85.7031C1472.89 89.7135 1462 94.4401 1448.54 99.8828C1446.82 97.0182 1444.67 94.0104 1442.09 90.8594C1452.98 87.7083 1464.58 83.125 1476.9 77.1094C1475.47 73.099 1474.03 68.5156 1472.6 63.3594L1448.11 65.5078L1447.68 55.625L1470.88 54.3359L1470.02 45.7422L1454.55 46.6016V38.0078L1469.16 37.1484L1468.3 28.5547L1450.69 29.4141L1450.26 19.9609L1468.3 19.1016ZM1483.77 7.5L1488.93 1.05469C1494.09 4.77865 1497.95 7.78646 1500.53 10.0781L1494.09 16.5234C1492.37 14.8047 1490.65 13.2292 1488.93 11.7969C1487.21 10.3646 1485.49 8.93229 1483.77 7.5ZM1571.43 88.7109H1577.45C1575.15 83.8411 1573.15 80.6901 1571.43 79.2578C1568.28 76.9661 1565.56 75.8203 1563.27 75.8203C1560.97 75.8203 1559.26 76.3932 1558.11 77.5391C1556.68 78.9714 1555.96 80.2604 1555.96 81.4062C1555.96 83.125 1556.96 84.5573 1558.97 85.7031C1562.69 87.7083 1566.85 88.7109 1571.43 88.7109ZM1560.69 44.4531C1566.7 42.4479 1570.57 41.3021 1572.29 41.0156C1574.01 40.7292 1577.02 40.5859 1581.31 40.5859C1590.19 40.5859 1597.5 43.0208 1603.23 47.8906C1608.67 53.0469 1611.39 59.349 1611.39 66.7969C1611.39 75.3906 1608.24 82.4089 1601.94 87.8516C1595.64 93.8672 1586.76 96.875 1575.3 96.875C1566.13 96.875 1558.68 94.8698 1552.95 90.8594C1549.23 88.2812 1547.37 84.7005 1547.37 80.1172C1547.37 76.9661 1548.8 74.1016 1551.66 71.5234C1554.82 68.9453 1558.54 67.6562 1562.84 67.6562C1567.99 67.6562 1572.86 69.2318 1577.45 72.3828C1581.46 75.8203 1584.46 80.6901 1586.47 86.9922C1591.91 84.4141 1595.21 81.8359 1596.35 79.2578C1598.93 75.8203 1600.22 71.8099 1600.22 67.2266C1600.22 62.3568 1598.21 57.9167 1594.2 53.9062C1590.48 50.4688 1584.75 48.75 1577.02 48.75C1572.43 48.75 1567.99 49.4661 1563.7 50.8984C1559.68 52.6172 1555.1 55.0521 1549.95 58.2031C1546.51 60.7812 1541.21 65.3646 1534.05 71.9531L1526.31 63.3594C1548.66 44.4531 1565.99 28.8411 1578.3 16.5234C1567.13 19.1016 1555.53 20.8203 1543.5 21.6797L1542.64 11.3672C1566.42 9.9349 1581.89 8.07292 1589.05 5.78125L1595.49 14.8047C1593.2 16.237 1590.05 18.6719 1586.04 22.1094C1583.46 24.401 1579.16 28.1966 1573.15 33.4961C1567.13 38.7956 1562.98 42.4479 1560.69 44.4531Z" fill="#FF2D2D" fill-opacity="0.4"/>
</svg>
