<svg width="1628" height="105" viewBox="0 0 1628 105" fill="none" xmlns="http://www.w3.org/2000/svg">
<path d="M27.8203 47.7422L22.2344 57.1953L10.2031 50.75C9.63021 50.4635 6.47917 49.1745 0.75 46.8828L5.04688 37.8594C15.0729 41.2969 22.6641 44.5911 27.8203 47.7422ZM81.9609 34.8516C84.8255 38.862 87.2604 41.7266 89.2656 43.4453C79.2396 55.763 68.2109 66.362 56.1797 75.2422C45.5807 82.9766 30.5417 90.8542 11.0625 98.875L5.90625 87.2734C17.651 83.263 27.1042 79.3958 34.2656 75.6719C43.7188 70.5156 51.8828 64.9297 58.7578 58.9141C67.3516 51.4661 75.0859 43.4453 81.9609 34.8516ZM39.8516 21.9609L33.8359 30.5547C24.0964 24.5391 16.9349 20.3854 12.3516 18.0938L17.5078 9.5C24.9557 12.9375 32.4036 17.0911 39.8516 21.9609ZM117.195 43.4453L125.359 39.1484C126.792 42.013 128.439 45.0924 130.301 48.3867C132.163 51.681 134.096 55.3333 136.102 59.3438L127.508 63.6406C124.357 56.1927 120.919 49.4609 117.195 43.4453ZM133.094 104.891C131.661 101.167 129.943 98.3021 127.938 96.2969C138.25 92.8594 146.271 89.1354 152 85.125C157.443 81.401 162.456 75.9583 167.039 68.7969C171.049 61.9219 175.06 51.0365 179.07 36.1406L188.953 39.5781C184.37 53.901 180.359 64.2135 176.922 70.5156C172.911 77.6771 168.042 83.6927 162.312 88.5625C154.292 95.724 144.552 101.167 133.094 104.891ZM139.109 37L147.703 33.1328C151.714 41.7266 154.721 48.6016 156.727 53.7578L148.562 57.625C146.844 52.7552 143.693 45.8802 139.109 37ZM265.438 11.2188L258.133 24.9688H290.359L292.078 24.1094L298.953 31.4141C292.365 46.5964 288.211 55.6198 286.492 58.4844C284.201 63.0677 280.19 68.3672 274.461 74.3828C269.305 79.8255 263.289 84.5521 256.414 88.5625C247.82 93.1458 239.227 96.7266 230.633 99.3047C229.201 95.5807 227.052 92.2865 224.188 89.4219C231.635 87.4167 239.227 84.6953 246.961 81.2578C253.549 78.1068 259.135 74.2396 263.719 69.6562C267.729 65.9323 271.883 60.776 276.18 54.1875C278.471 50.1771 281.479 43.4453 285.203 33.9922H253.406C249.396 40.2943 245.242 45.8802 240.945 50.75C237.794 54.7604 232.924 59.487 226.336 64.9297C226.336 64.9297 225.978 64.5 225.262 63.6406C224.546 62.7812 223.901 62.0651 223.328 61.4922C223.042 60.9193 221.323 59.6302 218.172 57.625C223.328 53.6146 227.195 50.1771 229.773 47.3125C232.065 44.7344 235.216 40.8672 239.227 35.7109C240.945 33.4193 243.81 28.4062 247.82 20.6719C248.393 20.099 250.398 15.5156 253.836 6.92188L265.438 11.2188ZM370.281 45.1641C375.151 43.4453 386.753 39.7214 405.086 33.9922L408.953 44.7344C386.896 49.8906 373.719 53.4714 369.422 55.4766C358.823 59.487 351.661 63.4974 347.938 67.5078C345.073 70.3724 343.641 73.5234 343.641 76.9609C343.641 80.9714 345.503 83.9792 349.227 85.9844C354.096 88.5625 363.979 89.8516 378.875 89.8516C386.609 89.8516 391.766 89.7083 394.344 89.4219C398.927 89.4219 404.227 88.849 410.242 87.7031L410.672 98.4453C395.203 99.3047 385.607 99.7344 381.883 99.7344C368.133 99.7344 357.534 98.4453 350.086 95.8672C343.784 93.5755 339.63 90.8542 337.625 87.7031C335.047 84.2656 333.758 80.8281 333.758 77.3906C333.758 72.2344 335.763 67.2214 339.773 62.3516C343.784 57.4818 351.089 52.7552 361.688 48.1719C361.115 45.5938 360.398 41.0104 359.539 34.4219C358.966 30.4115 358.68 25.3984 358.68 19.3828C358.68 14.513 358.823 10.3594 359.109 6.92188L370.711 6.49219C369.852 16.8047 369.422 25.3984 369.422 32.2734C369.422 33.4193 369.708 37.7161 370.281 45.1641ZM444.617 23.25V13.7969H513.367V23.25H477.273V46.4531H527.117V55.4766H477.273V80.3984C477.273 83.263 477.846 84.8385 478.992 85.125C480.424 85.9844 483.576 86.4141 488.445 86.4141C503.341 86.7005 514.37 86.7005 521.531 86.4141V97.1562C501.479 97.1562 488.302 96.8698 482 96.2969C477.13 95.724 473.836 95.151 472.117 94.5781C470.685 94.2917 469.109 93.2891 467.391 91.5703C466.245 90.4245 465.672 88.276 465.672 85.125V55.4766H434.734V46.4531H465.672V23.25H444.617ZM619.93 14.2266L624.656 9.5C629.24 12.9375 633.25 16.375 636.688 19.8125L631.531 24.9688C630.099 23.5365 626.232 19.9557 619.93 14.2266ZM590.281 21.9609H620.359L621.648 21.5312L628.953 27.9766C622.651 42.2995 616.492 53.7578 610.477 62.3516C605.607 69.513 598.589 76.6745 589.422 83.8359C580.542 90.7109 569.799 96.5833 557.195 101.453C554.617 96.8698 552.182 93.4323 549.891 91.1406C559.917 88.276 568.224 84.8385 574.812 80.8281C581.401 76.8177 587.56 71.9479 593.289 66.2188C586.414 60.4896 579.969 55.3333 573.953 50.75L580.398 43.4453C588.419 49.1745 595.151 54.3307 600.594 58.9141C606.609 50.3203 611.766 41.0104 616.062 30.9844H585.555C575.815 45.5938 564.357 56.4792 551.18 63.6406C549.461 60.4896 547.026 57.625 543.875 55.0469C551.323 50.75 556.479 47.3125 559.344 44.7344C565.359 39.5781 570.229 34.1354 573.953 28.4062C578.25 22.1042 581.831 14.9427 584.695 6.92188L595.438 11.2188C594.005 14.0833 592.286 17.6641 590.281 21.9609ZM640.555 16.375L628.523 6.0625L633.68 0.476562C634.539 1.33594 635.47 2.19531 636.473 3.05469C637.475 3.91406 638.693 4.98828 640.125 6.27734C641.557 7.56641 643.419 9.07031 645.711 10.7891L640.555 16.375ZM741.531 30.125C742.391 31.5573 743.536 32.9896 744.969 34.4219C745.828 35.5677 747.404 36.8568 749.695 38.2891C740.242 49.7474 732.938 57.7682 727.781 62.3516C720.906 68.6536 712.742 74.9557 703.289 81.2578C693.549 87.2734 682.378 93.1458 669.773 98.875L663.758 86.8438C673.497 83.6927 680.659 80.8281 685.242 78.25C694.982 73.0938 702 68.9401 706.297 65.7891C712.885 60.9193 718.901 55.763 724.344 50.3203C730.646 44.0182 736.375 37.2865 741.531 30.125ZM696.844 30.5547L689.109 39.5781C682.807 33.849 678.51 30.125 676.219 28.4062C675.646 27.8333 674.643 27.0456 673.211 26.043C671.779 25.0404 670.203 23.9661 668.484 22.8203C666.766 21.6745 665.333 20.6719 664.188 19.8125L671.062 11.2188C674.214 12.9375 677.007 14.6562 679.441 16.375C681.876 18.0938 683.523 19.2396 684.383 19.8125C690.112 24.3958 694.266 27.9766 696.844 30.5547ZM839.07 72.2344C839.07 66.7917 838.927 63.6406 838.641 62.7812C842.651 63.3542 844.513 63.6406 844.227 63.6406C844.799 63.6406 845.372 63.3542 845.945 62.7812C846.232 62.4948 846.375 61.7786 846.375 60.6328C846.375 52.8984 840.216 42.013 827.898 27.9766L833.914 21.9609C843.367 32.2734 849.383 39.8646 851.961 44.7344C855.685 51.8958 857.547 58.0547 857.547 63.2109C857.547 66.6484 856.688 69.0833 854.969 70.5156C852.964 72.2344 849.24 73.0938 843.797 73.0938C843.51 73.0938 841.935 72.8073 839.07 72.2344ZM836.492 19.3828L841.648 13.7969C843.94 15.5156 846.303 17.4492 848.738 19.5977C851.173 21.7461 853.107 23.5365 854.539 24.9688L848.953 30.5547C845.516 26.8307 841.362 23.1068 836.492 19.3828ZM796.102 6.49219L807.703 9.5L802.117 26.6875H808.992C815.008 26.6875 819.448 28.4062 822.312 31.8438C825.177 34.9948 826.609 40.151 826.609 47.3125C826.609 53.6146 825.32 61.7786 822.742 71.8047C819.591 82.1172 816.44 89.4219 813.289 93.7188C810.711 96.8698 807.846 98.4453 804.695 98.4453C802.69 98.4453 800.398 97.5859 797.82 95.8672C794.669 93.2891 791.375 89.8516 787.938 85.5547C790.802 83.263 792.951 80.8281 794.383 78.25C797.82 83.9792 800.542 86.8438 802.547 86.8438C805.125 86.8438 807.846 83.263 810.711 76.1016C814.721 64.9297 816.727 55.1901 816.727 46.8828C816.727 42.013 816.154 38.862 815.008 37.4297C813.576 35.9974 811.284 35.2812 808.133 35.2812C804.695 35.2812 801.544 35.4245 798.68 35.7109C791.518 56.9089 782.638 77.3906 772.039 97.1562L762.156 92C767.312 83.6927 772.039 75.099 776.336 66.2188C779.487 59.6302 783.354 50.1771 787.938 37.8594C781.349 39.0052 775.333 40.4375 769.891 42.1562L768.602 30.9844C770.32 30.9844 777.768 29.9818 790.945 27.9766L794.383 15.5156C794.669 14.0833 795.027 12.5078 795.457 10.7891C795.887 9.07031 796.102 7.63802 796.102 6.49219ZM845.945 9.07031L851.102 3.48438C855.971 7.20833 860.268 10.7891 863.992 14.2266L858.406 20.2422C854.396 16.2318 850.242 12.5078 845.945 9.07031ZM944.773 77.3906V67.5078H936.18V77.3906H944.773ZM927.156 91.1406V59.3438H953.367V85.125H936.18V91.1406H927.156ZM876.883 58.9141V50.75H906.102V58.9141H876.883ZM876.883 44.3047V36.5703H906.102V44.3047H876.883ZM871.727 30.5547V22.3906H910.828V30.5547H871.727ZM935.75 27.9766V18.5234H945.203V27.9766H953.797V35.2812H945.203V44.3047H955.945V52.4688H925.867V44.3047H935.75V35.2812H927.586V27.9766H935.75ZM876.883 16.375V7.35156H906.102V16.375H876.883ZM897.938 87.7031V74.3828H885.477V87.7031H897.938ZM913.836 39.1484V6.49219H967.547V90.2812C967.547 94.2917 966.974 96.8698 965.828 98.0156C964.969 98.875 960.958 100.021 953.797 101.453C952.938 97.7292 951.648 94.4349 949.93 91.5703H956.805C957.378 91.5703 957.807 91.4271 958.094 91.1406C958.38 90.8542 958.523 90.4245 958.523 89.8516V15.5156H922.43V62.3516C921.857 71.8047 921.141 78.8229 920.281 83.4062C919.135 89.4219 916.987 95.2943 913.836 101.023C911.831 98.4453 909.682 96.1536 907.391 94.1484V95.8672H885.477V101.453H875.594V65.7891H907.391V92C909.109 87.7031 910.398 83.8359 911.258 80.3984C912.404 74.3828 913.12 69.2266 913.406 64.9297C913.693 62.3516 913.836 53.7578 913.836 39.1484ZM1065.09 79.5391V25.8281H1043.6V79.5391H1065.09ZM1033.72 98.0156V16.375H1075.83V95.4375H1065.09V88.5625H1043.6V98.0156H1033.72ZM1014.38 17.2344V32.7031H1030.28V41.7266H1014.38V49.4609C1017.82 52.612 1023.55 56.7656 1031.57 61.9219L1027.27 68.3672C1026.99 68.6536 1026.56 69.6562 1025.98 71.375C1022.55 68.7969 1018.68 65.7891 1014.38 62.3516V101.023H1004.93V61.4922C1000.92 67.5078 998.198 71.5182 996.766 73.5234C995.62 75.2422 992.755 78.5365 988.172 83.4062C986.167 80.5417 983.445 77.8203 980.008 75.2422C984.305 71.2318 988.745 66.2188 993.328 60.2031C995.906 57.0521 999.63 50.8932 1004.5 41.7266H983.445V32.7031H1004.93V18.5234L988.602 20.6719C987.742 18.0938 986.167 15.0859 983.875 11.6484C995.906 10.7891 1004.07 9.78646 1008.37 8.64062C1012.66 8.06771 1018.68 6.49219 1026.41 3.91406L1032 13.3672C1023.98 15.0859 1018.11 16.375 1014.38 17.2344ZM1142.43 57.625C1141.28 53.3281 1139.85 50.3203 1138.13 48.6016C1136.7 47.1693 1135.27 46.4531 1133.84 46.4531C1131.26 46.4531 1129.4 47.4557 1128.25 49.4609C1126.53 51.4661 1125.67 53.901 1125.67 56.7656C1125.67 60.2031 1126.53 63.0677 1128.25 65.3594C1129.4 67.3646 1131.11 68.3672 1133.41 68.3672C1135.41 68.3672 1137.27 67.5078 1138.99 65.7891C1141 63.7839 1142.14 61.0625 1142.43 57.625ZM1152.74 22.3906C1159.62 22.1042 1166.71 21.7461 1174.01 21.3164C1181.32 20.8867 1186.4 20.6719 1189.27 20.6719V30.9844H1152.74V62.7812C1153.32 69.3698 1153.32 73.5234 1152.74 75.2422C1152.46 77.5339 1151.45 80.3984 1149.73 83.8359C1147.73 87.5599 1144.15 90.9974 1138.99 94.1484C1134.41 97.5859 1127.68 100.594 1118.8 103.172C1117.36 99.4479 1115.65 96.1536 1113.64 93.2891C1123.67 91.5703 1131.26 88.7057 1136.41 84.6953C1140.71 80.9714 1143.29 75.9583 1144.15 69.6562C1141.57 72.2344 1139.42 73.9531 1137.7 74.8125C1136.56 75.6719 1134.7 76.1016 1132.12 76.1016C1128.39 76.1016 1124.96 74.3828 1121.8 70.9453C1118.65 67.2214 1117.08 62.9245 1117.08 58.0547C1117.08 52.3255 1118.8 47.599 1122.23 43.875C1125.39 40.4375 1128.82 38.7188 1132.55 38.7188C1136.27 38.7188 1139.85 40.724 1143.29 44.7344L1142.86 31.4141L1095.59 34.8516L1095.16 24.5391L1142.86 22.8203L1142.43 3.48438H1153.6C1153.03 11.5052 1152.74 17.8073 1152.74 22.3906ZM1252.43 90.7109H1258.45C1256.15 85.8411 1254.15 82.6901 1252.43 81.2578C1249.28 78.9661 1246.56 77.8203 1244.27 77.8203C1241.97 77.8203 1240.26 78.3932 1239.11 79.5391C1237.68 80.9714 1236.96 82.2604 1236.96 83.4062C1236.96 85.125 1237.96 86.5573 1239.97 87.7031C1243.69 89.7083 1247.85 90.7109 1252.43 90.7109ZM1241.69 46.4531C1247.7 44.4479 1251.57 43.3021 1253.29 43.0156C1255.01 42.7292 1258.02 42.5859 1262.31 42.5859C1271.19 42.5859 1278.5 45.0208 1284.23 49.8906C1289.67 55.0469 1292.39 61.349 1292.39 68.7969C1292.39 77.3906 1289.24 84.4089 1282.94 89.8516C1276.64 95.8672 1267.76 98.875 1256.3 98.875C1247.13 98.875 1239.68 96.8698 1233.95 92.8594C1230.23 90.2812 1228.37 86.7005 1228.37 82.1172C1228.37 78.9661 1229.8 76.1016 1232.66 73.5234C1235.82 70.9453 1239.54 69.6562 1243.84 69.6562C1248.99 69.6562 1253.86 71.2318 1258.45 74.3828C1262.46 77.8203 1265.46 82.6901 1267.47 88.9922C1272.91 86.4141 1276.21 83.8359 1277.35 81.2578C1279.93 77.8203 1281.22 73.8099 1281.22 69.2266C1281.22 64.3568 1279.21 59.9167 1275.2 55.9062C1271.48 52.4688 1265.75 50.75 1258.02 50.75C1253.43 50.75 1248.99 51.4661 1244.7 52.8984C1240.68 54.6172 1236.1 57.0521 1230.95 60.2031C1227.51 62.7812 1222.21 67.3646 1215.05 73.9531L1207.31 65.3594C1229.66 46.4531 1246.99 30.8411 1259.3 18.5234C1248.13 21.1016 1236.53 22.8203 1224.5 23.6797L1223.64 13.3672C1247.42 11.9349 1262.89 10.0729 1270.05 7.78125L1276.49 16.8047C1274.2 18.237 1271.05 20.6719 1267.04 24.1094C1264.46 26.401 1260.16 30.1966 1254.15 35.4961C1248.13 40.7956 1243.98 44.4479 1241.69 46.4531ZM1372.31 55.9062V34.8516H1358.56V55.9062H1372.31ZM1395.95 55.9062V34.8516H1381.34V55.9062H1395.95ZM1372.31 26.6875V5.63281H1381.34V26.6875H1404.97V64.0703H1381.34V85.5547L1394.23 83.8359C1393.94 82.9766 1391.93 79.5391 1388.21 73.5234L1397.23 70.0859C1398.95 72.6641 1400.17 74.526 1400.89 75.6719C1401.6 76.8177 1402.25 77.8919 1402.82 78.8945C1403.39 79.8971 1403.97 80.9714 1404.54 82.1172C1407.12 87.2734 1409.55 92.4297 1411.84 97.5859L1401.96 101.883L1397.66 92L1347.39 99.7344L1344.81 89.8516L1362 88.1328C1363.72 87.5599 1367.16 87.1302 1372.31 86.8438V64.0703H1358.56V69.6562H1349.11V26.6875H1372.31ZM1331.92 18.0938C1335.93 14.0833 1339.23 10.2161 1341.8 6.49219L1349.54 12.9375C1345.82 17.5208 1341.38 22.3906 1336.22 27.5469C1338.51 36.7135 1340.09 43.7318 1340.95 48.6016C1341.8 54.6172 1342.23 60.776 1342.23 67.0781C1342.23 77.3906 1341.8 84.5521 1340.95 88.5625C1340.09 91.7135 1338.65 94.2917 1336.65 96.2969C1335.79 97.7292 1334.5 98.5885 1332.78 98.875C1332.49 99.1615 1327.91 100.164 1319.03 101.883C1318.74 99.5911 1317.74 96.1536 1316.02 91.5703H1325.91C1327.62 91.5703 1328.77 91.2839 1329.34 90.7109C1330.2 89.8516 1330.78 87.7031 1331.06 84.2656C1331.92 77.9635 1332.21 70.2292 1331.92 61.0625C1327.34 66.2188 1322.18 70.9453 1316.45 75.2422C1315.31 71.8047 1313.59 68.7969 1311.3 66.2188C1320.18 59.6302 1326.77 53.4714 1331.06 47.7422C1331.06 46.8828 1330.06 42.2995 1328.05 33.9922C1327.48 34.5651 1323.76 37.4297 1316.88 42.5859C1314.59 38.862 1312.73 35.9974 1311.3 33.9922C1314.45 32.2734 1318.89 29.1224 1324.62 24.5391C1323.47 21.6745 1320.61 16.6615 1316.02 9.5L1322.9 4.34375C1325.19 6.92188 1328.2 11.5052 1331.92 18.0938ZM1495.2 86.4141V71.375H1449.66V86.4141H1495.2ZM1495.2 62.7812V47.7422H1449.66V62.7812H1495.2ZM1495.2 39.5781V25.8281H1449.66V39.5781H1495.2ZM1477.16 4.77344L1472.86 17.6641H1506.8V101.023H1495.2V95.8672H1449.66V101.883H1438.91V17.6641H1462.55L1465.98 2.19531L1477.16 4.77344ZM1575.98 23.6797C1564.81 26.2578 1556.93 30.5547 1552.35 36.5703C1547.48 43.1589 1545.05 50.6068 1545.05 58.9141C1545.05 65.5026 1546.34 70.8021 1548.91 74.8125C1550.35 77.3906 1552.07 78.6797 1554.07 78.6797C1555.22 78.6797 1556.22 78.1068 1557.08 76.9609C1559.66 74.3828 1563.09 67.7943 1567.39 57.1953C1571.4 46.3099 1574.27 35.138 1575.98 23.6797ZM1584.58 98.875C1583.15 94.8646 1581.57 91.5703 1579.85 88.9922C1589.88 86.7005 1596.32 84.6953 1599.19 82.9766C1604.34 80.3984 1608.5 76.6745 1611.65 71.8047C1614.8 66.9349 1616.38 60.9193 1616.38 53.7578C1616.38 44.5911 1613.8 37.2865 1608.64 31.8438C1602.91 26.1146 1595.46 23.1068 1586.3 22.8203C1582.86 41.1536 1579.42 54.3307 1575.98 62.3516C1571.4 73.237 1566.67 81.1146 1561.8 85.9844C1559.8 88.5625 1557.08 89.8516 1553.64 89.8516C1549.34 89.8516 1545.48 87.5599 1542.04 82.9766C1537.46 76.6745 1535.16 68.7969 1535.16 59.3438C1535.16 46.7396 1539.75 36.1406 1548.91 27.5469C1558.08 18.9531 1570.11 14.6562 1585.01 14.6562C1592.46 14.6562 1599.76 16.375 1606.92 19.8125C1611.79 21.8177 1615.66 24.3958 1618.52 27.5469C1621.39 30.6979 1623.68 34.5651 1625.4 39.1484C1626.83 44.3047 1627.55 49.0312 1627.55 53.3281C1627.55 61.9219 1625.54 69.513 1621.53 76.1016C1618.09 82.1172 1612.65 87.1302 1605.2 91.1406C1600.62 94.2917 1593.74 96.8698 1584.58 98.875Z" fill="#FF2D2D" fill-opacity="0.4"/>
</svg>
