<svg width="58" height="55" viewBox="0 0 58 55" fill="none" xmlns="http://www.w3.org/2000/svg">
<path d="M27.25 13V0H33V13H54.75V17.75H33V29.75H51.25V34.75H33V49H58V54.25H2.25V49H27.25V34.75H11.25V29.75H27.25V17.75H13.75C11.75 23.5833 9.08333 28.9167 5.75 33.75C4.75 32.9167 3.83333 32.0833 3 31.25C1.83333 30.5833 1.08333 30.25 0.75 30.25C3.08333 26.9167 4.41667 24.9167 4.75 24.25C6.58333 20.9167 7.83333 18.0833 8.5 15.75C9.83333 11.5833 11 7.08333 12 2.25L17.75 4C17.0833 7.66667 16.3333 10.6667 15.5 13H27.25Z" fill="#FF2D2D" fill-opacity="0.4"/>
</svg>
