<svg width="52" height="54" viewBox="0 0 52 54" fill="none" xmlns="http://www.w3.org/2000/svg">
<path d="M22.5 40.5C19.8333 39.8333 17.1667 39.5 14.5 39.5C11.5 39.5 9.25 40 7.75 41C6.41667 41.8333 5.75 42.8333 5.75 44C5.75 45.3333 6.41667 46.4167 7.75 47.25C9.08333 48.25 11.1667 48.75 14 48.75C17.3333 48.75 19.5833 48.1667 20.75 47C21.5833 46.1667 22.1667 44 22.5 40.5ZM28.25 14V14.5C32.0833 14.6667 35.5833 14.5 38.75 14C40.9167 13.8333 43.8333 13.1667 47.5 12L47.75 18.25C40.75 19.5833 35.5833 20.25 32.25 20.25C30.75 20.25 29.4167 20.1667 28.25 20V36.75C35.5833 39.5833 39.5833 41.1667 40.25 41.5C42.4167 42.5 46.0833 44.3333 51.25 47L47.75 52.75C46.25 52.0833 45 51.375 44 50.625C43 49.875 42 49.2083 41 48.625C40 48.0417 39.3333 47.6667 39 47.5C38.8333 47.5 37.625 46.9167 35.375 45.75C33.125 44.5833 30.8333 43.5833 28.5 42.75C28.1667 46.5833 27.1667 49.25 25.5 50.75C23.3333 52.75 19.5833 53.75 14.25 53.75C9.75 53.75 6.33333 52.75 4 50.75C1.66667 48.75 0.5 46.5 0.5 44C0.5 41.6667 1.75 39.5 4.25 37.5C6.58333 35.6667 10.3333 34.75 15.5 34.75C17.5 34.75 19.75 35 22.25 35.5C21.9167 29.8333 21.75 24.5 21.75 19.5V0.5H29C28.5 5.5 28.25 10 28.25 14Z" fill="#FF2D2D" fill-opacity="0.4"/>
</svg>
