<svg width="56" height="59" viewBox="0 0 56 59" fill="none" xmlns="http://www.w3.org/2000/svg">
<path d="M28.25 32C27.5833 29.5 26.75 27.75 25.75 26.75C24.9167 25.9167 24.0833 25.5 23.25 25.5C21.75 25.5 20.6667 26.0833 20 27.25C19 28.4167 18.5 29.8333 18.5 31.5C18.5 33.5 19 35.1667 20 36.5C20.6667 37.6667 21.6667 38.25 23 38.25C24.1667 38.25 25.25 37.75 26.25 36.75C27.4167 35.5833 28.0833 34 28.25 32ZM34.25 11.5C38.25 11.3333 42.375 11.125 46.625 10.875C50.875 10.625 53.8333 10.5 55.5 10.5V16.5H34.25V35C34.5833 38.8333 34.5833 41.25 34.25 42.25C34.0833 43.5833 33.5 45.25 32.5 47.25C31.3333 49.4167 29.25 51.4167 26.25 53.25C23.5833 55.25 19.6667 57 14.5 58.5C13.6667 56.3333 12.6667 54.4167 11.5 52.75C17.3333 51.75 21.75 50.0833 24.75 47.75C27.25 45.5833 28.75 42.6667 29.25 39C27.75 40.5 26.5 41.5 25.5 42C24.8333 42.5 23.75 42.75 22.25 42.75C20.0833 42.75 18.0833 41.75 16.25 39.75C14.4167 37.5833 13.5 35.0833 13.5 32.25C13.5 28.9167 14.5 26.1667 16.5 24C18.3333 22 20.3333 21 22.5 21C24.6667 21 26.75 22.1667 28.75 24.5L28.5 16.75L1 18.75L0.75 12.75L28.5 11.75L28.25 0.5H34.75C34.4167 5.16667 34.25 8.83333 34.25 11.5Z" fill="#FF2D2D" fill-opacity="0.4"/>
</svg>
