<svg width="59" height="56" viewBox="0 0 59 56" fill="none" xmlns="http://www.w3.org/2000/svg">
<path d="M20.75 1L20 11.75L22.25 10.75L24.5 14.75C22.5 16.4167 20.8333 18 19.5 19.5V23C26.3333 17.5 31.25 13.9167 34.25 12.25C36.9167 10.9167 39.0833 10.25 40.75 10.25C43.25 10.25 45.1667 10.9167 46.5 12.25C47.8333 13.9167 48.5 16.0833 48.5 18.75C48.5 21.9167 48.4167 25.4167 48.25 29.25C47.75 37.4167 47.5 41.6667 47.5 42C47.5 43.8333 47.75 45.1667 48.25 46C48.4167 46.6667 48.9167 47 49.75 47C50.4167 47 51 46.6667 51.5 46C51.8333 45.5 52.4167 43.1667 53.25 39C55.25 40.5 57.1667 41.3333 59 41.5C58 46.1667 56.75 49.25 55.25 50.75C53.75 52.25 51.9167 53 49.75 53C47.25 53 45.25 52.1667 43.75 50.5C42.25 48.6667 41.5 46 41.5 42.5C41.5 39.1667 41.5833 35.9167 41.75 32.75C42.25 25.4167 42.5 21.5833 42.5 21.25C42.5 19.0833 42.1667 17.6667 41.5 17C40.8333 16.3333 40 16 39 16C37.8333 16 36.5 16.5 35 17.5C31.8333 19.5 26.5833 23.5833 19.25 29.75V39.75L19.5 55.25H13.5L13.75 35.25L3.75 45.75L0.25 40.5L13.75 28L14 18.75C10 19.75 6.66667 20.4167 4 20.75L3.5 15C6 14.8333 9.58333 14.3333 14.25 13.5V0.75L20.75 1Z" fill="#FF2D2D" fill-opacity="0.4"/>
</svg>
