<svg width="46" height="42" viewBox="0 0 46 42" fill="none" xmlns="http://www.w3.org/2000/svg">
<path d="M20.5625 31.5V27.5625H25.25V31.5H33.5V34.875H25.25V38.625H41V42H5.5625V38.625H20.5625V34.875H12.6875V31.5H20.5625ZM29.5625 21.5625V19.125H16.0625V21.5625H29.5625ZM29.5625 16.3125V13.875H16.0625V16.3125H29.5625ZM29.5625 11.0625V8.4375H16.0625V11.0625H29.5625ZM29.5625 4.875V0.9375H34.25V4.875H42.6875V8.4375H34.25V21.5625H44.1875V24.75H33.6875C35.3125 26.625 36.875 28.125 38.375 29.25C39.625 30.25 41.9375 31.6875 45.3125 33.5625C44.0625 35.0625 43.125 36.25 42.5 37.125C37 33.875 32.4375 29.75 28.8125 24.75H17.375C15.75 27 13.75 29.1875 11.375 31.3125C8.5 33.8125 5.8125 35.8125 3.3125 37.3125C2.6875 36.1875 1.75 35.125 0.5 34.125C3.5 32.5 6 30.8125 8 29.0625C9.375 27.9375 10.8125 26.5 12.3125 24.75H1.8125V21.5625H11.75V8.4375H3.5V4.875H11.75V0.9375H16.0625V4.875H29.5625Z" fill="#FF2D2D" fill-opacity="0.4"/>
</svg>
