<svg width="46" height="44" viewBox="0 0 46 44" fill="none" xmlns="http://www.w3.org/2000/svg">
<path d="M16.8125 21.75H41.375L41.75 21.5625L44.5625 24C43.1875 26 41.75 27.875 40.25 29.625L37.4375 27.75L39.125 25.125H32V30.5625H39.875V34.125H32V38.8125H39.875H44.5625C43.8125 40.5625 43.375 41.8125 43.25 42.5625C35.5 42.5625 31.125 42.5 30.125 42.375C27.625 42 25.8125 41.375 24.6875 40.5C23.1875 39.75 21.625 38.375 20 36.375C18 39.5 16.1875 41.875 14.5625 43.5C14.4375 43.125 14.125 42.7188 13.625 42.2812C13.125 41.8438 12.5 41.3125 11.75 40.6875C14.125 38.1875 15.6875 36.125 16.4375 34.5C17.4375 32.75 18.375 30.125 19.25 26.625L23.1875 27.9375C23.0625 28.6875 22.5625 30.375 21.6875 33C23.0625 34.625 24.1875 35.75 25.0625 36.375C26.0625 37.25 27 37.75 27.875 37.875V25.125H16.8125V21.75ZM34.625 5.4375V0.5625H38.375V5.4375H43.625V8.8125H38.375C40.25 11.8125 42.5625 14.3125 45.3125 16.3125C44.0625 17.5625 43.1875 18.5 42.6875 19.125C41.0625 17.875 39.625 16.4375 38.375 14.8125V20.625H34.625V13.5C33.75 15.375 32.1875 17.25 29.9375 19.125C29.5625 18.625 29.0938 18.0938 28.5312 17.5312C27.9688 16.9688 27.5625 16.625 27.3125 16.5C29.1875 14.75 30.5 13.4375 31.25 12.5625C31.5 12.1875 32.3125 10.9375 33.6875 8.8125H30.3125V5.4375H34.625ZM11.1875 30.375V19.3125H8.5625V30.375H11.1875ZM21.3125 5.25V0.375H25.0625V5.25H28.625V8.625H25.0625V10.3125C26.6875 11.4375 28.0625 12.25 29.1875 12.75C28.9375 13.125 28.6875 13.5312 28.4375 13.9688C28.1875 14.4062 27.75 15 27.125 15.75C27.375 15.75 26.6875 15.3125 25.0625 14.4375V20.625H21.3125V13.875C19.9375 15.875 18.3125 17.5625 16.4375 18.9375C15.8125 17.9375 15.1875 17.1875 14.5625 16.6875V34.6875H8.5625V39.375H4.8125V26.8125C4.6875 27.0625 4.46875 27.4688 4.15625 28.0312C3.84375 28.5938 3.4375 29.25 2.9375 30C2.3125 28.25 1.5625 26.625 0.6875 25.125C1.3125 24.25 2.1875 22.625 3.3125 20.25C4.1875 18.625 4.8125 16.75 5.1875 14.625C5.8125 12.125 6.375 9.125 6.875 5.625H2V1.6875H15.6875V5.625H11.1875L10.4375 10.5C10.4375 10.625 10.0625 12.3125 9.3125 15.5625H14.375C16.625 13.8125 18.8125 11.5 20.9375 8.625H16.25V5.25H21.3125Z" fill="#FF2D2D" fill-opacity="0.4"/>
</svg>
