<svg width="58" height="58" viewBox="0 0 58 58" fill="none" xmlns="http://www.w3.org/2000/svg">
<path d="M21.25 40.5H27C27 43.5 27.25 45.4167 27.75 46.25C28.4167 47.25 29.5 48.1667 31 49C33.5 49.8333 37.3333 50.25 42.5 50.25C46.1667 50.25 50.4167 49.9167 55.25 49.25L55.5 55C50.8333 55.5 47.25 55.75 44.75 55.75C38.5833 55.75 33.6667 55.3333 30 54.5C28 53.8333 26.25 52.75 24.75 51.25C23.5833 50.0833 22.75 48.75 22.25 47.25C21.75 44.5833 21.4167 42.3333 21.25 40.5ZM42 21.5L53 21.25L52.75 27C49.0833 26.8333 44.5833 26.75 39.25 26.75C38.75 26.75 37.375 26.8333 35.125 27C32.875 27.1667 30.3333 27.5 27.5 28L27 23C33.3333 22.1667 38.3333 21.6667 42 21.5ZM52 12L48.5 15.25C46.8333 13.25 44.5833 11.1667 41.75 9L44.75 5.75C46.0833 6.75 47.375 7.79167 48.625 8.875C49.875 9.95833 51 11 52 12ZM19.25 3L25.5 5L22.5 14.5C25.5 14 28 13.5 30 13C31.6667 12.6667 33.75 12.0833 36.25 11.25L36.5 17.25C28.6667 18.9167 23.4167 19.8333 20.75 20C19.9167 22.8333 18.8333 25.9167 17.5 29.25C16.1667 32.5833 14.9167 35.8333 13.75 39C13.0833 40.3333 10.5833 46.4167 6.25 57.25L0.75 54.5C3.58333 48.6667 6.08333 43.0833 8.25 37.75C9.41667 34.75 11.5 29 14.5 20.5C11.6667 20.6667 8.08333 20.75 3.75 20.75V15C5.75 15.1667 8 15.25 10.5 15.25C12.5 15.25 14.3333 15.1667 16 15C16.3333 13.8333 16.7917 12.125 17.375 9.875C17.9583 7.625 18.5833 5.33333 19.25 3ZM47.5 3.5L50.5 0.25C52.3333 1.75 54.75 3.83333 57.75 6.5L54.25 9.75C53.0833 8.25 50.8333 6.16667 47.5 3.5Z" fill="#FF2D2D" fill-opacity="0.4"/>
</svg>
